<?xml version="1.0" encoding="utf-8"?>
<!-- Generator: Adobe Illustrator 21.0.2, SVG Export Plug-In . SVG Version: 6.00 Build 0)  -->
<svg version="1.1" xmlns="http://www.w3.org/2000/svg" xmlns:xlink="http://www.w3.org/1999/xlink" x="0px" y="0px"
	 viewBox="0 0 3710 3710" style="enable-background:new 0 0 3710 3710;" xml:space="preserve">
<style type="text/css">
	.st0{display:none;}
	.st1{display:inline;}
	.st2{fill:#FFFFFF;}
	.st3{fill:#F4F7FA;}
	.st4{fill:#97A6B7;}
	.st5{fill:#D8DEE8;}
	.st6{clip-path:url(#SVGID_3_);}
	.st7{fill:#FCFDFE;}
	.st8{clip-path:url(#SVGID_6_);}
	.st9{fill:url(#SVGID_7_);}
	.st10{fill:url(#SVGID_8_);}
	.st11{fill:url(#SVGID_9_);}
	.st12{fill:url(#SVGID_10_);}
	.st13{opacity:0.48;fill:#FFFFFF;}
	.st14{fill:url(#SVGID_11_);}
	.st15{opacity:0.3;fill:url(#SVGID_12_);}
	.st16{opacity:0.75;}
	.st17{fill:url(#SVGID_13_);}
	.st18{fill:url(#SVGID_14_);}
	.st19{opacity:0.3;fill:url(#SVGID_15_);}
	.st20{fill:url(#SVGID_16_);}
	.st21{fill:url(#SVGID_17_);}
	.st22{fill:url(#SVGID_18_);}
	.st23{opacity:0.3;fill:url(#SVGID_19_);}
	.st24{fill:url(#SVGID_20_);}
	.st25{fill:url(#SVGID_21_);}
	.st26{fill:url(#SVGID_22_);}
	.st27{fill:url(#SVGID_23_);}
	.st28{fill:url(#SVGID_24_);}
	.st29{fill:url(#SVGID_25_);}
	.st30{fill:url(#SVGID_26_);}
	.st31{opacity:0.4;fill:url(#SVGID_27_);}
	.st32{fill:url(#SVGID_28_);}
	.st33{fill:url(#SVGID_29_);}
	.st34{fill:url(#SVGID_30_);}
	.st35{fill:url(#SVGID_31_);}
	.st36{fill:url(#SVGID_32_);}
	.st37{fill:url(#SVGID_33_);}
	.st38{fill:url(#SVGID_34_);}
	.st39{fill:url(#SVGID_35_);}
	.st40{opacity:0.3;fill:url(#SVGID_36_);}
	.st41{fill:url(#SVGID_37_);}
	.st42{fill:url(#SVGID_38_);}
	.st43{fill:url(#SVGID_39_);}
	.st44{fill:url(#SVGID_40_);}
	.st45{fill:url(#SVGID_41_);}
</style>
<g id="Background" class="st0">
	<g class="st1">
		<g>
			<rect class="st2" width="3710" height="3710"/>
		</g>
	</g>
</g>
<g id="Illustration">
	<g>
		<path class="st3" d="M3221.4,1651C3145.1,1151.4,2832.2,537.7,2214,473.5c0,0-469.4-57.1-932,29.4
			c-274.6,51.4-515.4,204.2-667.7,423.9c-152.4,219.7-203.3,487.6-141.5,743c40.1,165.9,67.2,337.6,59.8,508
			c-12.9,296.7-5.5,573.6,282.4,750.5c257.1,158,580.6,297.3,889.3,321.7c209.8,16.6,445-10.3,647.2-64.9
			C3381.7,2907,3297.8,2150.5,3221.4,1651z"/>
		<g>
			<g>
				<g>
					<g>
						<path class="st4" d="M2767.3,1186l-79.8,0.1c-5.5-52.7-18.2-103.3-37-150.9l67.5-39.1c18.4-10.7,24.7-34.8,14.1-53.9l-28.4-51
							c-10.7-19.2-34.4-26.3-53.1-15.7l-66.6,37.8c-31-43.5-68-82.6-110-116.3l38.3-65.8c11-18.9,4.5-43.8-14.6-55.6l-51-31.6
							c-19.3-12-44-6.3-55.2,12.7l-38.4,65.2c-49.4-23-102.7-39.6-159-48.5V596c0-22.8-18.8-42.1-42-43.2l-62.1-2.8
							c-23.5-1.1-42.6,16.7-42.6,39.8v78.1c-58,4.8-113.9,17.9-166.5,38l-41.5-70.6c-12.2-20.8-39.2-28.8-60.5-17.9l-56.8,29.1
							c-21.5,11-28.9,36.9-16.4,57.8l43,72.3c-47,33.2-89,73-124.6,118.1l-77.7-44c-22-12.5-50.3-6-63.1,14.5l-34.2,54.7
							c-12.9,20.6-5.2,47.4,17,59.8l80.4,44.5c-22.3,51.3-37.4,106.4-43.9,163.9l-96.4,0.2c-26,0-47.1,19.7-47.1,43.9v64.4
							c0,24.2,21.1,43.6,47.1,43.3l99-1.2c8.4,56.2,24.9,109.7,48.3,159.4l-87.4,49.6c-22.3,12.6-29.9,39.5-17,60l34.2,54.2
							c12.8,20.3,41.1,26.4,63.1,13.6l88.4-51.3c35.3,41.8,76.4,78.5,122,109l-51,86.4c-12.4,21.1-5,46.9,16.4,57.6l56.8,28.3
							c21.2,10.6,48.3,2.2,60.5-18.8l50.5-86.8c49.9,17.6,102.7,28.8,157.4,32.6v96.8c0,23,19.1,40.6,42.6,39.2l62.1-3.7
							c23.2-1.4,42-21,42-43.8v-95.7c53.1-9.1,103.5-24.9,150.5-46.5l46.9,78.9c11.2,18.8,35.9,24.1,55.2,11.9l51-32.4
							c19.1-12.1,25.6-37.1,14.6-55.8l-45.5-77.5c40.7-32.2,77-69.5,107.9-110.8l75.9,42c18.6,10.3,42.4,2.9,53.1-16.5l28.4-51.4
							c10.6-19.3,4.3-43.3-14.1-53.7l-73.4-41.5c19.9-46.6,33.8-96.3,40.8-148l82-1c21.1-0.3,38.2-18.1,38.2-39.9v-57.9
							C2805.5,1203.6,2788.4,1185.9,2767.3,1186z M2121.2,1662.2c-236.1,8.8-433.8-174.5-433.8-409.6
							c0-235.1,197.6-420.9,433.8-415.2c228.1,5.5,407.4,189,407.4,409.8C2528.6,1468.1,2349.3,1653.8,2121.2,1662.2z"/>
						<polygon class="st4" points="1856.9,614.3 1800.1,612.4 1780.5,663.3 						"/>
						<polygon class="st4" points="2420.6,637.9 2486.1,638.5 2486.1,686.9 						"/>
						<polygon class="st4" points="2670.4,871.1 2735.7,873.7 2719.4,910.3 						"/>
						<polygon class="st4" points="2772.9,1186.7 2838.9,1191.9 2817.4,1223.9 						"/>
						<polygon class="st4" points="2663.2,1639.4 2727.2,1648.6 2735,1596.3 						"/>
						<polygon class="st4" points="2418.2,1875.3 2475.7,1885.7 2480.2,1843.3 						"/>
						<polygon class="st4" points="2130.7,1977.2 2079.1,1968.1 2123.5,1902.1 						"/>
						<polygon class="st4" points="1851.1,1921.7 1791,1909.3 1837.3,1853.1 						"/>
						<polygon class="st4" points="1513.3,845 1576,846.9 1551.2,892.7 						"/>
						<polygon class="st4" points="1388.5,1336.9 1446,1345.4 1441.4,1298.4 						"/>
						<polygon class="st4" points="1512,1681.2 1568.2,1690.4 1572.7,1653.2 						"/>
					</g>
					<path class="st5" d="M2831.8,1191.2l-80.5,0.1c-5.5-53.1-18.3-104.2-37.3-152.1l68-39.5c18.6-10.8,25-35.1,14.2-54.4
						l-28.6-51.4c-10.8-19.4-34.7-26.5-53.5-15.8l-67.2,38.1c-31.3-43.8-68.6-83.3-110.9-117.3l38.6-66.4c11.1-19,4.5-44.1-14.7-56
						l-51.4-31.9c-19.4-12.1-44.4-6.4-55.7,12.8l-38.7,65.7c-49.8-23.2-103.5-39.9-160.3-48.9v-77.9c0-23-18.9-42.5-42.3-43.5
						l-62.6-2.9c-23.7-1.1-43,16.9-43,40.1v78.8c-58.5,4.9-114.8,18-167.8,38.3l-41.8-71.2c-12.3-20.9-39.6-29-61-18.1l-57.3,29.4
						c-21.7,11.1-29.1,37.2-16.6,58.3l43.3,72.8c-47.4,33.5-89.8,73.6-125.7,119.1l-78.3-44.3c-22.2-12.6-50.7-6.1-63.6,14.6
						l-34.4,55.2c-13,20.8-5.3,47.8,17.2,60.2l81.1,44.9c-22.5,51.8-37.7,107.2-44.3,165.3l-97.2,0.2c-26.2,0-47.5,19.9-47.5,44.3
						v64.9c0,24.4,21.3,44,47.5,43.6l99.8-1.2c8.4,56.7,25.1,110.6,48.7,160.7l-88.1,50c-22.5,12.7-30.2,39.9-17.2,60.5l34.4,54.7
						c12.9,20.5,41.4,26.6,63.6,13.7l89.1-51.7c35.6,42.1,77,79.1,123,109.9l-51.4,87.1c-12.5,21.2-5.1,47.3,16.6,58.1l57.3,28.6
						c21.4,10.7,48.7,2.2,61-18.9l51-87.5c50.3,17.7,103.6,29,158.7,32.9v97.6c0,23.2,19.3,40.9,43,39.5l62.6-3.7
						c23.4-1.4,42.3-21.2,42.3-44.1v-96.5c53.5-9.1,104.4-25.1,151.7-46.9l47.3,79.5c11.3,19,36.2,24.3,55.7,12l51.4-32.6
						c19.2-12.2,25.8-37.4,14.7-56.3l-45.9-78.2c41.1-32.5,77.6-70.1,108.8-111.7l76.5,42.4c18.8,10.4,42.7,2.9,53.5-16.6l28.6-51.8
						c10.7-19.4,4.4-43.6-14.2-54.2l-74-41.9c20-47,34.1-97.1,41.2-149.2l82.6-1c21.3-0.3,38.5-18.3,38.5-40.2v-58.3
						C2870.3,1208.9,2853.1,1191.1,2831.8,1191.2z M2180.3,1671.3c-238.1,8.8-437.4-175.9-437.4-413c0-237,199.3-424.4,437.4-418.6
						c230,5.6,410.8,190.5,410.8,413.1C2591.1,1475.5,2410.3,1662.7,2180.3,1671.3z"/>
				</g>
			</g>
			<g>
				<g>
					<g>
						<path class="st4" d="M3029.1,2289.2l-42.9-8c2.4-28.9,0.7-57.4-4.7-84.9l40.2-14.2c11-3.9,16.8-16.2,13-27.6l-10.1-30.3
							c-3.8-11.4-15.9-17.6-27-13.8l-39.7,13.6c-12.3-26.5-28.2-51.3-47.4-73.7l27.3-31.5c7.8-9,6.8-23.1-2.2-31.4l-24.2-22.2
							c-9.2-8.4-23-7.8-31,1.3l-27.2,31.2c-24.2-17.3-51.2-31.7-80.6-42.1l7.8-41.6c2.3-12.3-5.8-24.6-18.2-27.5l-33.1-7.8
							c-12.5-2.9-24.6,4.7-26.9,17.1l-7.9,42c-31.7-3.3-63.1-1.9-93.4,3.7l-15.2-42.2c-4.5-12.4-18.2-19.5-30.7-15.7l-33.5,9.9
							c-12.7,3.8-19.2,17-14.7,29.4l15.8,43.2c-28.6,13.1-55.3,30.3-79,51l-37.3-31.5c-10.6-8.9-26.4-8.3-35.4,1.4l-23.9,26
							c-9,9.8-7.6,25,3.1,33.9l38.7,32c-17.2,25.4-30.8,53.4-40.2,83.7l-51.9-9.6c-14-2.6-27.3,5.9-29.7,18.9l-6.5,34.6
							c-2.4,13,7,25.6,20.9,28l53.4,9.3c-1.2,31.1,2.3,61.5,9.9,90.6l-52,17.8c-13.3,4.6-20.1,18.2-15.2,30.5l12.9,32.6
							c4.8,12.2,19.4,18.3,32.6,13.7l52.7-18.6c14.8,26,33.2,49.9,54.6,70.9l-36.1,41.3c-8.8,10.1-7.4,24.7,3,32.6l27.7,21
							c10.4,7.8,25.8,6,34.4-4l35.9-41.6c25.1,14.5,52.3,25.8,81.3,33.4l-9.8,52c-2.3,12.4,6.2,23.8,19,25.4l33.8,4.3
							c12.6,1.6,24.7-7.1,27-19.3l9.7-51.5c29.4,0.5,58.2-3,85.6-9.8l17.3,47.2c4.1,11.3,16.9,16.6,28.5,12l30.7-12.3
							c11.5-4.6,17.5-17.3,13.5-28.5l-16.6-46.3c25.2-13.2,48.4-29.6,69.2-48.7l36.6,30.3c9,7.4,22.5,5.8,30.2-3.5l20.4-24.8
							c7.7-9.3,6.7-22.8-2.2-30.3l-35.3-29.7c15.4-23.1,27.9-48.4,36.9-75.5l44.2,7.7c11.4,2,22.4-5.9,24.6-17.6l5.8-31.1
							C3047.9,2302.5,3040.5,2291.3,3029.1,2289.2z M2633.6,2480c-127.9-19.1-215.7-137.6-191.9-264.1
							c23.7-126.5,148.8-206.4,275.2-179.5c122.1,26,200,142.8,177.7,261.5C2872.3,2416.8,2757.1,2498.5,2633.6,2480z"/>
						<polygon class="st4" points="2597.3,1889.8 2566.9,1883 2551.2,1908.5 						"/>
						<polygon class="st4" points="2898,1959.4 2933.2,1966.3 2928.3,1992.3 						"/>
						<polygon class="st4" points="3008.8,2110 3043.7,2118 3031.2,2136.1 						"/>
						<polygon class="st4" points="3032.1,2290.1 3067.1,2299.6 3052.2,2314.6 						"/>
						<polygon class="st4" points="2927.4,2522.5 2960.9,2533.9 2970.4,2506.6 						"/>
						<polygon class="st4" points="2771.8,2624.6 2801.7,2636 2808.4,2613.7 						"/>
						<polygon class="st4" points="2606.9,2650.4 2580.1,2640.3 2610.6,2609.3 						"/>
						<polygon class="st4" points="2462.1,2592.3 2431,2579.6 2461.7,2554 						"/>
						<polygon class="st4" points="2389.2,1979.2 2422.7,1986.5 2404.7,2008.6 						"/>
						<polygon class="st4" points="2272.4,2231.1 2302.5,2241.5 2304.7,2215.7 						"/>
						<polygon class="st4" points="2304,2428.8 2333.3,2439.4 2339.6,2419.8 						"/>
					</g>
					<path class="st5" d="M3063.3,2298.5l-43.3-8.1c2.4-29.1,0.7-57.9-4.7-85.6l40.6-14.3c11.1-3.9,17-16.4,13.1-27.8l-10.2-30.5
						c-3.8-11.5-16-17.8-27.2-13.9l-40,13.7c-12.4-26.7-28.5-51.7-47.8-74.3l27.5-31.8c7.9-9.1,6.9-23.3-2.3-31.6l-24.4-22.4
						c-9.2-8.5-23.2-7.9-31.2,1.3l-27.5,31.4c-24.4-17.5-51.7-31.9-81.3-42.5l7.9-41.9c2.3-12.4-5.9-24.8-18.4-27.7l-33.4-7.9
						c-12.6-3-24.8,4.7-27.2,17.2l-8,42.4c-31.9-3.3-63.6-1.9-94.1,3.7l-15.3-42.5c-4.5-12.5-18.3-19.6-31-15.9l-33.8,10
						c-12.8,3.8-19.4,17.1-14.8,29.7l15.9,43.6c-28.9,13.2-55.7,30.5-79.6,51.4l-37.7-31.7c-10.7-9-26.7-8.4-35.7,1.4l-24.1,26.2
						c-9.1,9.9-7.7,25.2,3.2,34.1l39.1,32.3c-17.3,25.6-31.1,53.9-40.5,84.4l-52.3-9.7c-14.1-2.6-27.5,5.9-30,19l-6.6,34.9
						c-2.5,13.1,7,25.8,21.1,28.3l53.8,9.4c-1.2,31.3,2.3,62,10,91.3l-52.4,18c-13.4,4.6-20.3,18.4-15.3,30.8l13,32.9
						c4.9,12.3,19.6,18.5,32.8,13.8l53.1-18.8c14.9,26.2,33.4,50.3,55,71.5l-36.4,41.7c-8.9,10.2-7.5,24.9,3,32.9l27.9,21.1
						c10.4,7.9,26,6.1,34.7-4l36.2-41.9c25.3,14.6,52.8,26.1,82,33.7l-9.9,52.5c-2.3,12.5,6.2,24,19.1,25.6l34.1,4.3
						c12.7,1.6,24.9-7.1,27.2-19.5l9.7-51.9c29.7,0.5,58.7-3,86.3-9.9l17.4,47.5c4.2,11.4,17,16.8,28.7,12.1l31-12.4
						c11.6-4.6,17.7-17.5,13.6-28.8l-16.8-46.7c25.4-13.3,48.8-29.9,69.8-49.1l36.9,30.5c9.1,7.5,22.7,5.9,30.5-3.5l20.6-25
						c7.7-9.4,6.8-23-2.2-30.6l-35.6-30c15.5-23.3,28.1-48.8,37.2-76.1l44.5,7.8c11.5,2,22.6-5.9,24.8-17.7l5.9-31.4
						C3082.2,2311.9,3074.7,2300.6,3063.3,2298.5z M2664.5,2490.9c-128.9-19.3-217.4-138.8-193.5-266.3
						c23.9-127.5,150-208.1,277.5-180.9c123.1,26.2,201.7,143.9,179.2,263.7C2905.2,2427.1,2789,2509.5,2664.5,2490.9z"/>
				</g>
			</g>
		</g>
		<g>
			<g>
				<g>
					<g>
						<g>
							<defs>
								<path id="SVGID_1_" d="M1193.3,2568.6c-23.2,38.5-63.8,90.9-107.6,151.5l732,106c-81.9-222.9-197.3-457-24.9-844.1
									c80.9-181.6,295.9-501,207.4-714c-100.8-242.6-300.3-137.9-350.9-325.7c-79.1-293.6-329-497.9-597.5-351.9
									c-265,144-256.1,670.2,93.1,1245.8C1348.5,2277.6,1314.7,2367.4,1193.3,2568.6z"/>
							</defs>
							<linearGradient id="SVGID_2_" gradientUnits="userSpaceOnUse" x1="1727.4398" y1="1331.9315" x2="263.8579" y2="3126.8887">
								<stop  offset="0" style="stop-color:#AA80F9"/>
								<stop  offset="0.1989" style="stop-color:#9B7BF2"/>
								<stop  offset="0.9964" style="stop-color:#6165D7"/>
							</linearGradient>
							<use xlink:href="#SVGID_1_"  style="overflow:visible;fill:url(#SVGID_2_);"/>
							<clipPath id="SVGID_3_">
								<use xlink:href="#SVGID_1_"  style="overflow:visible;"/>
							</clipPath>
							<g class="st6">
								<g>
									<path class="st7" d="M1470.3,2732.6c5.3-96.1,5.4-187.1,5.5-283.4l0-32.1c-2.8-46.4-4.3-92.2-5.8-136.4
										c-3.3-100-6.4-194.5-23.3-294.7c-0.3-5.9-0.4-11.5-0.4-17.6c-0.1-21.5-0.2-43.8-12.7-65l-0.3-0.9
										c-50.3-530.4-210.9-1059.2-477.2-1571.9l3.8-2c266.5,513,427.2,1042.2,477.6,1573c12.8,22.1,13,45.8,13.1,66.8
										c0,6,0.1,11.6,0.4,17.1c16.9,100.3,20,194.9,23.3,295.1c1.5,44.3,3,90,5.8,136.5l0,32.2c-0.1,96.3-0.2,187.3-5.5,283.6
										L1470.3,2732.6z"/>
									<path class="st7" d="M1465.3,2262.3c-4.7-250.8,127.6-548.7,239.4-754.5c121.1-222.8,244.9-388.6,246.1-390.2l3.4,2.6
										c-1.2,1.6-124.9,167.2-245.8,389.8c-111.5,205.3-243.5,502.5-238.8,752.3L1465.3,2262.3z"/>
									<path class="st7" d="M1296.9,1172.2c-19.8-265.9,20.9-549.5,34.3-642.7c2.6-17.8,4.3-29.6,4.2-31.9l4.3-0.1
										c0.1,2.6-1.2,11.9-4.2,32.6c-13.4,93.1-54.1,376.4-34.3,641.8L1296.9,1172.2z"/>
									<path class="st7" d="M1392.5,1597.4c-89.7-229.1-558.8-432.1-563.5-434.2l1.7-3.9c4.7,2,475.4,205.8,565.8,436.6
										L1392.5,1597.4z"/>
								</g>
							</g>
						</g>
					</g>
					<g>
						<g>
							<defs>
								<path id="SVGID_4_" d="M1198.1,1759.6c4,339.8,167.9,227.8,319,261.4c174.4,252.4,190.9,486.5-69.6,688.7l-290.2-43.4
									c-107.7-5-234-37.9-226.9-181.3c8.1-162.1,46.4-265.1-136.6-344.8c-183-79.6-261.6-224.9-187.5-390.2
									c78-173.9-104.9-408.4,28.7-524.9C868.1,1022,1194,1405.7,1198.1,1759.6z"/>
							</defs>
							<linearGradient id="SVGID_5_" gradientUnits="userSpaceOnUse" x1="717.7185" y1="1447.9225" x2="1818.5848" y2="3260.2322">
								<stop  offset="3.597120e-03" style="stop-color:#E38DDD"/>
								<stop  offset="1" style="stop-color:#9571F6"/>
							</linearGradient>
							<use xlink:href="#SVGID_4_"  style="overflow:visible;fill:url(#SVGID_5_);"/>
							<clipPath id="SVGID_6_">
								<use xlink:href="#SVGID_4_"  style="overflow:visible;"/>
							</clipPath>
							<g class="st8">
								<g>
									<path class="st7" d="M1270.2,2367.7c-121.2-132.5-226.1-279.8-312-437.8c-86.6-159.3-152.6-327.3-196.2-499.4
										c-25-98.7-42.6-199.2-52.4-298.8l4.4-0.4c9.8,99.4,27.4,199.7,52.3,298.2c43.5,171.7,109.4,339.4,195.8,498.4
										c85.7,157.6,190.5,304.6,311.4,436.9L1270.2,2367.7z"/>
									<path class="st7" d="M957.8,2554.3l-2-3.9c53.9-27.5,117.5-48.9,189-63.6c34.1-7,67.9-11.7,100.6-13.8l0.3,4.4
										c-32.5,2.1-66.1,6.7-100,13.7C1074.6,2505.8,1011.4,2527,957.8,2554.3z"/>
									<path class="st7" d="M1014.7,2026.9c-149.8-144.9-468.8-131.7-472-131.5l-0.2-4.4c3.2-0.1,324.1-13.5,475.3,132.8
										L1014.7,2026.9z"/>
									<path class="st7" d="M829.9,1648.6c-44.9-231.2,128.5-498.5,130.2-501.1l3.7,2.4c-1.7,2.7-174.1,268.4-129.6,497.9
										L829.9,1648.6z"/>
								</g>
							</g>
						</g>
					</g>
				</g>
			</g>
		</g>
		<g>
			<linearGradient id="SVGID_7_" gradientUnits="userSpaceOnUse" x1="1717.6107" y1="2872.6655" x2="1535.385" y2="2949.2004">
				<stop  offset="0" style="stop-color:#40447E"/>
				<stop  offset="0.9964" style="stop-color:#3C3B6B"/>
			</linearGradient>
			<path class="st9" d="M3215.9,2772.8L622,2750v67.5c0,18.3,11.3,33.9,26.6,36.7l733.5,132.8c8.7,1.6,17.5,2,26.3,1.2l1779.2-151.5
				c15.9-1.4,28.2-17,28.2-35.8V2772.8z"/>
			<g>
				<linearGradient id="SVGID_8_" gradientUnits="userSpaceOnUse" x1="1421.1185" y1="2062.5645" x2="1232.1807" y2="2141.9182">
					<stop  offset="0" style="stop-color:#40447E"/>
					<stop  offset="0.9964" style="stop-color:#3C3B6B"/>
				</linearGradient>
				<path class="st10" d="M2274.6,2663.4L648.9,2786.8c-29.1,2.2-52.7-21.3-52.7-52.4V1486.1c0-31.2,23.7-56.4,52.7-56.4h1625.7
					c24,0,43.3,22.8,43.3,51v1128.5C2317.9,2637.3,2298.5,2661.6,2274.6,2663.4z"/>
				<linearGradient id="SVGID_9_" gradientUnits="userSpaceOnUse" x1="622.0494" y1="2108.3083" x2="2343.8401" y2="2108.3083">
					<stop  offset="0" style="stop-color:#40447E"/>
					<stop  offset="0.9964" style="stop-color:#3C3B6B"/>
				</linearGradient>
				<path class="st11" d="M2300.5,2663.4L674.8,2786.8c-29.1,2.2-52.7-21.3-52.7-52.4V1486.1c0-31.2,23.7-56.4,52.7-56.4h1625.7
					c24,0,43.3,22.8,43.3,51v1128.5C2343.8,2637.3,2324.5,2661.6,2300.5,2663.4z"/>
				<linearGradient id="SVGID_10_" gradientUnits="userSpaceOnUse" x1="732.6468" y1="2663.3828" x2="2480.4668" y2="1240.109">
					<stop  offset="0" style="stop-color:#FFC444"/>
					<stop  offset="0.9964" style="stop-color:#F36F56"/>
				</linearGradient>
				<path class="st12" d="M2249.9,2583.9L735.7,2691c-23.7,1.7-42.9-17.6-42.9-43V1555.1c0-25.4,19.2-46.1,42.9-46.2l1514.2-6.7
					c19.8-0.1,35.8,18.6,35.8,41.8v995.4C2285.6,2562.5,2269.6,2582.5,2249.9,2583.9z"/>
				<path class="st2" d="M1545.1,1463.8c0,11.6-8.4,21-18.7,21.1c-10.3,0-18.7-9.4-18.7-21c0-11.6,8.4-21.1,18.7-21.1
					C1536.7,1442.8,1545.1,1452.2,1545.1,1463.8z"/>
				<path class="st13" d="M1908.8,2321c-125.3-72.4-223.9,19.3-319-71.2c-57.7-54.9-29.3-95.8-100.3-177.9
					c-78.6-90.9-129.7-60.3-208.7-142.1c-99.9-103.4-49.9-183.9-135.9-258.1c-104.3-90.1-216.9-6.7-316.2-93.1
					c-42.8-37.3-66.3-91.4-78.6-149h-97.2c-17,0-30.9,14.8-30.9,33.1v1294c0,18.3,13.8,32.1,30.9,30.8l1656.9-126.3
					c8.1-0.6,15.3-5.7,20-13.1c-121.3-4.7-195.8-48.4-243.4-93.6C1993.1,2466.2,2009.3,2379.1,1908.8,2321z"/>
			</g>
			<linearGradient id="SVGID_11_" gradientUnits="userSpaceOnUse" x1="622.0494" y1="2792.2109" x2="3215.8567" y2="2792.2109">
				<stop  offset="0" style="stop-color:#40447E"/>
				<stop  offset="0.9964" style="stop-color:#3C3B6B"/>
			</linearGradient>
			<path class="st14" d="M2365.3,2657.8L622,2787.7l760.1,137.7c8.7,1.6,17.5,2,26.3,1.2l1807.4-153.8L2393,2658.7
				C2383.8,2657.4,2374.5,2657.1,2365.3,2657.8z"/>
			<linearGradient id="SVGID_12_" gradientUnits="userSpaceOnUse" x1="876.4157" y1="2770.7632" x2="2776.8821" y2="2770.7632">
				<stop  offset="0" style="stop-color:#40447E"/>
				<stop  offset="0.9964" style="stop-color:#3C3B6B"/>
			</linearGradient>
			<polygon class="st15" points="876.4,2791 2327.7,2681.2 2776.9,2743 1338.1,2860.3 			"/>
			<g class="st16">
				<polygon class="st2" points="1001.7,1594.7 835,1595.3 835,1541.3 1001.7,1541.3 				"/>
				<polygon class="st2" points="1875.3,1591.6 1107.6,1594.3 1107.6,1541.3 1875.3,1541.3 				"/>
				<polygon class="st2" points="1268.5,1683.3 1107.6,1684.9 1107.6,1631.9 1268.5,1630.9 				"/>
				<polygon class="st2" points="2112.8,1675.4 1370.8,1682.4 1370.8,1630.3 2112.8,1625.9 				"/>
				<polygon class="st2" points="1268.5,1772.9 1107.6,1775.4 1107.6,1722.4 1268.5,1720.5 				"/>
				<polygon class="st2" points="2112.8,1759.9 1370.8,1771.3 1370.8,1719.3 2112.8,1710.4 				"/>
				<polygon class="st2" points="1001.7,1868.2 835,1871.8 835,1817.8 1001.7,1814.8 				"/>
				<polygon class="st2" points="1875.3,1849.5 1107.6,1865.9 1107.6,1812.9 1875.3,1799.2 				"/>
				<polygon class="st2" points="1268.5,1952.1 1107.6,1956.5 1107.6,1903.5 1268.5,1899.6 				"/>
				<polygon class="st2" points="2112.8,1929 1370.8,1949.3 1370.8,1897.2 2112.8,1879.5 				"/>
				<polygon class="st2" points="1268.5,2041.7 1107.6,2047 1107.6,1994 1268.5,1989.2 				"/>
				<polygon class="st2" points="2112.8,2013.6 1370.8,2038.3 1370.8,1986.2 2112.8,1964.1 				"/>
				<polygon class="st2" points="1268.5,2131.3 1107.6,2137.6 1107.6,2084.6 1268.5,2078.8 				"/>
				<polygon class="st2" points="2112.8,2098.1 1370.8,2127.2 1370.8,2075.2 2112.8,2048.6 				"/>
				<polygon class="st2" points="1528.6,2209.1 1373.3,2216.1 1373.3,2164 1528.6,2157.5 				"/>
				<polygon class="st2" points="2226.1,2177.5 1627.4,2204.6 1627.4,2153.4 2226.1,2128.4 				"/>
				<polygon class="st2" points="1001.7,2324.1 835,2332.6 835,2278.7 1001.7,2270.7 				"/>
				<polygon class="st2" points="1875.3,2279.4 1107.6,2318.7 1107.6,2265.7 1875.3,2229 				"/>
				<polygon class="st2" points="1268.5,2400 1107.6,2409.2 1107.6,2356.2 1268.5,2347.6 				"/>
				<polygon class="st2" points="2112.8,2351.7 1370.8,2394.2 1370.8,2342.1 2112.8,2302.2 				"/>
				<polygon class="st2" points="1268.5,2489.6 1107.6,2499.8 1107.6,2446.7 1268.5,2437.1 				"/>
				<polygon class="st2" points="2112.8,2436.3 1370.8,2483.1 1370.8,2431 2112.8,2386.8 				"/>
				<polygon class="st2" points="1001.7,2597.6 835,2609.1 835,2555.2 1001.7,2544.2 				"/>
				<polygon class="st2" points="1875.3,2537.3 1107.6,2590.3 1107.6,2537.3 1875.3,2486.9 				"/>
			</g>
		</g>
		<g>
			<g>
				<linearGradient id="SVGID_13_" gradientUnits="userSpaceOnUse" x1="2645.2646" y1="30.4029" x2="2659.8589" y2="3444.7981">
					<stop  offset="0" style="stop-color:#AA80F9"/>
					<stop  offset="0.9964" style="stop-color:#6165D7"/>
				</linearGradient>
				<path class="st17" d="M2915.9,2023.2c-94.7,186.9-223.5,206.7-261.4,208.6v0.2c0,0,1.1,0.1-1.7,0c-2.8,0.1-1.7,0-1.7,0v-0.2
					c-34.5-1.6-124.1-15.4-209.1-125.4c-17.9-23.2-35.7-50.7-52.2-83.3c-110-217.1-30-328.9-30-328.9l291.4-0.7v0l1.7,0l1.7,0v0
					l124.1,0.3l167.7,0.4C2946.3,1694.3,3025.9,1806.1,2915.9,2023.2z"/>
				<linearGradient id="SVGID_14_" gradientUnits="userSpaceOnUse" x1="2652.0591" y1="1430.0825" x2="2654.0894" y2="1905.0665">
					<stop  offset="0" style="stop-color:#444B8C"/>
					<stop  offset="0.9964" style="stop-color:#26264F"/>
				</linearGradient>
				<ellipse class="st18" cx="2653.2" cy="1698.9" rx="295.8" ry="37.5"/>
				<linearGradient id="SVGID_15_" gradientUnits="userSpaceOnUse" x1="2699.9009" y1="35.8846" x2="2714.4573" y2="3441.4165">
					<stop  offset="0" style="stop-color:#AA80F9"/>
					<stop  offset="0.9964" style="stop-color:#6165D7"/>
				</linearGradient>
				<path class="st19" d="M2915.9,2023.2c-94.7,186.9-223.5,206.7-261.4,208.6v0.2c0,0,1.1,0.1-1.7,0c-2.8,0.1-1.7,0-1.7,0v-0.2
					c-34.5-1.6-124.1-15.4-209.1-125.4c0.5-101.3,235.4-170.1,308.9-217c92.9-59.4,18.1-190.6,18.1-190.6c3.6-1.7,7.1-3.3,10.6-4.9
					l167.3,0.4C2946.8,1694.3,3025.9,1806.1,2915.9,2023.2z"/>
			</g>
			<linearGradient id="SVGID_16_" gradientUnits="userSpaceOnUse" x1="2048.8672" y1="1172.3335" x2="2357.3845" y2="1172.3335">
				<stop  offset="0" style="stop-color:#444B8C"/>
				<stop  offset="0.9964" style="stop-color:#26264F"/>
			</linearGradient>
			<ellipse class="st20" cx="2203.1" cy="1172.3" rx="154.3" ry="197.4"/>
			<linearGradient id="SVGID_17_" gradientUnits="userSpaceOnUse" x1="2092.1223" y1="1216.8018" x2="3177.3398" y2="1216.8018">
				<stop  offset="0" style="stop-color:#AA80F9"/>
				<stop  offset="0.9964" style="stop-color:#6165D7"/>
			</linearGradient>
			<path class="st21" d="M3177.3,1216.8c0,245.6-242.9,444.6-542.6,444.6c-46,0-90.7-4.7-133.4-13.5
				c-235.2-48.7-409.2-223.2-409.2-431c0-245.5,242.9-444.6,542.6-444.6c84.2,0,163.9,15.7,235,43.8
				C3051.7,887.7,3177.3,1040.3,3177.3,1216.8z"/>
			<path class="st3" d="M2272.4,1419.7l418.4,36.5c92.5,8.1,172.3-64.3,175.5-162.6l3.5-104.9c1.5-45.1-33.1-82.8-76.6-83.9
				l-596.4-15.4c-34.6-0.9-62.4,30.6-62.4,70.2v92.1C2134.3,1338.1,2195.2,1413,2272.4,1419.7z"/>
			
				<linearGradient id="SVGID_18_" gradientUnits="userSpaceOnUse" x1="4173.814" y1="1261.0996" x2="4846.481" y2="1261.0996" gradientTransform="matrix(-1 0 0 1 7010.1123 0)">
				<stop  offset="0" style="stop-color:#444B8C"/>
				<stop  offset="0.9964" style="stop-color:#26264F"/>
			</linearGradient>
			<path class="st22" d="M2262.3,1359.7l447.7,33c66.1,4.9,122.6-47.4,124.8-117.2l1.5-46.3c1.4-44.8-32.8-82.3-75.8-83.6
				l-533.7-16.3c-35-1.1-63.1,30.4-63.1,70.1l-0.1,41.1C2163.6,1302.5,2207.3,1355.7,2262.3,1359.7z"/>
			<path class="st5" d="M2524.8,1319.6c-4.2-6.9-6.8-14.6-6.6-22.7c0.5-26.2,26.7-46.2,59-44.6c32.6,1.6,58.9,24.7,58.3,51.5
				c-0.2,8.3-3.1,15.7-7.8,22.2L2524.8,1319.6z"/>
			<path class="st5" d="M2249.3,1302.3c-3.9-6.6-6.3-13.8-6.2-21.5c0.1-24.9,23.6-44,52.8-42.5c29.5,1.5,53.4,23.4,53.2,48.8
				c-0.1,7.8-2.7,14.9-6.8,21.1L2249.3,1302.3z"/>
			<linearGradient id="SVGID_19_" gradientUnits="userSpaceOnUse" x1="2823.1738" y1="-1788.8624" x2="2846.0391" y2="3560.5469">
				<stop  offset="0" style="stop-color:#AA80F9"/>
				<stop  offset="0.9964" style="stop-color:#6165D7"/>
			</linearGradient>
			<path class="st23" d="M3177.3,1216.8c0,245.6-242.9,444.6-542.6,444.6c-46,0-90.7-4.7-133.4-13.5
				c-42.2-133.2,196.3-279.3,333.5-372.4c168-114,35-459.5,35-459.5C3051.7,887.7,3177.3,1040.3,3177.3,1216.8z"/>
			<linearGradient id="SVGID_20_" gradientUnits="userSpaceOnUse" x1="2949.0313" y1="1249.7432" x2="3257.5488" y2="1249.7432">
				<stop  offset="0" style="stop-color:#444B8C"/>
				<stop  offset="0.9964" style="stop-color:#26264F"/>
			</linearGradient>
			<ellipse class="st24" cx="3103.3" cy="1249.7" rx="154.3" ry="197.4"/>
		</g>
		<g>
			<linearGradient id="SVGID_21_" gradientUnits="userSpaceOnUse" x1="1482.5024" y1="2045.0896" x2="1438.2128" y2="2821.3215">
				<stop  offset="0" style="stop-color:#AA80F9"/>
				<stop  offset="0.9964" style="stop-color:#6165D7"/>
			</linearGradient>
			<path class="st25" d="M1606.4,2393.2c36.6-20.3,25.9-135.3-23.8-216.1c-70.5-114.8-224.9-169.6-256.5-135.4
				c-32.4,35,60.9,166.3,76,187.6C1457.1,2306.7,1563.1,2417.2,1606.4,2393.2z"/>
			
				<linearGradient id="SVGID_22_" gradientUnits="userSpaceOnUse" x1="1057.7446" y1="3270.7644" x2="1168.4531" y2="3270.7644" gradientTransform="matrix(-0.9642 0.2651 0.2651 0.9642 2192.8501 -308.9189)">
				<stop  offset="0" style="stop-color:#444B8C"/>
				<stop  offset="0.9964" style="stop-color:#26264F"/>
			</linearGradient>
			<path class="st26" d="M1937.2,3126.4c-6.8,7.5-8.4,21.4-2.4,28.3c5.8,6.7,14.6,1.7,39.5,2.4c26.7,0.8,33.6,7.1,51.7,2.1
				c7.3-2,20.3-6.9,20-12.2c-0.2-3.7-6.8-5.6-28.7-12.9c-31.2-10.5-31.1-11-37.7-12.1C1962.9,3119.2,1946.2,3116.4,1937.2,3126.4z"
				/>
			
				<linearGradient id="SVGID_23_" gradientUnits="userSpaceOnUse" x1="892.4193" y1="3257.2817" x2="939.1044" y2="3160.6543" gradientTransform="matrix(-0.9802 0.1979 0.1979 0.9802 2204.0603 -227.1835)">
				<stop  offset="0" style="stop-color:#FFC444"/>
				<stop  offset="0.9964" style="stop-color:#F36F56"/>
			</linearGradient>
			<path class="st27" d="M1954.3,3082.9l13.4,44.5c-1,2.4-14.6,10.3-26.3,5.3l-19.9-43.2L1954.3,3082.9z"/>
			
				<linearGradient id="SVGID_24_" gradientUnits="userSpaceOnUse" x1="1231.1818" y1="3263.6279" x2="1341.89" y2="3263.6279" gradientTransform="matrix(-0.9642 0.2651 0.2651 0.9642 2192.8501 -308.9189)">
				<stop  offset="0" style="stop-color:#444B8C"/>
				<stop  offset="0.9964" style="stop-color:#26264F"/>
			</linearGradient>
			<path class="st28" d="M1768.1,3165.5c-6.8,7.5-8.4,21.4-2.4,28.3c5.8,6.7,14.6,1.7,39.5,2.4c26.7,0.8,33.6,7.1,51.7,2.1
				c7.3-2,20.3-6.9,20-12.2c-0.2-3.7-6.8-5.6-28.7-12.9c-31.2-10.5-31.1-11-37.7-12.1C1793.8,3158.3,1777.1,3155.5,1768.1,3165.5z"
				/>
			
				<linearGradient id="SVGID_25_" gradientUnits="userSpaceOnUse" x1="1065.9355" y1="3262.136" x2="1112.6204" y2="3165.5093" gradientTransform="matrix(-0.9802 0.1979 0.1979 0.9802 2204.0603 -227.1835)">
				<stop  offset="0" style="stop-color:#FFC444"/>
				<stop  offset="0.9964" style="stop-color:#F36F56"/>
			</linearGradient>
			<path class="st29" d="M1785.1,3122l13.4,44.5c-1,2.4-14.6,10.3-26.3,5.3l-19.9-43.2L1785.1,3122z"/>
			<linearGradient id="SVGID_26_" gradientUnits="userSpaceOnUse" x1="1288.2115" y1="2034.0038" x2="1243.9219" y2="2810.2351">
				<stop  offset="0" style="stop-color:#AA80F9"/>
				<stop  offset="0.9964" style="stop-color:#6165D7"/>
			</linearGradient>
			<path class="st30" d="M1032.8,2049.1c42.4-14.5,107.3-31.3,187.1-31.3c89.9,0,162.1,0,212,42.5c121,103.2-14.4,350.2,55,533.2
				c7.6,20,29.7,83.6,10.5,152.1c-3.5,12.6-10.8,23.6-23.3,42.1c-73.3,108.8-279.2,117.7-373.5,23.4c-49.9-49.8-94.7-40.7-95.9-97.6
				C999.9,2489.1,1034.7,2265.3,1032.8,2049.1z"/>
			<linearGradient id="SVGID_27_" gradientUnits="userSpaceOnUse" x1="1064.0646" y1="2649.2319" x2="1331.2195" y2="2310.9514">
				<stop  offset="0" style="stop-color:#AA80F9"/>
				<stop  offset="0.9964" style="stop-color:#6165D7"/>
			</linearGradient>
			<path class="st31" d="M1085,2319.3c-17.1-46.9,0.6-100.7-37.6-124.1c-14-8.6-31.4-12.2-50.4-11.8c2.3,165,5.5,329.8,9.5,502
				c1.3,56.9,8.4,59.7,63.6,109.5c63.9,57.7,173.9,76.6,268.3,57.7c-123.6-76-211.8-154.8-199.2-222.3
				c14.7-78.6,158.7-101.8,152.9-157.7C1286,2413.3,1122.5,2421.9,1085,2319.3z"/>
			<linearGradient id="SVGID_28_" gradientUnits="userSpaceOnUse" x1="1028.5157" y1="2019.1865" x2="984.226" y2="2795.4197">
				<stop  offset="0" style="stop-color:#AA80F9"/>
				<stop  offset="0.9964" style="stop-color:#6165D7"/>
			</linearGradient>
			<path class="st32" d="M1072.1,2054.2c-41.6-28.1-141.7,42.7-197.2,105c-25.8,28.9-115.6,129.7-93.3,265.2
				c3.6,22.1,20.4,125.2,108.7,175.8c79.1,45.2,185.8,33.6,271.4-30.5c11.7-10.4,23.4-20.7,35.1-31.1c11.5-12.4,23-24.9,34.5-37.3
				c-18.1-15-48.8-36.7-91.9-50.7c-65.7-21.2-109,10.3-124.7-10.5c-19.4-25.5,39.6-73,55-181.2
				C1073.8,2229.8,1118.5,2085.6,1072.1,2054.2z"/>
			<linearGradient id="SVGID_29_" gradientUnits="userSpaceOnUse" x1="1446.6803" y1="3055.6287" x2="1818.6193" y2="2584.6672">
				<stop  offset="0" style="stop-color:#FF9085"/>
				<stop  offset="1" style="stop-color:#FB6FBB"/>
			</linearGradient>
			<path class="st33" d="M1140.3,2760.2c-27.5,89.4,23.4,53,127,2c109.1-53.7,347.5-130.9,450.3-29.8
				c76.5,75.3,22.4,194.3,140.8,325.4c20.9,23.1,40.6,39.2,53,48.6c21.3-8.8,42.7-17.7,64-26.5c8.4-48.9,34.7-237.3-83.9-406.1
				c-28.7-40.8-83.2-119.2-176.6-152.3C1462.5,2431.9,1165.6,2677.8,1140.3,2760.2z"/>
			<linearGradient id="SVGID_30_" gradientUnits="userSpaceOnUse" x1="1668.1489" y1="2620.6431" x2="1236.6294" y2="3098.6343">
				<stop  offset="0" style="stop-color:#FF9085"/>
				<stop  offset="1" style="stop-color:#FB6FBB"/>
			</linearGradient>
			<path class="st34" d="M1039.6,2676.8c-17.8,51.3-1.8,110.3,27.3,147c64.5,81.4,209.3,72.8,299.7,42.8
				c110-36.6,134.6-103.2,177.9-86.8c67.2,25.4,19.4,191,140.8,325.4c20.9,23.1,40.6,39.2,53,48.6c21.3-8.8,42.7-17.7,64-26.5
				c16.1-113.8,4.3-205-7.9-263.3c-14.1-66.8-26.7-126.7-73.8-184.4c-58.5-71.7-134.9-96.9-178.8-110.7
				C1356.3,2510.4,1085.8,2543.4,1039.6,2676.8z"/>
			<g>
				<linearGradient id="SVGID_31_" gradientUnits="userSpaceOnUse" x1="1465.1204" y1="2745.1018" x2="1404.5336" y2="2573.439">
					<stop  offset="0" style="stop-color:#311944"/>
					<stop  offset="1" style="stop-color:#893976"/>
				</linearGradient>
				<polygon class="st35" points="1641.1,2538 1140.3,2530.6 1273.5,2594.8 1642.4,2570.7 				"/>
				<linearGradient id="SVGID_32_" gradientUnits="userSpaceOnUse" x1="1200.4437" y1="2496.3889" x2="1222.6589" y2="2649.8755">
					<stop  offset="0" style="stop-color:#311944"/>
					<stop  offset="1" style="stop-color:#893976"/>
				</linearGradient>
				<path class="st36" d="M1122.6,2543.9L1122.6,2543.9c0,9.4,5.9,17.7,14.7,21l160,62.7l0.7-43.5l-157.8-53.5
					C1131.4,2528,1122.6,2534.7,1122.6,2543.9z"/>
			</g>
			<linearGradient id="SVGID_33_" gradientUnits="userSpaceOnUse" x1="1193.7803" y1="2530.0154" x2="1319.3347" y2="2530.0154">
				<stop  offset="0" style="stop-color:#FFC444"/>
				<stop  offset="0.9964" style="stop-color:#F36F56"/>
			</linearGradient>
			<path class="st37" d="M1194.1,2523.8c-3.1-0.7,15-36.6,29.1-32.5c14.2,4.2,83.5,44.3,89.8,60.8c6.3,16.5,6.3,16.5,6.3,16.5
				s-30.2,2.4-49-3.9C1251.6,2558.4,1219.1,2529.3,1194.1,2523.8z"/>
			<g>
				<g>
					<linearGradient id="SVGID_34_" gradientUnits="userSpaceOnUse" x1="1640.6261" y1="2509.8318" x2="1522.504" y2="2342.0986">
						<stop  offset="0" style="stop-color:#444B8C"/>
						<stop  offset="0.9964" style="stop-color:#26264F"/>
					</linearGradient>
					<path class="st38" d="M1311.3,2278.9l-35.3,321.4c-1.2,11.1,14.3,27.6,25.5,27.1l517.9-31.8c8.5-0.4,15.6-6.7,17-15.1l65-310.5
						c1.9-11.3-18.4-23-29.8-22.6l-542.7,15.3C1319.8,2263,1312.3,2269.9,1311.3,2278.9z"/>
					<linearGradient id="SVGID_35_" gradientUnits="userSpaceOnUse" x1="1414.047" y1="2787.4272" x2="1672.5514" y2="2262.3406">
						<stop  offset="0" style="stop-color:#311944"/>
						<stop  offset="1" style="stop-color:#893976"/>
					</linearGradient>
					<path class="st39" d="M1323.2,2288.3l-35.3,321.4c-1.2,11.1,7.8,20.6,18.9,20.1l524.4-24.8c8.5-0.4,15.6-6.7,17-15.1
						l53.6-311.9c1.9-11.3-6.9-21.5-18.4-21.2l-542.7,15.3C1331.7,2272.3,1324.2,2279.2,1323.2,2288.3z"/>
				</g>
				<linearGradient id="SVGID_36_" gradientUnits="userSpaceOnUse" x1="1287.7681" y1="2450.4094" x2="1855.668" y2="2450.4094">
					<stop  offset="0" style="stop-color:#311944"/>
					<stop  offset="1" style="stop-color:#893976"/>
				</linearGradient>
				<path class="st40" d="M1631.1,2529.7c-45.8-19.4-29.6-56.4-83.7-102.5c-71.3-60.8-144.1-34.5-169.5-81.6
					c-7.9-14.7-11.7-37.5,2.1-74.5l-39.3,1.1c-9.1,0.3-16.5,7.2-17.5,16.2l-35.3,321.4c-1.2,11.1,7.8,20.6,18.9,20.1l524.4-24.8
					c8.5-0.4,15.6-6.7,17-15.1l7.4-43c-15.9-8.9-34.9-16.9-57.1-21.4C1721.6,2509.9,1683.9,2552,1631.1,2529.7z"/>
			</g>
			<g>
				
					<linearGradient id="SVGID_37_" gradientUnits="userSpaceOnUse" x1="1644.1843" y1="1836.4943" x2="1656.6906" y2="1503.3719" gradientTransform="matrix(0.917 0.3988 -0.3988 0.917 399.6047 -184.8945)">
					<stop  offset="0" style="stop-color:#FFC444"/>
					<stop  offset="0.9964" style="stop-color:#F36F56"/>
				</linearGradient>
				<path class="st41" d="M1228.3,1895c0.3,33.3-3.4,59.8-7,77.9c-4,20.7-6.9,26.1-10.6,30.5c-5.6,6.5-14,12-61.8,23.9
					c-26,6.4-29.3,6.3-29.9,8.8c-2.8,12.6,68.1,55.5,141.3,45.1c44.8-6.3,85.6-31.9,83.1-45.3c-2.5-13.5-47.3-6.3-60.6-30.7
					c-9.3-17,1.1-41.2,13.4-61.2C1284.3,1921.7,1240.2,1917.4,1228.3,1895z"/>
				<g>
					
						<linearGradient id="SVGID_38_" gradientUnits="userSpaceOnUse" x1="848.1857" y1="1900.1848" x2="763.3954" y2="1684.8329" gradientTransform="matrix(-0.9687 -0.2485 -0.2485 0.9687 2456.1904 427.3052)">
						<stop  offset="0" style="stop-color:#311944"/>
						<stop  offset="1" style="stop-color:#6B3976"/>
					</linearGradient>
					<path class="st42" d="M1322.4,1937.4c13.8-10.9,20.6-34.5,12.7-52.6c-6.8-15.6-22.3-21.6-31.6-25.2
						c-26.9-10.4-64.9-8-83.7,14.4c-11.1,13.2-3.7,48.7-2.8,55c1.1,7.1,5.5,10.6,8.9,16.6c4.7,8.4,12,21.6,23.8,43.7
						c2.6-4.9,6.3-10.9,11.2-17.2c1.9-2.4,9.4-11.8,18.9-18.7C1298.9,1939.7,1309.3,1947.8,1322.4,1937.4z"/>
					
						<linearGradient id="SVGID_39_" gradientUnits="userSpaceOnUse" x1="628.0769" y1="1735.8794" x2="624.1773" y2="2050.0659" gradientTransform="matrix(0.982 0.1887 -0.1887 0.982 983.7829 102.0635)">
						<stop  offset="0" style="stop-color:#FFC444"/>
						<stop  offset="0.9964" style="stop-color:#F36F56"/>
					</linearGradient>
					<path class="st43" d="M1230.3,1968.3c0,0,10.4,34.6,47.3,41.7c33,6.3,56.7-65.2,40-86.1c-5.6-7-18.9-12.7-31-12.5
						c-7.1,0.1-10.1,2.3-21.8,2.3c-10.8,0-13.3-1.9-17-0.1c-4.6,2.2-9.5,9.3-8.7,32.3c-4.6-7.9-11.4-12.2-17.3-11.1
						c-0.9,0.2-3.6,1.1-5.4,3.1C1209.7,1945.1,1214.6,1957.7,1230.3,1968.3z"/>
					
						<linearGradient id="SVGID_40_" gradientUnits="userSpaceOnUse" x1="822.2794" y1="1910.4933" x2="737.4065" y2="1694.9315" gradientTransform="matrix(-0.9687 -0.2485 -0.2485 0.9687 2456.1904 427.3052)">
						<stop  offset="0" style="stop-color:#311944"/>
						<stop  offset="1" style="stop-color:#6B3976"/>
					</linearGradient>
					<path class="st44" d="M1247.5,1908.9c1.3,1.6-5,6.2-7.6,14.3c-4.9,15.9,6.4,39.4,22.5,45.3c9.5,3.5,13.8-1.7,30.4,0.8
						c10.3,1.6,18.3,5,23.3,7.5c0.5,18.9-8.9,35.2-22.7,40.3c-15,5.5-29.8-4.1-35.9-8.1c-4.1-2.7-17.4-11.2-21.5-26.5
						c-4.3-15.9,5.6-22.3-1-34c-3.3-5.9-8.8-9.5-12.3-20.2c-0.9-2.9-1.4-5.4-1.7-7C1231.7,1914.8,1245.7,1906.6,1247.5,1908.9z"/>
					
						<linearGradient id="SVGID_41_" gradientUnits="userSpaceOnUse" x1="739.2111" y1="1780.6069" x2="743.625" y2="1819.9573" gradientTransform="matrix(-0.9687 -0.2485 -0.2485 0.9687 2456.1904 427.3052)">
						<stop  offset="0" style="stop-color:#FFC444"/>
						<stop  offset="1" style="stop-color:#F36F56"/>
					</linearGradient>
					<path class="st45" d="M1302.7,1980.4c0,0-8,1.8-19.9-2c-0.6-0.2-1.3-0.2-1.4,0.1c-0.6,1.1,5.9,8.3,13.5,8.1
						c5.5-0.1,10.7-3.9,10.3-5.3C1305,1980.7,1303.8,1980.5,1302.7,1980.4z"/>
				</g>
			</g>
		</g>
	</g>
</g>
</svg>
