<?xml version="1.0" encoding="utf-8"?>
<!-- Generator: Adobe Illustrator 21.0.2, SVG Export Plug-In . SVG Version: 6.00 Build 0)  -->
<svg version="1.1" xmlns="http://www.w3.org/2000/svg" xmlns:xlink="http://www.w3.org/1999/xlink" x="0px" y="0px"
	 viewBox="0 0 500 500" style="enable-background:new 0 0 500 500;" xml:space="preserve">
<style type="text/css">
	.st0{display:none;}
	.st1{display:inline;fill:#70B1C8;}
	.st2{display:inline;fill:#8DC1D3;}
	.st3{fill:#70B1C8;}
	.st4{fill:#C8CDD3;}
	.st5{fill:#EFF6F9;}
	.st6{fill:#ABCFE5;}
	.st7{fill:#B2BAC2;}
	.st8{fill:#A7B0B9;}
	.st9{fill:#2D87BD;}
	.st10{fill:#FFFFFF;}
	.st11{fill:#223950;}
	.st12{fill:#43566A;}
	.st13{fill:#919CA7;}
	.st14{fill:#384C61;}
	.st15{fill:#707E8D;}
	.st16{fill:#5A6A7C;}
	.st17{fill:#579FCA;}
	.st18{fill:#46586C;}
	.st19{fill:#F6A7A7;}
	.st20{fill:#EE4F4F;}
	.st21{fill:#2D4259;}
	.st22{fill:#D3D7DC;}
	.st23{fill:#BDC3CA;}
	.st24{fill:#F17272;}
	.st25{fill:#DEE1E5;}
	.st26{fill:none;stroke:#4F6073;stroke-width:0.9606;stroke-miterlimit:10;}
	.st27{fill:none;stroke:#4F6073;stroke-width:0.9679;stroke-miterlimit:10;}
	.st28{fill:#9EA8B2;}
	.st29{fill:#677686;}
	.st30{fill:#818E9B;}
	.st31{fill:none;stroke:#223950;stroke-width:2.4198;stroke-linecap:round;stroke-miterlimit:10;}
	.st32{clip-path:url(#SVGID_2_);}
	.st33{fill:#8DC1D3;}
	.st34{fill:none;stroke:#4F6073;stroke-width:0.2233;stroke-miterlimit:10;}
	.st35{fill:none;stroke:#4F6073;stroke-width:0.225;stroke-miterlimit:10;}
</style>
<g id="BACKGROUND" class="st0">
	<rect class="st1" width="500" height="500"/>
	<path class="st2" d="M51.7,404.4l411.8-0.2c0,0,89.8-369.2-216.8-363S51.7,404.4,51.7,404.4z"/>
</g>
<g id="OBJECTS">
	<g>
		<ellipse class="st3" cx="250" cy="408.4" rx="221.4" ry="10.7"/>
		<ellipse class="st4" cx="250" cy="408.4" rx="221.4" ry="10.7"/>
	</g>
	<g>
		<path class="st5" d="M408.7,173.5l-9.7,24l24.1-24h26.7V58.2H303.9v115.3C303.9,173.5,409.2,173,408.7,173.5z"/>
		<g>
			<circle class="st6" cx="318.7" cy="71.8" r="4.8"/>
			<g>
				<rect x="329.1" y="68.3" class="st7" width="80.5" height="1.6"/>
				<rect x="329.1" y="73.8" class="st7" width="50.1" height="1.6"/>
			</g>
		</g>
		<g>
			<circle class="st6" cx="318.7" cy="89.1" r="4.8"/>
			<g>
				<rect x="329.1" y="85.5" class="st7" width="80.5" height="1.6"/>
				<rect x="329.1" y="91" class="st7" width="71.4" height="1.6"/>
			</g>
		</g>
		<g>
			<circle class="st6" cx="318.7" cy="123.5" r="4.8"/>
			<g>
				<rect x="329.1" y="119.9" class="st7" width="74.7" height="1.6"/>
				<rect x="329.1" y="125.5" class="st7" width="50.1" height="1.6"/>
			</g>
		</g>
		<g>
			<circle class="st6" cx="318.7" cy="106.3" r="4.8"/>
			<g>
				<rect x="329.1" y="102.7" class="st8" width="80.5" height="1.6"/>
				<rect x="329.1" y="108.3" class="st7" width="61.7" height="1.6"/>
			</g>
			<circle class="st6" cx="318.7" cy="106.3" r="4.8"/>
			<g>
				<rect x="329.1" y="102.7" class="st7" width="80.5" height="1.6"/>
			</g>
		</g>
		<g>
			<circle class="st6" cx="318.7" cy="140.8" r="4.8"/>
			<g>
				<rect x="329.1" y="137.2" class="st7" width="80.5" height="1.6"/>
				<rect x="329.1" y="142.7" class="st7" width="65.6" height="1.6"/>
			</g>
		</g>
		<g>
			<circle class="st6" cx="318.7" cy="158" r="4.8"/>
			<g>
				<rect x="329.1" y="154.4" class="st7" width="72.7" height="1.6"/>
				<rect x="329.1" y="159.9" class="st7" width="44.3" height="1.6"/>
			</g>
		</g>
	</g>
	<g>
		<g>
			<circle class="st9" cx="432.2" cy="168.9" r="5.1"/>
		</g>
		<path class="st10" d="M434.4,168.6c0,0,0.5-0.2,0.6-0.4c0-0.2,0-0.3-0.3-0.4c-0.5-0.2-2-0.1-2-0.1s-0.1-0.1,0.1-0.6
			c0.1-0.5,0.5-1.3-0.1-1.3c-0.6,0-1.4,1.7-1.6,1.8c-0.1,0.1-0.9,0.1-1.2,0.1c0,0.6,0,1.2,0,1.8c0,0.5,0,0.9,0,1.4
			c0.2,0,0.9,0,1.1,0c0.6,0,1.7,0.1,2.4,0.2c0.6,0.1,1.1-0.1,1.1-0.3c0.1-0.3-0.4-0.5-0.4-0.5s0.7,0,0.7-0.3c0-0.4-0.5-0.5-0.5-0.5
			s0.7-0.2,0.6-0.5C434.8,168.6,434.4,168.6,434.4,168.6z"/>
	</g>
	<g>
		<g>
			<circle class="st9" cx="467" cy="137.3" r="4.4"/>
		</g>
		<path class="st10" d="M468.9,137c0,0,0.5-0.2,0.5-0.4c0-0.1,0-0.2-0.2-0.3c-0.5-0.2-1.8-0.1-1.8-0.1s-0.1-0.1,0.1-0.5
			c0.1-0.5,0.5-1.1-0.1-1.1s-1.2,1.4-1.3,1.6c-0.1,0.1-0.8,0.1-1.1,0.1c0,0.5,0,1,0,1.5c0,0.4,0,0.8,0,1.2c0.1,0,0.8,0,0.9,0
			c0.5,0,1.5,0.1,2,0.2c0.5,0.1,0.9-0.1,1-0.2c0.1-0.3-0.3-0.4-0.3-0.4s0.6,0,0.6-0.3c0-0.4-0.4-0.4-0.4-0.4s0.6-0.1,0.5-0.5
			C469.3,137,468.9,137,468.9,137z"/>
	</g>
	<g>
		<g>
			<circle class="st9" cx="454.7" cy="184.3" r="4"/>
		</g>
		<path class="st10" d="M456.4,184.1c0,0,0.4-0.1,0.4-0.3c0-0.1,0-0.2-0.2-0.3c-0.4-0.2-1.6-0.1-1.6-0.1s0-0.1,0.1-0.5
			c0.1-0.4,0.4-1-0.1-1c-0.5,0-1.1,1.3-1.2,1.4c0,0-0.7,0.1-1,0.1c0,0.5,0,0.9,0,1.4c0,0.4,0,0.7,0,1.1c0.1,0,0.7,0,0.9,0
			c0.5,0,1.4,0.1,1.8,0.2c0.5,0,0.9-0.1,0.9-0.2c0.1-0.3-0.3-0.4-0.3-0.4s0.6,0,0.6-0.3c0-0.4-0.4-0.4-0.4-0.4s0.6-0.1,0.5-0.4
			C456.8,184,456.4,184.1,456.4,184.1z"/>
	</g>
	<g>
		<g>
			<circle class="st9" cx="449.1" cy="114.7" r="7.2"/>
		</g>
		<path class="st10" d="M452.2,114.3c0,0,0.7-0.3,0.8-0.6c0-0.2,0-0.4-0.4-0.6c-0.8-0.3-2.8-0.2-2.8-0.2s-0.1-0.1,0.1-0.8
			c0.2-0.7,0.7-1.8-0.1-1.8c-0.9,0-1.9,2.3-2.2,2.5c-0.1,0.1-1.3,0.1-1.7,0.2c0,0.8,0,1.6,0,2.5c0,0.6,0,1.3,0,1.9
			c0.2,0,1.3,0,1.5,0c0.9-0.1,2.4,0.2,3.3,0.3c0.8,0.1,1.5-0.2,1.6-0.4c0.1-0.5-0.5-0.6-0.5-0.6s1-0.1,1-0.5c0-0.6-0.6-0.7-0.6-0.7
			s1-0.2,0.8-0.8C452.7,114.2,452.2,114.3,452.2,114.3z"/>
	</g>
	<g>
		<g>
			<circle class="st9" cx="395.2" cy="186.9" r="6.6"/>
		</g>
		<path class="st10" d="M398,186.5c0,0,0.7-0.2,0.7-0.5c0-0.2,0-0.3-0.4-0.5c-0.7-0.3-2.6-0.1-2.6-0.1s-0.1-0.1,0.1-0.8
			c0.2-0.7,0.7-1.7-0.1-1.7c-0.8,0-1.8,2.1-2,2.3c-0.1,0.1-1.2,0.1-1.6,0.2c0,0.8,0,1.5,0,2.3c0,0.6,0,1.2,0,1.8c0.2,0,1.2,0,1.4,0
			c0.8-0.1,2.2,0.2,3,0.3c0.8,0.1,1.4-0.2,1.4-0.4c0.1-0.4-0.5-0.6-0.5-0.6s0.9-0.1,0.9-0.4c0-0.6-0.6-0.6-0.6-0.6s0.9-0.2,0.7-0.7
			C398.5,186.5,398,186.5,398,186.5z"/>
	</g>
	<g>
		<g>
			<circle class="st9" cx="418" cy="124.8" r="7.9"/>
		</g>
		<path class="st10" d="M421.4,124.3c0,0,0.8-0.3,0.9-0.6c0-0.3,0-0.4-0.4-0.6c-0.8-0.4-3.1-0.2-3.1-0.2s-0.1-0.1,0.1-0.9
			c0.2-0.8,0.8-2-0.1-2c-0.9,0-2.1,2.6-2.4,2.8c-0.1,0.1-1.5,0.2-1.9,0.2c0,0.9,0,1.8,0.1,2.7c0,0.7,0,1.4,0,2.1c0.2,0,1.5,0,1.7,0
			c1-0.1,2.7,0.2,3.6,0.3c0.9,0.1,1.7-0.2,1.7-0.4c0.1-0.5-0.6-0.7-0.6-0.7s1.1-0.1,1.1-0.5c0-0.7-0.7-0.7-0.7-0.7s1.1-0.2,0.9-0.8
			C422,124.3,421.4,124.3,421.4,124.3z"/>
	</g>
	<g>
		<polygon class="st11" points="282.3,249.9 282,244.9 307.7,244.6 316.7,190.9 390.7,190.4 379.8,250.2 		"/>
		
			<ellipse transform="matrix(0.2618 -0.9651 0.9651 0.2618 47.1531 500.8962)" class="st12" cx="351" cy="219.6" rx="6.8" ry="6.5"/>
	</g>
	<g>
		<g>
			<rect x="234.6" y="317.8" class="st13" width="6" height="38.7"/>
			<polygon class="st14" points="210.3,311.2 211.9,319.4 261.8,319.8 264.8,311.8 			"/>
			<circle class="st14" cx="201.6" cy="399.3" r="7.3"/>
			<circle class="st14" cx="225.5" cy="399.3" r="7.3"/>
			<circle class="st14" cx="249.4" cy="399.3" r="7.3"/>
			<circle class="st14" cx="273.3" cy="399.3" r="7.3"/>
			<path class="st15" d="M280.7,390.8c-1.6-3-16.2-7.6-26.6-11.2c-7.1-2.5-10-3-11.2-4.2v-25h-10.6v25c-1.5,1.3-4.5,2.2-10.3,4.2
				c-10.4,3.6-25,8.2-26.6,11.2c-1.6,3-0.6,5.3-0.6,5.3h35.5h15.6h35.5C281.3,396.1,282.3,393.8,280.7,390.8z"/>
			<path class="st16" d="M280.7,390.8c-1.6-3-16.2-7.6-26.6-11.2c-7.1-2.5-10-3-11.2-4.2v-25h-5.4l0.7,27.5c0,0,8.8,4.8,14.2,9.1
				c2.7,2.1,4.2,5.9,5.1,9.1h23.8C281.3,396.1,282.3,393.8,280.7,390.8z"/>
		</g>
		<g>
			<path class="st9" d="M232.6,179.2c0,0-0.6-14.8-2-18.6c-1.4-3.8-6.6-4-16.8-4.6c-10.2-0.6-33.2,0.4-39.5,0.8
				c-6.2,0.4-9.4-0.4-11,1.2c-1.6,1.6,7.6,88.5,8.4,100.3c0.8,11.8,6.2,37.2,16.8,42.7c10.6,5.4,56.1,4,57.9,5
				c1.8,1-0.8,7.2-0.8,7.2l42.3,0.4c0,0,5.8-17.2-0.8-20.2c-6.6-3-44.5-9.8-46.5-39.9C238.6,223.5,232.6,179.2,232.6,179.2z"/>
			<path class="st17" d="M173.9,180.8c0,0-1-18-4-21.2c-3-3.2-6.8-3-9-0.4c-2.2,2.6-0.2,25.2,0.4,35.2c0.6,10,7,71.5,8,79.1
				c1,7.6,3,26.4,11,32.8c8,6.4,20.2,7.8,31.4,7.6c11.2-0.2,31.6,0.3,35.6-1.1c5.1-1.8,4.2-7.8,1.9-9.4c-4.5-3.1-7.2-1.7-17.6-1.7
				s-33.8,1.6-42.3-5.6c-8.4-7.2-11.4-50.5-11.8-59.7C177.1,227.3,173.9,180.8,173.9,180.8z"/>
		</g>
	</g>
	<g>
		<path class="st18" d="M319.3,382.9c0,0-4,20.6,1.8,20.2c5.8-0.4,39.9-4.4,41.9-7.2c2-2.8-15.2-6.3-20-7.5
			c-4.8-1.2-8.8-5.1-9.6-6.7C332.5,380.1,319.3,382.9,319.3,382.9z"/>
		<path class="st18" d="M269,386.5c0,0-6.6,17-4.4,18.4c2.2,1.4,29.9,2,37.7,1.6c7.8-0.4,9.4-1.2,6.6-4.4
			c-2.8-3.2-26.3-10.8-27.3-12c-1-1.2-0.8-3.4-0.8-3.4L269,386.5z"/>
		<path class="st11" d="M254.8,266.2c0,0,1.3,2.4,6.9,2.4c5.6,0,60.3,1.6,66.8,7.2s6.4,47.5,6.7,61.9c0.3,14.4-0.3,45.7-0.3,45.7
			s-5.1,1.3-9.6,1.6c-4.5,0.3-7.2,0.8-7.2,0.8s-8-66.2-9.3-77.2c-1.3-10.9-39.3-15-52.6-16.6c-13.4-1.6-29.1-2.7-31.5-5.3
			c-2.4-2.7-5.3-18.4-5.3-18.4L254.8,266.2z"/>
		<path class="st14" d="M193.9,272.8c0,0-0.5,17.1,6.4,22.7c7.2,5.8,25.9,5.3,41.1,4.3c15.2-1.1,32.8-1.6,35.8,4.3s1.1,24-2.1,43.5
			c-3.2,19.5-7.5,41.1-7.5,41.1h15.5c0,0,16.8-51.3,21.9-69.7c5.1-18.4,9.6-33.6-0.3-39.3c-9.9-5.6-40.3-6.9-47-6.9
			c-6.7,0-12.8-1.6-13.1-4.8c-0.3-3.2-0.3-5.1-0.3-5.1l-49.1,5.1L193.9,272.8z"/>
		<path class="st19" d="M262.6,201.9c0,0,8.6,14.2,9.6,14c1-0.2,21.2-35.2,21-35.8c-0.2-0.6-4.8-13.6-3.4-15
			c1.4-1.4,6.6,6.8,6.6,6.8s7.6-8.6,12.8-11.6c5.2-3,7.2-2.6,7.4-1.6c0.1,0.6-6.8,5.5-9.2,8.6c-1.2,1.6-1.6,2.4-1.6,2.4
			s8.5-5.5,13.6-7c3.6-1.1,4.8,0.6,3.6,1.4c-1.2,0.8-7.1,3.7-10.5,6.1c-1.7,1.2-3.3,2.7-3.3,2.7s14-6.2,14.9-4.3
			c0.9,2.1-13.3,8.1-13.3,8.1s9.4-2.6,11.6-1c2.2,1.6-15.2,5.4-17.4,9c-2.2,3.6-10.5,29.9-21.3,45.2c-10.8,15.2-21.3,5.3-28.1-1.7
			c-5.6-5.8-11.4-17.8-11.4-17.8L262.6,201.9z"/>
		<path class="st20" d="M231,173.6c0,0,6.8-0.9,13,0.4c6.1,1.3,10,8.4,12.7,13.5c2.7,5.1,8,17,8,17s-4.7,2.7-8,5.1
			c-3.3,2.4-9.3,8.3-9.3,8.3s-8.9-21.9-12.1-29.4C232,181,231,173.6,231,173.6z"/>
		<path class="st20" d="M225,172.7c0,0,8,1.5,10.9,1.3c2.9-0.1,8.4,12.7,11.2,21.2c2.8,8.5,7.9,29.1,9.2,42.6
			c1.3,13.5,1.3,30,1.3,30s-32.4,0.4-46.3,2.8c-13.9,2.4-19,4.7-19,4.7s-1.3-24.7-1.2-48.1c0.1-23.4-1.1-48.2,2.1-49.8
			c3.2-1.6,11.3-4.5,14.3-5.5C210.6,171.1,225,172.7,225,172.7z"/>
		<path class="st19" d="M207.3,152.2c0,0,0.8,9.4-0.2,14c-1,4.6-3,7.8-3,7.8s7.6,8.4,16.6,9.4c7.9,0.9,9.8-2.1,10.4-4.5
			c0.6-2.4-1.3-4.9-1.3-4.9s-1.9,0-2-1c-0.1-0.6-2.1-10.1-0.9-13.9C228.2,155.4,207.3,152.2,207.3,152.2z"/>
		<path class="st4" d="M219.1,164.4c3,0.6,5.5,0.9,7.6,0.9c-0.2-2.3-0.2-4.7,0.2-6.1c1.2-3.8-19.6-7-19.6-7s0.2,2.9,0.3,6.2
			C209.6,160.5,213.2,163.1,219.1,164.4z"/>
		<path class="st19" d="M198.3,133c0,0,1.8,22.4,17,27.6c15.2,5.2,28.4-9.8,29.2-24.2c0.8-14.4-5.2-23.2-5.2-23.2s-27-5.2-29.8-4.2
			c-2.8,1-7.2,5.8-7.6,6.8C201.5,116.8,198.3,133,198.3,133z"/>
		<path class="st19" d="M200.5,137.8c0,0-2.6-6.4-6.8-4.6c-4.2,1.8-2,10.4,2.6,11.8c4.6,1.4,6.2-2.8,6.2-2.8L200.5,137.8z"/>
		<path class="st11" d="M199.2,137.7c0,0,5.1-7.5,6.7-14c1.6-6.5,2-12.3,2-12.3s4.3,5.4,18.8,8.1c14.5,2.7,21.4,0.1,24.8-2.3
			c3.5-2.4,5.8-5.6,5.9-6s-4.9,0.1-5.3-3.2c-0.4-3.3,0-6.5-3.2-6c-3.2,0.5-10.2,7.2-13.1,3.6c-2.9-3.6-5.6-9.2-13.7-7.4
			c-8.1,1.8-15.1,10-15.1,10s1.4-7.2,0.2-6.8c-1.2,0.4-2.4,6.9-2.4,6.9s-2.7-5.9-3.5-4.8c-0.8,1.1-0.3,3.6,0.7,5.1
			c0.9,1.5,2,2.7,2,2.7s-6-3.8-9.1-0.6c-3.1,3.2-1.7,11-0.8,15C195.6,132.7,199.2,137.7,199.2,137.7z"/>
		<path class="st21" d="M253.5,242.8c0,0,9.9-3.1,14.8-1.4c4.9,1.7,5.7,3.3,6.4,5.4c0.7,2.1,0.7,3.5,0.7,3.5l-23.2-0.5L253.5,242.8z
			"/>
		<path class="st19" d="M194.9,211.5c0,0-3.2,20.8,0.4,22c3.6,1.2,34.8,6.2,41.5,7.4c6.6,1.2,9.8,1.8,9.8,1.8s13.4-4.6,16.8-4.2
			c3.4,0.4,8.1,5,7.8,6c-0.5,1.7-7.6-3.4-10-3c-2.4,0.4-5.6,1.1-5.6,1.1s5,0.3,7.8,1.5c2.8,1.2,6.1,3.7,4.8,4.2
			c-1.3,0.5-7.3-1.8-9.1-2c-1.8-0.2-4.3-0.1-4.3-0.1s5,2.7,5.6,3.3s0.6,1.8,0.6,1.8s-75.3-1-79.7-1.8c-4.4-0.8-8.2-6.8-7-20.6
			c1.2-13.8,3.8-18.6,3.8-18.6L194.9,211.5z"/>
		<path class="st20" d="M196.4,176.3c0,0-10,2-14.4,6.7c-4.4,4.7-5.1,10.8-6,16.8c-0.9,6-1.7,18.7-1.7,18.7s8,1.7,13.6,2
			c5.6,0.3,11.9-0.1,11.9-0.1s4.5-11.9,4.4-19.8C204.1,192.7,204.6,183.1,196.4,176.3z"/>
		<path class="st22" d="M258.8,231.3c-0.9-4.6-2.7-12.8-4.1-17.9c-2-7.3-6-15.9-8.5-20.9c0.3,1,0.7,1.9,1,2.8
			c2.1,6.5,5.6,20,7.7,32.1c0.2,0.3,0.5,0.5,0.7,0.8C256.6,229.1,257.7,230.2,258.8,231.3z"/>
		<g>
			<path class="st23" d="M225.6,128c-0.6,1.6-0.7,3.1-0.4,4.8c0.3,1.6,1,3.2,1.9,4.6c0.5,0.7,1,1.3,1.6,1.8c0.5,0.5,2.4,1.7,0.9,2.1
				c-1.1,0.3-2.4,0.2-3.6,0.2c-0.5,0-1-0.1-1.6-0.1c-0.5-0.1-0.9-0.2-1.4,0c-0.1,0.1-0.2,0.3-0.1,0.4c0.4,0.4,0.8,0.4,1.3,0.4
				c0.6,0.1,1.2,0.1,1.8,0.1c1.2,0,2.4,0,3.6-0.3c0.8-0.1,1.4-0.6,1.3-1.5c-0.1-0.9-1-1.4-1.7-1.9c-3.1-2.6-4-6.8-3.6-10.6
				C225.9,127.8,225.6,127.8,225.6,128L225.6,128z"/>
		</g>
		<path class="st11" d="M218.2,131.9c-1-1.8-3.4-1.6-4,0.4c-0.3,1-0.3,2.4,0.1,3.3c0.5,1,1.4,1.4,2.3,1.1c1-0.3,1.9-1.4,2-2.6
			C218.7,133.3,218.6,132.5,218.2,131.9z"/>
		<g>
			<path class="st11" d="M233.1,145c0,0-12.2-1.5-15-0.1c-2.8,1.4-2.6,5.3,0.8,7.5c3.8,2.5,8.4,2.3,8.4,2.3s0.7-3.1,2.3-5.5
				C231.2,146.7,233.1,145,233.1,145z"/>
			<path class="st10" d="M221,145.7c1.9,0.9,4.2,0.9,6.3,0.8c0.9,0,1.7-0.1,2.6-0.3c0.5-0.1,0.9-0.2,1.2-0.5
				c0.3-0.2,0.6-0.6,0.8-0.9c-2.6-0.3-8.7-0.8-12.1-0.4C219.9,145,220.4,145.4,221,145.7z"/>
			<path class="st24" d="M222.5,153.2c-0.3-0.9-0.8-1.9-1.5-2.6c-1.3-1.4-3.1-1.8-4.8-2.5c0,1.5,0.9,3.1,2.7,4.3
				c1.3,0.8,2.7,1.4,3.9,1.7c0,0,0,0,0,0C222.7,153.8,222.6,153.5,222.5,153.2z"/>
		</g>
		<g>
			<g>
				<path class="st11" d="M218.9,126.3c-0.8-0.6-1.6-1.1-2.6-1.2c-1-0.1-2,0.1-2.9,0.5c-0.7,0.3-1.4,0.9-1.9,1.5
					c-0.3,0.4-0.5,0.8-0.7,1.3c0,0.1-0.1,0.3-0.1,0.4c0,0.1,0,0.5,0,0.3c0,0.2,0,0.4,0,0.6c0.1,0.5,0.7,0.6,1,0.3
					c0.1-0.1,0.2-0.2,0.3-0.3c0,0,0,0,0,0c0.1,0,0.1-0.1,0.2-0.1c0.1,0,0.1-0.1,0.1-0.1c0.2-0.2-0.2,0.1,0.1-0.1
					c0.1-0.1,0.2-0.1,0.2-0.2c0.1-0.1,0.2-0.2,0.3-0.3c0.1-0.1,0.2-0.2,0.3-0.3c0,0,0.2-0.2,0.1-0.1c-0.1,0.1,0.1,0,0.1-0.1
					c0.3-0.2,0.6-0.4,0.8-0.5c0.1,0,0.1-0.1,0.2-0.1c-0.2,0.1,0,0,0.1,0c0.2-0.1,0.3-0.1,0.5-0.1c0.2,0,0.3-0.1,0.5-0.1
					c0.2,0-0.3,0,0.1,0c0.1,0,0.2,0,0.2,0c0.7,0,1.4-0.1,2.1,0.1C218.8,127.5,219.4,126.7,218.9,126.3L218.9,126.3z"/>
			</g>
		</g>
		<g>
			<path class="st11" d="M235.5,132.4c-1-1.8-3.4-1.6-4,0.4c-0.3,1-0.3,2.4,0.1,3.3c0.5,1,1.4,1.4,2.3,1.1c1-0.3,1.9-1.4,2-2.6
				C235.9,133.9,235.8,133.1,235.5,132.4z"/>
			<g>
				<path class="st11" d="M231,128.7c0.9-0.7,2-0.9,3-0.8c0.5,0,1,0.2,1.5,0.4c0.2,0.1,0.4,0.2,0.6,0.3c0.1,0.1,0.3,0.1,0.4,0.2
					c0.2,0.1,0.3,0.2,0.6,0.2c0.3,0,0.6-0.2,0.6-0.6c0-0.4-0.3-0.8-0.6-1c-0.3-0.2-0.6-0.4-0.9-0.6c-0.7-0.3-1.4-0.4-2.2-0.5
					c-1.4,0-2.9,0.6-3.9,1.6c-0.2,0.2-0.2,0.7,0,0.9C230.4,128.9,230.8,128.9,231,128.7L231,128.7z"/>
			</g>
			<g>
				<path class="st11" d="M231.1,127.9C231.1,127.8,231.1,127.8,231.1,127.9c0,0-0.1,0-0.2,0c0.3,0,0.5,0,0.7-0.1
					c0.2-0.1,0.5-0.2,0.7-0.4c0.4-0.2,0.9-0.3,1.3-0.4c1,0,1.7,0.4,2.4,1c0.2,0.2,0.4,0.4,0.7,0.4c0.3,0.1,0.6-0.1,0.7-0.4
					c0.1-0.6-0.4-1.3-0.8-1.6c-0.9-0.7-2-1.1-3.1-1c-0.7,0.1-1.3,0.3-1.8,0.6c-0.5,0.3-1.2,1-1,1.6c0-0.1,0-0.2,0-0.3
					c0,0,0,0.1,0,0.1C230.4,127.8,230.8,128.1,231.1,127.9L231.1,127.9z"/>
			</g>
		</g>
	</g>
	<g>
		<g>
			<g>
				
					<rect x="376.7" y="255.9" transform="matrix(-1 -1.224647e-16 1.224647e-16 -1 762.7598 662.5466)" class="st22" width="9.3" height="150.7"/>
				<g>
					
						<rect x="369.7" y="255.9" transform="matrix(-1 -1.224647e-16 1.224647e-16 -1 748.7546 662.5466)" class="st7" width="9.3" height="150.7"/>
					<polygon class="st4" points="369.7,265.6 369.7,255.9 372.7,255.9 376.7,255.9 379,255.9 379,255.9 386,255.9 386,265.6 					
						"/>
				</g>
			</g>
			<g>
				
					<rect x="417.1" y="255.9" transform="matrix(-1 -1.224647e-16 1.224647e-16 -1 843.4568 662.5466)" class="st25" width="9.3" height="150.7"/>
				<g>
					
						<rect x="410.1" y="255.9" transform="matrix(-1 -1.224647e-16 1.224647e-16 -1 829.4516 662.5466)" class="st23" width="9.3" height="150.7"/>
					<polygon class="st4" points="410.1,265.6 410.1,255.9 413.1,255.9 417.1,255.9 419.4,255.9 419.4,255.9 426.4,255.9 
						426.4,265.6 					"/>
				</g>
			</g>
		</g>
		<g>
			<g>
				
					<rect x="78.6" y="255.9" transform="matrix(-1 -1.224647e-16 1.224647e-16 -1 166.536 662.5466)" class="st22" width="9.3" height="150.7"/>
				<g>
					
						<rect x="71.6" y="255.9" transform="matrix(-1 -1.224647e-16 1.224647e-16 -1 152.5308 662.5466)" class="st7" width="9.3" height="150.7"/>
					<polygon class="st4" points="71.6,265.6 71.6,255.9 74.6,255.9 78.6,255.9 80.9,255.9 80.9,255.9 87.9,255.9 87.9,265.6 					
						"/>
				</g>
			</g>
			<g>
				
					<rect x="118.9" y="255.9" transform="matrix(-1 -1.224647e-16 1.224647e-16 -1 247.233 662.5466)" class="st25" width="9.3" height="150.7"/>
				<g>
					
						<rect x="111.9" y="255.9" transform="matrix(-1 -1.224647e-16 1.224647e-16 -1 233.2277 662.5466)" class="st23" width="9.3" height="150.7"/>
					<polygon class="st4" points="111.9,265.6 111.9,255.9 114.9,255.9 118.9,255.9 121.3,255.9 121.3,255.9 128.3,255.9 
						128.3,265.6 					"/>
				</g>
			</g>
		</g>
		<g>
			
				<rect x="118.1" y="248.1" transform="matrix(-1 -1.224647e-16 1.224647e-16 -1 564.352 509.1557)" class="st10" width="328.1" height="13"/>
			
				<rect x="54.1" y="248.1" transform="matrix(-1 -1.224647e-16 1.224647e-16 -1 173.7054 509.1557)" class="st25" width="65.5" height="13"/>
		</g>
	</g>
	<g>
		<g>
			<path class="st11" d="M165.9,90.2c0-4.6,1.1-9.1,2.1-13.6c0.6-2.7,2-7.5-1.7-8.7c-3.4-1-6.4,2.3-7.8,5c-2,3.6-2.6,7.6-3.8,11.5
				c-1.3,4.3-3.3,8.1-6.5,11.3c-3.4,3.4-8.1,5.7-11.5,9c-3,2.9-5.2,6.6-8,9.7c-3.2,3.5-7.3,5.6-11.8,7.2c-4.8,1.7-9.6,3.1-14.4,4.7
				c-5,1.6-10.4,3.2-15.6,4.2c-4.6,0.9-9.3,1.5-13.8,3c-3.6,1.2-6.9,3.1-9,6.4c-4.6,7.1-3.1,17.3,0,24.7c1.7,4.3,4.5,8,6.4,12.1
				c2.1,4.7,2.5,9.9,2.4,15c-0.1,5.2-0.9,10.3-2.2,15.4c-0.6,2.5-1.2,5.1-1.5,7.7c-0.3,2-0.4,4.1-0.1,6.2c0.3,2.2,1.3,4.1,2.6,5.9
				c1.2,1.8,2.6,3.4,3.6,5.3c1.2,2.1,2.1,4.5,2.6,6.9c0.5,2.3,0.6,4.6,0.4,6.9c0,0.7,1,0.7,1,0c0.3-4.3-0.5-8.5-2.2-12.4
				c-0.9-2-2.1-3.8-3.4-5.5c-1.2-1.7-2.5-3.4-3.2-5.4c-1.2-3.8-0.3-8.2,0.6-12c0.7-3.1,1.6-6.2,2.1-9.4c1.5-9,1.7-18.8-2.8-27
				c-2.2-4.1-4.8-7.9-6.3-12.4c-1.4-4.2-2.1-8.7-1.7-13.1c0.4-4.2,1.9-8.4,5.2-11.1c3.3-2.7,7.6-3.6,11.6-4.4
				c9.9-2,19.9-4.6,29.5-7.7c4.4-1.4,8.9-2.6,13.1-4.6c3.8-1.8,6.8-4.4,9.4-7.7c2.7-3.4,5.1-7.8,8.8-10.2c3.6-2.3,7.2-4.3,10.1-7.6
				c2.6-3,4.4-6.4,5.5-10.2c1.2-3.9,1.8-8.1,3.8-11.7c1-1.8,2.3-3.5,4.3-4.3c2.4-1,4.5,0.2,4.6,2.9c0,2-0.6,4-1,5.9
				c-0.4,2-0.9,4-1.1,6c-0.3,2.2-0.3,4.4-0.2,6.6C165.7,90.3,165.9,90.3,165.9,90.2L165.9,90.2z"/>
		</g>
		<path class="st14" d="M165.3,95.5c0,0-1.4-9.1-0.7-9.4c0.7-0.3,2.4-0.6,2.6-0.2c0.2,0.4,0.5,9.7,0.5,9.7L165.3,95.5z"/>
		<path class="st11" d="M163.4,114c0,0-0.1-19.3,1-19.5c1.1-0.1,3.3-0.2,3.9,0.2c0.6,0.4,3.1,19.3,3.1,19.3L163.4,114z"/>
		<g>
			<line class="st26" x1="147.7" y1="103.5" x2="161.5" y2="102.5"/>
			<line class="st26" x1="147.9" y1="105.9" x2="161.7" y2="104.9"/>
		</g>
		<line class="st27" x1="59.1" y1="141.9" x2="77.5" y2="245.4"/>
		<line class="st27" x1="61.3" y1="141.7" x2="79.7" y2="245.2"/>
		<rect x="78.2" y="248" class="st28" width="3" height="13.7"/>
		<rect x="76.3" y="248" class="st29" width="3" height="13.7"/>
		<rect x="73.9" y="244.5" class="st14" width="9.6" height="3.6"/>
		<rect x="73.9" y="261" class="st14" width="9.6" height="3.6"/>
		<line class="st27" x1="61.3" y1="136.9" x2="145.2" y2="104"/>
		<line class="st26" x1="62.5" y1="138.9" x2="146.5" y2="106.4"/>
		<path class="st14" d="M57.9,136l-1.8,4.7c-0.4,0.9,0.1,2,1,2.4l6.1,2.9c0.9,0.4,2,0.1,2.5-0.8l2.2-3.9c0.5-0.9,0.2-2.1-0.8-2.6
			l-6.6-3.6C59.7,134.4,58.4,134.9,57.9,136z"/>
		<path class="st14" d="M142.6,103.8l1.6,4.9c0.2,0.5,0.7,0.8,1.2,0.6l3.9-1.4c0.5-0.2,0.8-0.7,0.6-1.2l-1.5-4.5
			c-0.2-0.5-0.7-0.8-1.1-0.6l-4.1,1C142.7,102.7,142.4,103.3,142.6,103.8z"/>
		<g>
			<path class="st14" d="M160.4,100.4l1.1,8.7c0.1,0.5,0.5,0.9,1,0.8l10.1-0.5c0.5,0,0.9-0.5,0.9-1l-0.4-8.9c0-0.5-0.5-1-1-0.9
				l-10.8,0.6C160.7,99.3,160.3,99.8,160.4,100.4z"/>
			<g>
				<path class="st30" d="M163.8,108.8c-0.2-1.2-0.3-2.4-0.4-3.6c-0.2-2-0.4-4-0.7-6l-0.6,0c0.1,2,0.3,4.1,0.6,6.1
					c0.1,1.2,0.3,2.4,0.5,3.6c0,0.3,0.1,0.6,0.1,0.9l0.7,0C163.9,109.5,163.9,109.1,163.8,108.8z"/>
				<path class="st30" d="M166.4,104.9c-0.1-2-0.3-3.9-0.5-5.9l-0.6,0c0.2,2,0.4,3.9,0.6,5.9c0.1,1.6,0.2,3.2,0.3,4.8l0.5,0
					C166.6,108.1,166.5,106.5,166.4,104.9z"/>
				<path class="st30" d="M169.3,104.8c-0.1-2-0.3-4-0.6-5.9l-0.6,0c0.2,2,0.4,3.9,0.6,5.9c0.1,1.3,0.2,2.6,0.3,3.9
					c0,0.3,0,0.6,0,0.9l0.5,0C169.5,108,169.4,106.4,169.3,104.8z"/>
				<path class="st30" d="M172.1,109.5c0-0.2,0-0.4,0-0.6c-0.1-1.3-0.1-2.7-0.2-4c-0.1-2.1-0.2-4.1-0.3-6.2l-0.3,0
					c0.1,2.1,0.2,4.1,0.3,6.2c0.1,1.3,0.1,2.7,0.2,4c0,0.2,0,0.4,0,0.6L172.1,109.5z"/>
			</g>
		</g>
		<path class="st16" d="M173.1,111.7c0,0,1.4-0.3,2,1.8c0.6,2.1,4.4,17.8-3.9,20.9c-8.3,3.1-11-3.6-11.9-11.5
			c-0.5-4.1,0.2-7,0.4-8.7c0.3-2,1.5-1.9,2.2-2C165.2,111.8,173.1,111.7,173.1,111.7z"/>
		<g>
			<path class="st11" d="M162,121.8c0.1,0,0.3,0,0.4-0.1c0.1,0,0.2-0.1,0.3-0.2c0.1-0.1,0.2-0.2,0.2-0.3c0.1-0.1,0.1-0.2,0.1-0.4
				c0-0.1,0-0.2,0-0.2c-0.1-0.2-0.1-0.3-0.3-0.4c-0.1,0-0.1-0.1-0.2-0.1c-0.2-0.1-0.3-0.1-0.5-0.1c-0.1,0-0.3,0-0.4,0.1
				c-0.1,0-0.2,0.1-0.3,0.2c-0.1,0.1-0.2,0.2-0.2,0.3c-0.1,0.1-0.1,0.2-0.1,0.4c0,0.1,0,0.2,0,0.2c0.1,0.2,0.1,0.3,0.3,0.4
				c0.1,0,0.1,0.1,0.2,0.1C161.7,121.8,161.8,121.8,162,121.8L162,121.8z"/>
		</g>
		<g>
			<path class="st11" d="M161.9,125.8C161.9,125.8,161.9,125.9,161.9,125.8C161.9,125.9,161.9,125.9,161.9,125.8
				C161.9,125.9,161.9,125.9,161.9,125.8c0,0.1,0,0.1,0.1,0.1c0,0,0,0.1,0,0.1c0.1,0.1,0.1,0.2,0.2,0.2c0.1,0.1,0.2,0.1,0.3,0.1
				c0.1,0,0.2,0,0.3-0.1c0.1-0.1,0.2-0.1,0.2-0.2c0-0.1,0.1-0.1,0.1-0.2c0,0,0,0,0,0c0,0,0,0,0,0c0-0.1,0-0.2,0-0.4
				c0-0.1-0.1-0.2-0.2-0.3c0,0-0.1-0.1-0.1-0.1c-0.1-0.1-0.2-0.1-0.3-0.1c-0.1,0-0.2,0-0.3,0.1c-0.1,0-0.2,0.1-0.2,0.1
				c-0.1,0.1-0.1,0.2-0.2,0.3C161.8,125.6,161.8,125.7,161.9,125.8L161.9,125.8z"/>
		</g>
		<g>
			<path class="st11" d="M165.3,132.2c0.1,0,0.2,0,0.3-0.1c0.1,0,0.2-0.1,0.3-0.2c0.1-0.1,0.1-0.2,0.2-0.3c0.1-0.1,0.1-0.2,0.1-0.3
				c0-0.1,0-0.2,0-0.2c0-0.1-0.1-0.3-0.2-0.4c-0.1,0-0.1-0.1-0.2-0.1c-0.1-0.1-0.3-0.1-0.5-0.1c-0.1,0-0.2,0-0.3,0.1
				c-0.1,0-0.2,0.1-0.3,0.2c-0.1,0.1-0.1,0.2-0.2,0.3c-0.1,0.1-0.1,0.2-0.1,0.3c0,0.1,0,0.2,0,0.2c0,0.1,0.1,0.3,0.2,0.4
				c0.1,0,0.1,0.1,0.2,0.1C165,132.2,165.1,132.2,165.3,132.2L165.3,132.2z"/>
		</g>
		<g>
			<path class="st11" d="M167.4,127.3c1.1,0,1.1-1.8-0.1-1.8C166.2,125.6,166.3,127.3,167.4,127.3L167.4,127.3z"/>
		</g>
	</g>
	<g>
		<circle class="st20" cx="432.5" cy="193.6" r="7.6"/>
		<path class="st10" d="M436.8,190c-0.7-0.8-1.9-0.5-2.7,0.1c-0.7,0.6-1.3,1.5-1.5,2.4c-0.3-0.7-0.7-1.3-1.3-1.7
			c-0.7-0.5-1.6-0.6-2.4-0.3c-0.8,0.3-1.4,1.1-1.4,2c0,1.1,0.8,2,1.5,2.7c0.5,0.5,1,1,1.6,1.4c0.5,0.4,1.8,1.4,1.9,1.3
			c1-0.8,1.9-1.6,2.8-2.4c0.8-0.8,1.5-1.7,1.8-2.7C437.4,191.9,437.4,190.8,436.8,190z"/>
	</g>
	<g>
		<g>
			<circle class="st9" cx="414.8" cy="215.1" r="6.6"/>
		</g>
		<path class="st10" d="M417.6,214.7c0,0,0.7-0.2,0.7-0.5c0-0.2,0-0.3-0.4-0.5c-0.7-0.3-2.6-0.1-2.6-0.1s-0.1-0.1,0.1-0.8
			c0.2-0.7,0.7-1.7-0.1-1.7c-0.8,0-1.8,2.1-2,2.3c-0.1,0.1-1.2,0.1-1.6,0.2c0,0.8,0,1.5,0,2.3c0,0.6,0,1.2,0,1.8c0.2,0,1.2,0,1.4,0
			c0.8-0.1,2.2,0.2,3,0.3c0.8,0.1,1.4-0.2,1.4-0.4c0.1-0.4-0.5-0.6-0.5-0.6s0.9-0.1,0.9-0.4c0-0.6-0.6-0.6-0.6-0.6s0.9-0.2,0.7-0.7
			C418.2,214.7,417.6,214.7,417.6,214.7z"/>
	</g>
	<g>
		<circle class="st20" cx="409.3" cy="160.7" r="8"/>
		<path class="st10" d="M413.8,156.9c-0.8-0.9-2-0.6-2.8,0.1c-0.7,0.7-1.3,1.5-1.6,2.5c-0.3-0.7-0.7-1.4-1.3-1.8
			c-0.7-0.6-1.7-0.7-2.6-0.3c-0.8,0.3-1.5,1.1-1.4,2.1c0,1.1,0.8,2.1,1.6,2.9c0.5,0.5,1.1,1,1.6,1.5c0.5,0.4,1.9,1.5,2,1.4
			c1-0.8,2-1.6,2.9-2.6c0.8-0.8,1.5-1.8,1.9-2.8C414.5,158.9,414.5,157.7,413.8,156.9z"/>
	</g>
	<g>
		<circle class="st20" cx="439" cy="142" r="9.2"/>
		<path class="st10" d="M444.1,137.7c-0.9-1-2.3-0.6-3.2,0.2c-0.9,0.8-1.5,1.8-1.8,2.9c-0.3-0.8-0.9-1.6-1.6-2.1
			c-0.8-0.6-2-0.8-3-0.4c-1,0.4-1.7,1.3-1.7,2.4c0,1.3,1,2.4,1.8,3.3c0.6,0.6,1.2,1.2,1.9,1.7c0.6,0.5,2.2,1.7,2.3,1.6
			c1.2-0.9,2.3-1.9,3.3-3c0.9-0.9,1.8-2,2.2-3.3C444.9,140,444.9,138.6,444.1,137.7z"/>
	</g>
	<g>
		<circle class="st20" cx="394.1" cy="221.7" r="5.2"/>
		<path class="st10" d="M397,219.3c-0.5-0.6-1.3-0.4-1.8,0.1c-0.5,0.4-0.9,1-1,1.6c-0.2-0.5-0.5-0.9-0.9-1.2
			c-0.5-0.4-1.1-0.4-1.7-0.2c-0.6,0.2-1,0.7-0.9,1.3c0,0.7,0.5,1.4,1,1.9c0.3,0.3,0.7,0.7,1.1,1c0.3,0.3,1.2,0.9,1.3,0.9
			c0.7-0.5,1.3-1.1,1.9-1.7c0.5-0.5,1-1.1,1.3-1.8C397.5,220.5,397.5,219.8,397,219.3z"/>
	</g>
	<g>
		<circle class="st20" cx="461.9" cy="158.6" r="4.4"/>
		<path class="st10" d="M464.3,156.6c-0.4-0.5-1.1-0.3-1.5,0.1c-0.4,0.4-0.7,0.8-0.9,1.4c-0.2-0.4-0.4-0.7-0.7-1
			c-0.4-0.3-0.9-0.4-1.4-0.2c-0.5,0.2-0.8,0.6-0.8,1.1c0,0.6,0.5,1.1,0.9,1.6c0.3,0.3,0.6,0.6,0.9,0.8c0.3,0.2,1,0.8,1.1,0.7
			c0.5-0.4,1.1-0.9,1.6-1.4c0.4-0.4,0.8-1,1.1-1.6C464.7,157.7,464.7,157,464.3,156.6z"/>
	</g>
	<g>
		<circle class="st20" cx="425.1" cy="106.6" r="5.2"/>
		<path class="st10" d="M428,104.2c-0.5-0.6-1.3-0.4-1.8,0.1c-0.5,0.4-0.9,1-1,1.6c-0.2-0.5-0.5-0.9-0.9-1.2
			c-0.5-0.4-1.1-0.4-1.7-0.2c-0.6,0.2-1,0.7-0.9,1.3c0,0.7,0.5,1.4,1,1.9c0.3,0.3,0.7,0.7,1.1,1c0.3,0.3,1.2,0.9,1.3,0.9
			c0.7-0.5,1.3-1.1,1.9-1.7c0.5-0.5,1-1.1,1.3-1.8C428.4,105.4,428.4,104.7,428,104.2z"/>
	</g>
	<g>
		<circle class="st20" cx="446.5" cy="84.6" r="7.4"/>
		<path class="st10" d="M450.7,81.1c-0.7-0.8-1.9-0.5-2.6,0.1c-0.7,0.6-1.2,1.4-1.5,2.3c-0.3-0.7-0.7-1.3-1.3-1.7
			c-0.7-0.5-1.6-0.6-2.4-0.3c-0.8,0.3-1.4,1-1.3,1.9c0,1,0.8,1.9,1.5,2.6c0.5,0.5,1,1,1.5,1.4c0.5,0.4,1.7,1.4,1.9,1.3
			c0.9-0.7,1.9-1.5,2.7-2.4c0.7-0.8,1.4-1.6,1.8-2.6C451.3,83,451.3,81.8,450.7,81.1z"/>
	</g>
	<g>
		<ellipse class="st4" cx="153.3" cy="465.3" rx="79.3" ry="13.9"/>
		<g>
			<g>
				<line class="st31" x1="153.7" y1="294.4" x2="157.1" y2="473.2"/>
				<rect x="151.4" y="241.5" class="st13" width="4.5" height="69.8"/>
				<path class="st12" d="M160.8,245.3h-14.2c-1.1,0-1.9-0.9-1.9-1.9l-1-8.2h20l-1,8.2C162.7,244.5,161.8,245.3,160.8,245.3z"/>
				<path class="st11" d="M171.8,236.6h-36.3c-1.1,0-1.9-0.9-1.9-1.9v-6.3h40.2v6.3C173.8,235.8,172.9,236.6,171.8,236.6z"/>
				<g>
					<g>
						<path class="st11" d="M154.7,164.3c0,0,9.2-0.4,11.5,0.7c2.3,1.1,8.8,14.6,8.8,14.6l-15.8,1.9L154.7,164.3z"/>
						<path class="st11" d="M187.2,177.9c0,0,9.6-1.2,12.8,1.1c3.2,2.3,2.7,25.9,3,33.8c0.3,7.9,0.1,14.1-3.3,16.3
							c-3.3,2.1-13.1,1.3-13.1,1.3L187.2,177.9z"/>
						<path class="st12" d="M142.2,177.8c-0.6,0-21.2,0.2-21.2,0.2s-3.6-0.2-4.2,3.6s-0.2,44.3-0.2,44.3s-1,3.8,4.2,4.4
							c5.2,0.6,69.1,0.2,69.1,0.2s4.2,0.6,5.2-3.4c1-4,1-40.9,0-45.1c-1-4.2-2.6-4.4-8.8-4.2c-6.2,0.2-20.2,0-20.2,0l-3.2-10.4
							c0,0-0.4-2.6-3.4-3c-3-0.4-11.2,0.2-11.2,0.2s-2,0.2-3.4,4.2S142.2,177.8,142.2,177.8z"/>
					</g>
					<path class="st3" d="M146.3,177.6l14.6-0.1c0,0-1.7-9.2-4.2-9.7c-2.2-0.4-6.2-0.4-6.9,0.7C148.9,169.9,146.3,177.6,146.3,177.6
						z"/>
					<path class="st11" d="M150.8,169.1c0.7-1.1,4.6-1.1,6.8-0.7c-0.3-0.3-0.6-0.5-0.9-0.6c-2.2-0.4-6.2-0.4-6.9,0.7
						c-0.9,1.4-3.4,9.1-3.4,9.1l1.2,0C148.1,175.8,150,170.3,150.8,169.1z"/>
					<circle class="st11" cx="185.8" cy="191.6" r="4.1"/>
					<circle class="st11" cx="185.8" cy="202.3" r="2.9"/>
					<circle class="st11" cx="186.4" cy="215.8" r="5.4"/>
				</g>
				<rect x="148.4" y="256.5" class="st23" width="10.6" height="37"/>
				<g>
					<line class="st31" x1="148.4" y1="295.8" x2="89.2" y2="468"/>
					<line class="st31" x1="158.9" y1="295.8" x2="218.1" y2="468"/>
				</g>
				<path class="st12" d="M162.5,297.2h-17.6c-1.5,0-2.8-1.3-2.8-2.8l0,0c0-1.5,1.3-2.8,2.8-2.8h17.6c1.5,0,2.8,1.3,2.8,2.8l0,0
					C165.3,295.9,164,297.2,162.5,297.2z"/>
			</g>
			<g>
				<defs>
					<rect id="SVGID_1_" x="122.9" y="183.9" width="54.1" height="39.3"/>
				</defs>
				<clipPath id="SVGID_2_">
					<use xlink:href="#SVGID_1_"  style="overflow:visible;"/>
				</clipPath>
				<g class="st32">
					<path class="st33" d="M104.7,257.5l92.7,0c0,0,20.2-83.1-48.8-81.7C79.5,177.2,104.7,257.5,104.7,257.5z"/>
					<g>
						<ellipse class="st3" cx="149.3" cy="257.9" rx="51.5" ry="2.5"/>
						<ellipse class="st4" cx="149.3" cy="257.9" rx="51.5" ry="2.5"/>
					</g>
					<g>
						<polygon class="st11" points="156.8,221.1 156.7,219.9 162.7,219.8 164.8,207.4 182,207.2 179.4,221.1 						"/>
						
							<ellipse transform="matrix(0.2618 -0.9651 0.9651 0.2618 -79.0514 324.7296)" class="st12" cx="172.8" cy="214" rx="1.6" ry="1.5"/>
					</g>
					<g>
						<g>
							<rect x="145.7" y="236.9" class="st13" width="1.4" height="9"/>
							<polygon class="st14" points="140,235.3 140.4,237.2 152,237.3 152.7,235.5 							"/>
							<circle class="st14" cx="138" cy="255.8" r="1.7"/>
							<circle class="st14" cx="143.6" cy="255.8" r="1.7"/>
							<circle class="st14" cx="149.1" cy="255.8" r="1.7"/>
							<circle class="st14" cx="154.7" cy="255.8" r="1.7"/>
							<path class="st15" d="M156.4,253.8c-0.4-0.7-3.8-1.8-6.2-2.6c-1.7-0.6-2.3-0.7-2.6-1v-5.8h-2.5v5.8c-0.4,0.3-1.1,0.5-2.4,1
								c-2.4,0.8-5.8,1.9-6.2,2.6c-0.4,0.7-0.1,1.2-0.1,1.2h8.3h3.6h8.3C156.5,255.1,156.8,254.5,156.4,253.8z"/>
							<path class="st16" d="M156.4,253.8c-0.4-0.7-3.8-1.8-6.2-2.6c-1.7-0.6-2.3-0.7-2.6-1v-5.8h-1.3l0.2,6.4c0,0,2,1.1,3.3,2.1
								c0.6,0.5,1,1.4,1.2,2.1h5.5C156.5,255.1,156.8,254.5,156.4,253.8z"/>
						</g>
						<g>
							<path class="st9" d="M145.2,204.6c0,0-0.1-3.4-0.5-4.3c-0.3-0.9-1.5-0.9-3.9-1.1c-2.4-0.1-7.7,0.1-9.2,0.2s-2.2-0.1-2.6,0.3
								c-0.4,0.4,1.8,20.6,2,23.3c0.2,2.7,1.4,8.7,3.9,9.9c2.5,1.3,13,0.9,13.5,1.2c0.4,0.2-0.2,1.7-0.2,1.7l9.8,0.1
								c0,0,1.4-4-0.2-4.7c-1.5-0.7-10.3-2.3-10.8-9.3C146.6,214.9,145.2,204.6,145.2,204.6z"/>
							<path class="st17" d="M131.6,205c0,0-0.2-4.2-0.9-4.9c-0.7-0.7-1.6-0.7-2.1-0.1c-0.5,0.6,0,5.9,0.1,8.2
								c0.1,2.3,1.6,16.6,1.9,18.4c0.2,1.8,0.7,6.1,2.6,7.6c1.9,1.5,4.7,1.8,7.3,1.8c2.6,0,7.3,0.1,8.3-0.3c1.2-0.4,1-1.8,0.4-2.2
								c-1-0.7-1.7-0.4-4.1-0.4c-2.4,0-7.9,0.4-9.8-1.3c-2-1.7-2.7-11.7-2.7-13.9C132.3,215.8,131.6,205,131.6,205z"/>
						</g>
					</g>
					<g>
						<path class="st18" d="M165.4,252c0,0-0.9,4.8,0.4,4.7c1.4-0.1,9.3-1,9.7-1.7c0.5-0.7-3.5-1.5-4.7-1.7c-1.1-0.3-2-1.2-2.2-1.6
							C168.4,251.4,165.4,252,165.4,252z"/>
						<path class="st18" d="M153.7,252.8c0,0-1.5,4-1,4.3c0.5,0.3,7,0.5,8.8,0.4c1.8-0.1,2.2-0.3,1.5-1c-0.7-0.7-6.1-2.5-6.3-2.8
							c-0.2-0.3-0.2-0.8-0.2-0.8L153.7,252.8z"/>
						<path class="st11" d="M150.4,224.9c0,0,0.3,0.6,1.6,0.6c1.3,0,14,0.4,15.5,1.7c1.5,1.3,1.5,11,1.6,14.4
							c0.1,3.4-0.1,10.6-0.1,10.6s-1.2,0.3-2.2,0.4c-1.1,0.1-1.7,0.2-1.7,0.2s-1.9-15.4-2.2-17.9c-0.3-2.5-9.1-3.5-12.2-3.8
							c-3.1-0.4-6.8-0.6-7.3-1.2c-0.6-0.6-1.2-4.3-1.2-4.3L150.4,224.9z"/>
						<path class="st14" d="M136.2,226.4c0,0-0.1,4,1.5,5.3c1.7,1.4,6,1.2,9.6,1c3.5-0.2,7.6-0.4,8.3,1c0.7,1.4,0.2,5.6-0.5,10.1
							c-0.7,4.5-1.7,9.6-1.7,9.6h3.6c0,0,3.9-11.9,5.1-16.2c1.2-4.3,2.2-7.8-0.1-9.1c-2.3-1.3-9.4-1.6-10.9-1.6c-1.6,0-3-0.4-3-1.1
							c-0.1-0.7-0.1-1.2-0.1-1.2l-11.4,1.2L136.2,226.4z"/>
						<path class="st19" d="M152.2,209.9c0,0,2,3.3,2.2,3.3c0.2,0,4.9-8.2,4.9-8.3c0-0.1-1.1-3.2-0.8-3.5c0.3-0.3,1.5,1.6,1.5,1.6
							s1.8-2,3-2.7c1.2-0.7,1.7-0.6,1.7-0.4c0,0.1-1.6,1.3-2.1,2c-0.3,0.4-0.4,0.6-0.4,0.6s2-1.3,3.2-1.6c0.8-0.3,1.1,0.1,0.8,0.3
							c-0.3,0.2-1.7,0.9-2.5,1.4c-0.4,0.3-0.8,0.6-0.8,0.6s3.3-1.4,3.5-1c0.2,0.5-3.1,1.9-3.1,1.9s2.2-0.6,2.7-0.2
							c0.5,0.4-3.5,1.3-4.1,2.1c-0.5,0.8-2.4,7-5,10.5c-2.5,3.5-5,1.2-6.5-0.4c-1.3-1.3-2.7-4.1-2.7-4.1L152.2,209.9z"/>
						<path class="st20" d="M144.9,203.4c0,0,1.6-0.2,3,0.1c1.4,0.3,2.3,2,2.9,3.1c0.6,1.2,1.9,3.9,1.9,3.9s-1.1,0.6-1.9,1.2
							s-2.2,1.9-2.2,1.9s-2.1-5.1-2.8-6.8C145.1,205.1,144.9,203.4,144.9,203.4z"/>
						<path class="st20" d="M143.5,203.1c0,0,1.9,0.3,2.5,0.3c0.7,0,2,2.9,2.6,4.9c0.7,2,1.8,6.8,2.1,9.9c0.3,3.1,0.3,7,0.3,7
							s-7.5,0.1-10.8,0.7c-3.2,0.6-4.4,1.1-4.4,1.1s-0.3-5.7-0.3-11.2c0-5.4-0.2-11.2,0.5-11.6c0.7-0.4,2.6-1.1,3.3-1.3
							C140.1,202.8,143.5,203.1,143.5,203.1z"/>
						<path class="st19" d="M139.3,198.4c0,0,0.2,2.2,0,3.3c-0.2,1.1-0.7,1.8-0.7,1.8s1.8,2,3.9,2.2c1.8,0.2,2.3-0.5,2.4-1
							c0.1-0.6-0.3-1.1-0.3-1.1s-0.4,0-0.5-0.2c0-0.1-0.5-2.4-0.2-3.2C144.2,199.1,139.3,198.4,139.3,198.4z"/>
						<path class="st4" d="M142.1,201.2c0.7,0.1,1.3,0.2,1.8,0.2c0-0.5-0.1-1.1,0.1-1.4c0.3-0.9-4.6-1.6-4.6-1.6s0.1,0.7,0.1,1.4
							C139.9,200.3,140.7,200.9,142.1,201.2z"/>
						<path class="st19" d="M137.3,193.9c0,0,0.4,5.2,4,6.4c3.5,1.2,6.6-2.3,6.8-5.6c0.2-3.4-1.2-5.4-1.2-5.4s-6.3-1.2-6.9-1
							c-0.7,0.2-1.7,1.4-1.8,1.6S137.3,193.9,137.3,193.9z"/>
						<path class="st19" d="M137.8,195c0,0-0.6-1.5-1.6-1.1c-1,0.4-0.5,2.4,0.6,2.7c1.1,0.3,1.4-0.7,1.4-0.7L137.8,195z"/>
						<path class="st11" d="M137.5,195c0,0,1.2-1.7,1.6-3.3c0.4-1.5,0.5-2.9,0.5-2.9s1,1.2,4.4,1.9c3.4,0.6,5,0,5.8-0.5
							c0.8-0.6,1.3-1.3,1.4-1.4c0-0.1-1.1,0-1.2-0.7c-0.1-0.8,0-1.5-0.7-1.4c-0.7,0.1-2.4,1.7-3,0.8c-0.7-0.8-1.3-2.1-3.2-1.7
							c-1.9,0.4-3.5,2.3-3.5,2.3s0.3-1.7,0-1.6s-0.6,1.6-0.6,1.6s-0.6-1.4-0.8-1.1c-0.2,0.2-0.1,0.8,0.2,1.2
							c0.2,0.3,0.5,0.6,0.5,0.6s-1.4-0.9-2.1-0.1c-0.7,0.7-0.4,2.6-0.2,3.5C136.6,193.8,137.5,195,137.5,195z"/>
						<path class="st21" d="M150.1,219.4c0,0,2.3-0.7,3.4-0.3c1.1,0.4,1.3,0.8,1.5,1.3c0.2,0.5,0.2,0.8,0.2,0.8l-5.4-0.1
							L150.1,219.4z"/>
						<path class="st19" d="M136.5,212.2c0,0-0.7,4.8,0.1,5.1c0.8,0.3,8.1,1.4,9.6,1.7c1.5,0.3,2.3,0.4,2.3,0.4s3.1-1.1,3.9-1
							c0.8,0.1,1.9,1.2,1.8,1.4c-0.1,0.4-1.8-0.8-2.3-0.7c-0.6,0.1-1.3,0.2-1.3,0.2s1.2,0.1,1.8,0.4c0.7,0.3,1.4,0.9,1.1,1
							c-0.3,0.1-1.7-0.4-2.1-0.5c-0.4,0-1,0-1,0s1.2,0.6,1.3,0.8c0.1,0.1,0.1,0.4,0.1,0.4s-17.5-0.2-18.5-0.4
							c-1-0.2-1.9-1.6-1.6-4.8c0.3-3.2,0.9-4.3,0.9-4.3L136.5,212.2z"/>
						<path class="st20" d="M136.8,204c0,0-2.3,0.5-3.4,1.6c-1,1.1-1.2,2.5-1.4,3.9c-0.2,1.4-0.4,4.3-0.4,4.3s1.9,0.4,3.2,0.5
							c1.3,0.1,2.8,0,2.8,0s1.1-2.8,1-4.6C138.6,207.8,138.7,205.6,136.8,204z"/>
						<path class="st22" d="M151.3,216.8c-0.2-1.1-0.6-3-1-4.2c-0.5-1.7-1.4-3.7-2-4.9c0.1,0.2,0.2,0.4,0.2,0.6
							c0.5,1.5,1.3,4.7,1.8,7.5c0.1,0.1,0.1,0.1,0.2,0.2C150.8,216.3,151.1,216.5,151.3,216.8z"/>
						<g>
							<path class="st23" d="M143.6,192.7c-0.1,0.4-0.2,0.7-0.1,1.1c0.1,0.4,0.2,0.8,0.5,1.1c0.1,0.2,0.2,0.3,0.4,0.4
								c0.1,0.1,0.6,0.4,0.2,0.5c-0.3,0.1-0.6,0.1-0.8,0c-0.1,0-0.2,0-0.4,0c-0.1,0-0.2,0-0.3,0c0,0,0,0.1,0,0.1
								c0.1,0.1,0.2,0.1,0.3,0.1c0.1,0,0.3,0,0.4,0c0.3,0,0.6,0,0.8-0.1c0.2,0,0.3-0.1,0.3-0.3c0-0.2-0.2-0.3-0.4-0.5
								C143.8,194.6,143.6,193.6,143.6,192.7C143.7,192.7,143.6,192.7,143.6,192.7L143.6,192.7z"/>
						</g>
						<path class="st11" d="M141.9,193.6c-0.2-0.4-0.8-0.4-0.9,0.1c-0.1,0.2-0.1,0.6,0,0.8c0.1,0.2,0.3,0.3,0.5,0.3
							c0.2-0.1,0.4-0.3,0.5-0.6C142,194,142,193.8,141.9,193.6z"/>
						<g>
							<path class="st11" d="M145.3,196.7c0,0-2.8-0.3-3.5,0c-0.7,0.3-0.6,1.2,0.2,1.7c0.9,0.6,2,0.5,2,0.5s0.2-0.7,0.5-1.3
								C144.9,197.1,145.3,196.7,145.3,196.7z"/>
							<path class="st10" d="M142.5,196.9c0.4,0.2,1,0.2,1.5,0.2c0.2,0,0.4,0,0.6-0.1c0.1,0,0.2-0.1,0.3-0.1
								c0.1-0.1,0.1-0.1,0.2-0.2c-0.6-0.1-2-0.2-2.8-0.1C142.3,196.7,142.4,196.8,142.5,196.9z"/>
							<path class="st24" d="M142.9,198.6c-0.1-0.2-0.2-0.4-0.3-0.6c-0.3-0.3-0.7-0.4-1.1-0.6c0,0.3,0.2,0.7,0.6,1
								c0.3,0.2,0.6,0.3,0.9,0.4c0,0,0,0,0,0C142.9,198.7,142.9,198.7,142.9,198.6z"/>
						</g>
						<g>
							<g>
								<path class="st11" d="M142,192.3c-0.2-0.1-0.4-0.3-0.6-0.3c-0.2,0-0.5,0-0.7,0.1c-0.2,0.1-0.3,0.2-0.4,0.4
									c-0.1,0.1-0.1,0.2-0.2,0.3c0,0,0,0.1,0,0.1c0,0,0,0.1,0,0.1c0,0.1,0,0.1,0,0.2c0,0.1,0.2,0.1,0.2,0.1c0,0,0,0,0.1-0.1
									c0,0,0,0,0,0c0,0,0,0,0,0c0,0,0,0,0,0c0-0.1,0,0,0,0c0,0,0,0,0.1-0.1c0,0,0.1-0.1,0.1-0.1c0,0,0.1-0.1,0.1-0.1
									c0,0,0.1,0,0,0c0,0,0,0,0,0c0.1,0,0.1-0.1,0.2-0.1c0,0,0,0,0,0c0,0,0,0,0,0c0,0,0.1,0,0.1,0c0,0,0.1,0,0.1,0c0,0-0.1,0,0,0
									c0,0,0,0,0.1,0c0.2,0,0.3,0,0.5,0C142,192.6,142.2,192.4,142,192.3L142,192.3z"/>
							</g>
						</g>
						<g>
							<path class="st11" d="M145.9,193.8c-0.2-0.4-0.8-0.4-0.9,0.1c-0.1,0.2-0.1,0.6,0,0.8c0.1,0.2,0.3,0.3,0.5,0.3
								c0.2-0.1,0.4-0.3,0.5-0.6C146,194.1,146,193.9,145.9,193.8z"/>
							<g>
								<path class="st11" d="M144.9,192.9c0.2-0.2,0.5-0.2,0.7-0.2c0.1,0,0.2,0,0.4,0.1c0.1,0,0.1,0,0.2,0.1c0,0,0.1,0,0.1,0
									c0,0,0.1,0,0.1,0c0.1,0,0.1-0.1,0.1-0.1c0-0.1-0.1-0.2-0.1-0.2c-0.1-0.1-0.1-0.1-0.2-0.1c-0.2-0.1-0.3-0.1-0.5-0.1
									c-0.3,0-0.7,0.1-0.9,0.4c-0.1,0.1-0.1,0.2,0,0.2C144.7,193,144.8,192.9,144.9,192.9L144.9,192.9z"/>
							</g>
							<g>
								<path class="st11" d="M144.9,192.7C144.9,192.7,144.9,192.7,144.9,192.7C144.9,192.7,144.8,192.7,144.9,192.7c0,0,0,0,0.1,0
									c0.1,0,0.1-0.1,0.2-0.1c0.1,0,0.2-0.1,0.3-0.1c0.2,0,0.4,0.1,0.6,0.2c0,0,0.1,0.1,0.2,0.1c0.1,0,0.1,0,0.2-0.1
									c0-0.1-0.1-0.3-0.2-0.4c-0.2-0.2-0.5-0.3-0.7-0.2c-0.2,0-0.3,0.1-0.4,0.1c-0.1,0.1-0.3,0.2-0.2,0.4c0,0,0,0,0-0.1
									c0,0,0,0,0,0C144.7,192.7,144.8,192.8,144.9,192.7L144.9,192.7z"/>
							</g>
						</g>
					</g>
					<g>
						<g>
							<g>
								
									<rect x="178.7" y="222.5" transform="matrix(-1 -1.224647e-16 1.224647e-16 -1 359.6231 479.9969)" class="st22" width="2.2" height="35"/>
								<g>
									
										<rect x="177.1" y="222.5" transform="matrix(-1 -1.224647e-16 1.224647e-16 -1 356.3671 479.9969)" class="st7" width="2.2" height="35"/>
									<polygon class="st4" points="177.1,224.7 177.1,222.5 177.8,222.5 178.7,222.5 179.3,222.5 179.3,222.5 180.9,222.5 
										180.9,224.7 									"/>
								</g>
							</g>
							<g>
								
									<rect x="188.1" y="222.5" transform="matrix(-1 -1.224647e-16 1.224647e-16 -1 378.3843 479.9969)" class="st25" width="2.2" height="35"/>
								<g>
									
										<rect x="186.5" y="222.5" transform="matrix(-1 -1.224647e-16 1.224647e-16 -1 375.1283 479.9969)" class="st23" width="2.2" height="35"/>
									<polygon class="st4" points="186.5,224.7 186.5,222.5 187.2,222.5 188.1,222.5 188.6,222.5 188.6,222.5 190.3,222.5 
										190.3,224.7 									"/>
								</g>
							</g>
						</g>
						<g>
							<g>
								
									<rect x="109.4" y="222.5" transform="matrix(-1 -1.224647e-16 1.224647e-16 -1 221.0077 479.9969)" class="st22" width="2.2" height="35"/>
								<g>
									
										<rect x="107.8" y="222.5" transform="matrix(-1 -1.224647e-16 1.224647e-16 -1 217.7517 479.9969)" class="st7" width="2.2" height="35"/>
									<polygon class="st4" points="107.8,224.7 107.8,222.5 108.5,222.5 109.4,222.5 110,222.5 110,222.5 111.6,222.5 
										111.6,224.7 									"/>
								</g>
							</g>
							<g>
								
									<rect x="118.8" y="222.5" transform="matrix(-1 -1.224647e-16 1.224647e-16 -1 239.7689 479.9969)" class="st25" width="2.2" height="35"/>
								<g>
									
										<rect x="117.2" y="222.5" transform="matrix(-1 -1.224647e-16 1.224647e-16 -1 236.5127 479.9969)" class="st23" width="2.2" height="35"/>
									<polygon class="st4" points="117.2,224.7 117.2,222.5 117.9,222.5 118.8,222.5 119.3,222.5 119.3,222.5 121,222.5 
										121,224.7 									"/>
								</g>
							</g>
						</g>
						<g>
							
								<rect x="118.6" y="220.7" transform="matrix(-1 -1.224647e-16 1.224647e-16 -1 313.4955 444.3351)" class="st10" width="76.3" height="3"/>
							
								<rect x="103.7" y="220.7" transform="matrix(-1 -1.224647e-16 1.224647e-16 -1 222.6745 444.3351)" class="st25" width="15.2" height="3"/>
						</g>
					</g>
					<g>
						<g>
							<path class="st11" d="M130.4,185.6c0-1.1,0.3-2.1,0.6-3.1c0.2-0.6,0.5-1.7-0.3-2c-0.8-0.3-1.5,0.5-1.9,1.1
								c-0.5,0.8-0.7,1.8-1,2.6c-0.3,1-0.8,1.9-1.6,2.6c-0.8,0.8-1.9,1.1-2.7,1.8c-0.8,0.6-1.4,1.4-2.1,2c-0.8,0.7-1.8,1.1-2.9,1.3
								c-1.1,0.3-2.3,0.5-3.5,0.7c-1.2,0.2-2.4,0.5-3.6,0.7c-1.1,0.2-2.2,0.4-3.2,0.7c-0.8,0.3-1.6,0.7-2.1,1.5
								c-1.1,1.7-0.7,4,0,5.7c0.4,1,1.1,1.9,1.5,2.8c0.5,1.1,0.6,2.3,0.6,3.5c0,1.2-0.2,2.4-0.5,3.6c-0.1,0.6-0.3,1.2-0.4,1.8
								c-0.1,0.5-0.1,1,0,1.4c0.1,0.5,0.3,1,0.6,1.4c0.3,0.4,0.6,0.8,0.8,1.2c0.3,0.5,0.5,1,0.6,1.6c0.1,0.5,0.1,1.1,0.1,1.6
								c0,0.2,0.2,0.2,0.2,0c0.1-1-0.1-2-0.5-2.9c-0.2-0.5-0.5-0.9-0.8-1.3c-0.3-0.4-0.6-0.8-0.7-1.3c-0.3-0.9-0.1-1.9,0.1-2.8
								c0.2-0.7,0.4-1.4,0.5-2.2c0.3-2.1,0.4-4.4-0.7-6.3c-0.5-1-1.1-1.8-1.5-2.9c-0.3-1-0.5-2-0.4-3.1c0.1-1,0.4-1.9,1.2-2.6
								c0.8-0.6,1.8-0.8,2.7-1c2.3-0.5,4.6-0.9,6.9-1.3c1.1-0.2,2.1-0.4,3.1-0.7c0.9-0.3,1.7-0.8,2.4-1.5c0.7-0.7,1.4-1.5,2.3-2
								c0.9-0.5,1.7-0.9,2.4-1.7c0.6-0.7,1.1-1.5,1.4-2.3c0.3-0.9,0.5-1.9,1-2.7c0.2-0.4,0.6-0.8,1-1c0.6-0.2,1.1,0.1,1,0.7
								c0,0.5-0.2,0.9-0.3,1.4c-0.1,0.5-0.2,0.9-0.3,1.4C130.3,184.6,130.3,185.1,130.4,185.6C130.3,185.6,130.4,185.6,130.4,185.6
								L130.4,185.6z"/>
						</g>
						<path class="st14" d="M130.2,186.8c0,0-0.3-2.1-0.1-2.2c0.2-0.1,0.6-0.1,0.6,0c0,0.1,0,2.3,0,2.3L130.2,186.8z"/>
						<path class="st11" d="M129.6,191.1c0,0,0.1-4.5,0.4-4.5c0.3,0,0.8,0,0.9,0.1c0.1,0.1,0.6,4.5,0.6,4.5L129.6,191.1z"/>
						<g>
							<line class="st34" x1="126" y1="188.6" x2="129.2" y2="188.4"/>
							<line class="st34" x1="126" y1="189.1" x2="129.2" y2="189"/>
						</g>
						<line class="st35" x1="104.9" y1="196" x2="109.2" y2="220"/>
						<line class="st35" x1="105.4" y1="195.9" x2="109.7" y2="220"/>
						<rect x="109.3" y="220.6" class="st28" width="0.7" height="3.2"/>
						<rect x="108.9" y="220.6" class="st29" width="0.7" height="3.2"/>
						<rect x="108.3" y="219.8" class="st14" width="2.2" height="0.8"/>
						<rect x="108.3" y="223.7" class="st14" width="2.2" height="0.8"/>
						<line class="st35" x1="105.4" y1="194.8" x2="125.4" y2="188.7"/>
						<line class="st34" x1="105.7" y1="195.3" x2="125.7" y2="189.2"/>
						<path class="st14" d="M104.6,194.6l-0.4,1.1c-0.1,0.2,0,0.5,0.2,0.6l1.4,0.7c0.2,0.1,0.5,0,0.6-0.2l0.5-0.9
							c0.1-0.2,0-0.5-0.2-0.6l-1.5-0.8C105,194.2,104.7,194.3,104.6,194.6z"/>
						<path class="st14" d="M124.8,188.6l0.3,1.2c0,0.1,0.2,0.2,0.3,0.2l0.9-0.3c0.1,0,0.2-0.2,0.1-0.3l-0.3-1.1
							c0-0.1-0.1-0.2-0.3-0.2l-1,0.2C124.9,188.3,124.8,188.5,124.8,188.6z"/>
						<g>
							<path class="st14" d="M129,187.9l0.2,2c0,0.1,0.1,0.2,0.2,0.2l2.4,0c0.1,0,0.2-0.1,0.2-0.2l0-2.1c0-0.1-0.1-0.2-0.2-0.2
								l-2.5,0.1C129.1,187.7,129,187.8,129,187.9z"/>
							<g>
								<path class="st30" d="M129.7,189.9c0-0.3-0.1-0.6-0.1-0.8c0-0.5-0.1-0.9-0.1-1.4l-0.1,0c0,0.5,0,0.9,0.1,1.4
									c0,0.3,0,0.6,0.1,0.8c0,0.1,0,0.1,0,0.2l0.2,0C129.7,190.1,129.7,190,129.7,189.9z"/>
								<path class="st30" d="M130.3,189c0-0.5,0-0.9-0.1-1.4l-0.1,0c0,0.5,0.1,0.9,0.1,1.4c0,0.4,0,0.7,0,1.1l0.1,0
									C130.4,189.8,130.3,189.4,130.3,189z"/>
								<path class="st30" d="M131,189c0-0.5,0-0.9-0.1-1.4l-0.1,0c0,0.5,0.1,0.9,0.1,1.4c0,0.3,0,0.6,0,0.9c0,0.1,0,0.1,0,0.2
									l0.1,0C131,189.8,131,189.4,131,189z"/>
								<path class="st30" d="M131.6,190.2c0,0,0-0.1,0-0.1c0-0.3,0-0.6,0-0.9c0-0.5,0-1,0-1.4l-0.1,0c0,0.5,0,1,0,1.4
									c0,0.3,0,0.6,0,0.9c0,0,0,0.1,0,0.1L131.6,190.2z"/>
							</g>
						</g>
						<path class="st16" d="M131.8,190.7c0,0,0.3,0,0.4,0.4c0.1,0.5,0.9,4.2-1.1,4.8c-2,0.7-2.5-0.9-2.7-2.8c-0.1-1,0.1-1.6,0.2-2
							c0.1-0.5,0.4-0.4,0.5-0.4C130,190.6,131.8,190.7,131.8,190.7z"/>
						<g>
							<path class="st11" d="M129.2,192.9C129.2,192.9,129.2,192.9,129.2,192.9c0.1,0,0.1,0,0.2-0.1c0,0,0,0,0-0.1c0,0,0-0.1,0-0.1
								c0,0,0,0,0-0.1c0,0,0-0.1-0.1-0.1c0,0,0,0,0,0c0,0-0.1,0-0.1,0c0,0-0.1,0-0.1,0c0,0-0.1,0-0.1,0c0,0,0,0,0,0.1
								c0,0,0,0.1,0,0.1c0,0,0,0,0,0.1c0,0,0,0.1,0.1,0.1c0,0,0,0,0,0C129.1,192.9,129.1,192.9,129.2,192.9L129.2,192.9z"/>
						</g>
						<g>
							<path class="st11" d="M129.1,193.9C129.1,193.9,129.1,193.9,129.1,193.9C129.1,193.9,129.1,193.9,129.1,193.9
								C129.1,193.9,129.1,193.9,129.1,193.9C129.1,193.9,129.1,193.9,129.1,193.9C129.1,193.9,129.1,193.9,129.1,193.9
								c0,0.1,0.1,0.1,0.1,0.1c0,0,0,0,0.1,0c0,0,0.1,0,0.1,0c0,0,0,0,0.1-0.1c0,0,0,0,0,0c0,0,0,0,0,0c0,0,0,0,0,0c0,0,0-0.1,0-0.1
								c0,0,0,0,0-0.1c0,0,0,0,0,0c0,0-0.1,0-0.1,0c0,0,0,0-0.1,0c0,0,0,0,0,0C129.1,193.7,129.1,193.8,129.1,193.9
								C129.1,193.8,129.1,193.8,129.1,193.9L129.1,193.9z"/>
						</g>
						<g>
							<path class="st11" d="M129.8,195.4C129.9,195.4,129.9,195.4,129.8,195.4c0.1,0,0.1,0,0.1-0.1c0,0,0,0,0-0.1c0,0,0-0.1,0-0.1
								c0,0,0,0,0-0.1c0,0,0-0.1-0.1-0.1c0,0,0,0,0,0c0,0-0.1,0-0.1,0c0,0-0.1,0-0.1,0c0,0,0,0-0.1,0c0,0,0,0,0,0.1c0,0,0,0.1,0,0.1
								c0,0,0,0,0,0.1c0,0,0,0.1,0.1,0.1c0,0,0,0,0,0C129.8,195.4,129.8,195.4,129.8,195.4L129.8,195.4z"/>
						</g>
						<g>
							<path class="st11" d="M130.4,194.3c0.3,0,0.3-0.4,0-0.4C130.1,193.8,130.1,194.3,130.4,194.3L130.4,194.3z"/>
						</g>
					</g>
				</g>
			</g>
			<polygon class="st13" points="123.7,184.8 177,184.8 177,183.9 122.9,183.9 122.9,223.2 123.7,223.2 			"/>
			<g>
				<circle class="st10" cx="159.8" cy="188.5" r="1.3"/>
				<path class="st10" d="M172.2,190h-7.8c-0.9,0-1.6-0.7-1.6-1.6v0c0-0.9,0.7-1.6,1.6-1.6h7.8c0.9,0,1.6,0.7,1.6,1.6v0
					C173.8,189.3,173.1,190,172.2,190z"/>
			</g>
		</g>
	</g>
</g>
</svg>
