<?xml version="1.0" encoding="utf-8"?>
<!-- Generator: Adobe Illustrator 21.0.2, SVG Export Plug-In . SVG Version: 6.00 Build 0)  -->
<svg version="1.1" xmlns="http://www.w3.org/2000/svg" xmlns:xlink="http://www.w3.org/1999/xlink" x="0px" y="0px"
	 viewBox="0 0 750 500" style="enable-background:new 0 0 750 500;" xml:space="preserve">
<style type="text/css">
	.st0{display:none;fill:#FFFFFF;}
	.st1{fill:#D1F4F5;}
	.st2{fill:#9EE6E0;}
	.st3{fill:#422C4F;}
	.st4{fill:#99A3B0;}
	.st5{fill:#797C99;}
	.st6{fill:#495375;}
	.st7{fill:#EBA58E;}
	.st8{fill:#DE7274;}
	.st9{fill:#FFFFFF;}
	.st10{fill:#5088BA;}
	.st11{fill:#6CA7D3;}
	.st12{fill:#BD6C67;}
	.st13{fill:#8C404C;}
	.st14{fill:#457BA3;}
	.st15{fill:#A64F5A;}
	.st16{fill:#DF8D6D;}
	.st17{fill:#FBEED1;}
	.st18{fill:#F7DD8C;}
	.st19{fill:#537496;}
	.st20{fill:#ECA85E;}
	.st21{fill:#F4D071;}
	.st22{fill:#6081A8;}
	.st23{fill:#F2C9AD;}
	.st24{fill:#6A3649;}
	.st25{fill:#454F6B;}
	.st26{fill:#984058;}
	.st27{fill:#472948;}
	.st28{fill:#6CA8BC;}
	.st29{fill:#468097;}
	.st30{fill:#E68799;}
	.st31{fill:#E36B85;}
	.st32{fill:#EBA25D;}
	.st33{fill:none;stroke:#422C4F;stroke-width:0.5;stroke-linecap:round;stroke-linejoin:round;stroke-miterlimit:10;}
	.st34{fill:#4893D8;}
	.st35{fill:#377FB5;}
</style>
<g id="BACKGROUND">
	<rect class="st0" width="750" height="500"/>
	<path class="st1" d="M720.6,284.2c0-99-80.2-179.2-179.2-179.2c-3.7,0-7.3,0.1-10.9,0.3C491.2,58.3,432,28.3,365.8,28.3
		c-101.1,0-185.9,69.9-208.6,164C97.4,209,53.5,263.9,53.5,329c0,39,15.7,74.3,41.2,100h552.4C691.7,396.3,720.6,343.7,720.6,284.2z
		"/>
</g>
<g id="OBJECT">
	<g>
		<g>
			<path class="st2" d="M712,444.8L712,444.8c0-1.7-1.4-3.2-3.2-3.2h-22c-1.7,0-3.2-1.4-3.2-3.2l0,0c0-1.7-1.4-3.2-3.2-3.2h-5.9
				c-1.7,0-3.2-1.4-3.2-3.2l0,0c0-1.7-1.4-3.2-3.2-3.2H81.7c-1.7,0-3.2,1.4-3.2,3.2l0,0c0,1.7-1.4,3.2-3.2,3.2h-5.9
				c-1.7,0-3.2,1.4-3.2,3.2l0,0c0,1.7-1.4,3.2-3.2,3.2h-22c-1.7,0-3.2,1.4-3.2,3.2l0,0c0,1.7,1.4,3.2,3.2,3.2h200
				c1.7,0,3.2,1.4,3.2,3.2l0,0c0,1.7-1.4,3.2-3.2,3.2H129.6c-1.7,0-3.2,1.4-3.2,3.2l0,0c0,1.7,1.4,3.2,3.2,3.2h545.5
				c1.7,0,3.2-1.4,3.2-3.2l0,0c0-1.7-1.4-3.2-3.2-3.2H567.7c-1.7,0-3.2-1.4-3.2-3.2l0,0c0-1.7,1.4-3.2,3.2-3.2h141.2
				C710.6,448,712,446.6,712,444.8z"/>
			<path class="st2" d="M108.7,460.7H83.1c-1.7,0-3.2-1.4-3.2-3.2l0,0c0-1.7,1.4-3.2,3.2-3.2h25.7c1.7,0,3.2,1.4,3.2,3.2l0,0
				C111.9,459.2,110.5,460.7,108.7,460.7z"/>
		</g>
		<g>
			<g>
				<g>
					<g>
						<polygon class="st3" points="442.9,340.8 438,340.8 436.7,352.6 441.9,349.7 						"/>
						<polygon class="st4" points="436.7,352.6 428.3,427.4 433.2,427.4 441.9,349.7 						"/>
					</g>
					<g>
						<polygon class="st4" points="479.6,351.3 471.1,427.4 476,427.4 484.8,348.4 						"/>
						<polygon class="st3" points="485.7,340.8 480.7,340.8 479.6,351.3 484.8,348.4 						"/>
					</g>
					<g>
						<polygon class="st3" points="504.2,340.8 499.2,340.8 500.4,351.5 505.1,349 						"/>
						<polygon class="st4" points="513.8,427.4 505.1,349 500.4,351.5 508.9,427.4 						"/>
					</g>
					<g>
						<polygon class="st3" points="546.9,340.8 542,340.8 543.1,350.8 547.8,348.3 						"/>
						<polygon class="st4" points="556.6,427.4 547.8,348.3 543.1,350.8 551.7,427.4 						"/>
					</g>
				</g>
				<g>
					<path class="st5" d="M434.5,340.8L434.5,340.8c4.5-9.7,14.1-15.9,24.8-15.9h32.5l17.6-114.5l24.7-20h15.7
						c19.6,0,34.6,17.5,31.6,36.9l-14.8,96.6c-1.5,9.8-9.9,17-19.8,17H434.5z"/>
					<path class="st6" d="M418.8,340.8L418.8,340.8c4.5-9.7,14.1-15.9,24.8-15.9h32.5l15-97.6c3.3-21.2,21.5-36.9,43-36.9h0
						c19.6,0,34.6,17.5,31.6,36.9L552.6,313c-1,6.8-6.9,11.9-13.8,11.9h-20.5c-10.6,0-20.3,6.2-24.8,15.9l0,0H418.8z"/>
				</g>
			</g>
			<g>
				<g>
					<g>
						<path class="st7" d="M465.5,190.5c4.8,2.4,10.7,2.3,15.4-0.1c3.7-1.9,6.6-5.2,8.1-9h-3.9c-2.2,0-4-1.8-4-4V164l-17.3,4.5v9.7
							c0,2.2-1.8,4-4,4h-2.4C459.1,185.7,462,188.7,465.5,190.5z"/>
						<path class="st3" d="M481.2,164c-2.9,10.4-8.9,14.8-17.3,11.8v-7.3L481.2,164z"/>
					</g>
					<g>
						<path class="st3" d="M447.9,149c-6.8-5.1-4.5-15.5-3.5-17c-2.4-1.5-4.8-3.4-6.2-5.9c-1.4-2.4-2-5.5-1-8.2
							c1-2.7,3.6-4.8,6.4-4.7c3.3,0.1,5.9,2.8,9,3.8c3.2,1.1,6.6,0.5,9.9-0.4c3.2-0.8,6.5-1.9,9.8-1.7c2.8,0.2,5.6,1.4,7.7,3.3
							c2.1,1.9,3.5,4.5,4,7.3c2.7-1.3,6.5-0.3,8.1,2.2c1.6,2.4,1.4,5.5,1,8.4c-0.7,5.2-3.5,17.6-4.7,22.7l-9.3,2.3L447.9,149z"/>
						<g>
							<path class="st7" d="M485.5,151.7c0.9-1.4,2.2-2.6,3.8-3.1c1.6-0.5,3.5-0.1,4.6,1.2c0.9,1.1,1.1,2.6,0.9,4
								c-0.3,1.4-0.9,2.6-1.7,3.8c-0.7,1.1-1.5,2.1-2.4,2.9c-1,0.8-2.2,1.4-3.5,1.4c-1.3,0.1-2.6-0.5-3.3-1.5
								c-0.8-1.2-0.6-2.8-0.2-4.1C484.1,154.7,484.7,153.1,485.5,151.7z"/>
							<path class="st8" d="M487.1,159.9c-0.6,0-1.2-0.3-1.5-0.7c-0.1-0.2-0.4-0.8,0.1-2.4c0.4-1.4,0.9-2.9,1.6-4.1
								c0.7-1.1,1.7-1.9,2.7-2.2c0.2-0.1,0.5-0.1,0.8-0.1c0.7,0,1.4,0.3,1.7,0.7c0.4,0.5,0.6,1.4,0.4,2.3c-0.2,1.1-0.9,2.2-1.4,3.1
								c-0.7,1.1-1.4,1.9-2,2.5C488.7,159.5,487.9,159.9,487.1,159.9L487.1,159.9z"/>
						</g>
						<path class="st7" d="M482.4,147.8c0,0-8-3.3-6.9-12.7c-8.4,2.7-17.6,2.5-25.9-0.6c-1.8,3-2.9,6.5-2.9,10.2v9.3
							c0,10.7,8.7,19.4,19.4,19.4h0c8.9,0,16.3-6,18.7-14.1c-0.5-0.6-1-1.1-1.4-1.8C481.6,154.8,481.2,150.9,482.4,147.8z"/>
						<g>
							<path class="st3" d="M451.2,143.3c-1.7,0.4-3.1,1.9-3.8,3.8l8.5-2.1C454.7,143.5,453,142.8,451.2,143.3z"/>
						</g>
						<ellipse class="st3" cx="452.1" cy="150.1" rx="1.3" ry="1.7"/>
						<g>
							<path class="st3" d="M469.6,144.2c2.3,0.4,4.1,1.9,5.1,3.8l-11.2-2.1C465.1,144.5,467.4,143.7,469.6,144.2z"/>
						</g>
						<circle class="st3" cx="468.6" cy="151" r="1.7"/>
						<g>
							<path class="st3" d="M460.8,160.7C460.8,160.7,460.8,160.7,460.8,160.7c-0.9-0.1-1.8-0.2-2.7-0.3c-0.9-0.1-1.8-0.6-2.3-1.4
								c-0.5-0.8-0.7-1.7-0.5-2.6c0.7-2.9,1.7-5.7,2.8-8.5c0.1-0.1,0.2-0.2,0.3-0.1c0.1,0.1,0.2,0.2,0.1,0.3
								c-1.2,2.7-2.1,5.5-2.8,8.4c-0.2,0.7,0,1.5,0.4,2.2c0.4,0.7,1.2,1.1,1.9,1.2c0.9,0.1,1.8,0.2,2.7,0.3c0.1,0,0.2,0.1,0.2,0.3
								C461.1,160.6,460.9,160.7,460.8,160.7z"/>
						</g>
						<path class="st9" d="M468.6,161.7c-4.1,0.5-8.3,1-12.4,1.5c1.5,2,4,3.3,6.5,3.1C465.2,166,467.4,163.9,468.6,161.7z"/>
					</g>
				</g>
				<g>
					<g>
						<path class="st10" d="M483.3,281.8h-36.5l-56.4,15.4c-13.2,3.6-20.4,17.9-15.3,30.6L400,391l24.5-9.6L415,329h21.8l46.5-30.3
							V281.8z"/>
						<polygon class="st11" points="427.1,380.3 397.4,392 400.6,402.7 430.4,391 						"/>
						<g>
							<path class="st12" d="M398.5,428.9c-0.5,1.3-0.7,2.8-0.7,4.3h40.4l-1.3-4.3H398.5z"/>
							<path class="st13" d="M425.8,392.8l-19.6,7.7l4.9,12.9c0.9,2.4-0.2,5.1-2.5,6.3l-3.2,1.6c-3.3,1.6-5.7,4.4-6.8,7.7h38.3
								L425.8,392.8z"/>
						</g>
						<path class="st14" d="M423.4,319.5l1.9,9.5h11.6l46.5-30.3v-9.8l-45.9,9.5C427.8,300.4,421.5,309.8,423.4,319.5z"/>
					</g>
					<g>
						<path class="st10" d="M500.8,281.8l-47.6,12.8c-13.4,3.6-22.2,16.5-20.6,30.3l6.9,59.1H468l2.3-58.8H491c20.4,0,37-16.6,37-37
							v-16L500.8,281.8z"/>
						<rect x="436.8" y="384" class="st11" width="33.5" height="10.2"/>
						<g>
							<path class="st15" d="M465.8,394.2h-24.2v17c0,5.3-2.9,10.2-7.6,12.8c-3.3,1.8-5.7,4.8-6.9,8.3h38.6V394.2z"/>
							<path class="st16" d="M427.2,432.3c-0.5,1.4-0.7,2.9-0.7,4.5v0.3h39.3v-4.8H427.2z"/>
						</g>
						<path class="st14" d="M470.3,325.3l0.6-15.9l0,0c4,4.2,4.8,10.4,2.1,15.5l-0.2,0.4H470.3z"/>
					</g>
					<g>
						<path class="st3" d="M465.8,384.3c-0.1,0-0.3-0.1-0.3-0.3v-61.3c0-0.1,0.1-0.3,0.3-0.3c0.1,0,0.3,0.1,0.3,0.3V384
							C466.1,384.1,466,384.3,465.8,384.3z"/>
					</g>
					<g>
						<path class="st3" d="M422.1,368.3c-0.1,0-0.2-0.1-0.2-0.2L411,308.3c0-0.1,0.1-0.3,0.2-0.3c0.1,0,0.3,0.1,0.3,0.2l10.8,59.7
							C422.3,368.1,422.3,368.2,422.1,368.3C422.1,368.3,422.1,368.3,422.1,368.3z"/>
					</g>
					<g>
						<path class="st3" d="M416.7,380.6c-0.1,0-0.2-0.1-0.2-0.2l-15.5-63.8c0-0.1,0-0.3,0.2-0.3c0.1,0,0.3,0.1,0.3,0.2l15.5,63.8
							C416.9,380.4,416.9,380.6,416.7,380.6C416.7,380.6,416.7,380.6,416.7,380.6z"/>
					</g>
					<g>
						<path class="st3" d="M399.2,295.1c-0.1,0-0.2-0.1-0.2-0.2c0-0.1,0-0.3,0.2-0.3l47.6-13c0.1,0,0.3,0,0.3,0.2
							c0,0.1,0,0.3-0.2,0.3L399.2,295.1C399.3,295.1,399.3,295.1,399.2,295.1z"/>
					</g>
					<g>
						<path class="st3" d="M436.5,358.8c-0.1,0-0.2-0.1-0.2-0.2l-3.9-33.6c-1.6-13.8,7.3-27,20.7-30.6l39.6-10.6
							c0.1,0,0.3,0,0.3,0.2c0,0.1,0,0.3-0.2,0.3l-39.6,10.6c-13.2,3.5-22,16.4-20.4,30l3.9,33.6
							C436.8,358.6,436.7,358.7,436.5,358.8C436.5,358.7,436.5,358.8,436.5,358.8z"/>
					</g>
				</g>
				<g>
					<path class="st17" d="M494.9,181.3H489c-1.5,3.8-4.4,7.1-8.1,9c-4.7,2.4-10.6,2.5-15.4,0.1c-3.5-1.7-6.4-4.8-8-8.3h-12.3
						c-11.8,0-22.3,7.4-26.3,18.5l-11.7,32.5l29.4,7.8l3.8-13.7l6.5,54.5h36.5l36.7-28.3L494.9,181.3z"/>
					<path class="st17" d="M494.9,181.3h10c11.3,0,21.6,6.8,25.9,17.3l11.8,28.7l-28,10.7L494.9,181.3z"/>
					<g>
						<path class="st7" d="M483.3,281.8l36.7-28.3l-5.4-15.5l23.7-9l7.3,21.3c2.7,7.8-1.4,16.3-9.2,19l-35.7,12.5l-29.3,7.8
							L483.3,281.8z"/>
						<polygon class="st3" points="538.3,229 514.6,238 517.1,245.2 538.9,230.5 						"/>
					</g>
					<g>
						<path class="st7" d="M433,285.6l-3.5-33.8l4.9-11.3l-24.6-6.5l-2.7,9.4c-1.6,5.5-1.4,11.3,0.6,16.7l10.7,29.6L433,285.6z"/>
						<polygon class="st3" points="409.8,233.9 434.4,240.4 431.9,246.1 409.3,235.5 						"/>
					</g>
					<path class="st18" d="M504.5,208.8l4,37.8c0.3,3.3-0.7,6.5-2.8,9l-22.3,26.1l36.7-28.3L504.5,208.8z"/>
					<path class="st18" d="M440.3,227.3l-2.7-23l-2.3,11.6c-1.2,6,0,12.1,3.4,17.2l0,0L440.3,227.3z"/>
					<g>
						<path class="st3" d="M514.6,238.3c-0.1,0-0.2-0.1-0.2-0.2l-11.7-33.7c0-0.1,0-0.3,0.2-0.3c0.1,0,0.3,0,0.3,0.2l11.7,33.7
							C514.9,238.1,514.8,238.2,514.6,238.3C514.7,238.3,514.6,238.3,514.6,238.3z"/>
					</g>
					<g>
						<path class="st3" d="M511.9,230.6c-0.1,0-0.2-0.1-0.2-0.2c0-0.1,0-0.3,0.1-0.3l23.9-9c0.1,0,0.3,0,0.3,0.1
							c0,0.1,0,0.3-0.1,0.3L511.9,230.6C512,230.6,511.9,230.6,511.9,230.6z"/>
					</g>
					<g>
						<path class="st3" d="M499.3,269.7c-0.1,0-0.1,0-0.2-0.1c-0.1-0.1-0.1-0.3,0-0.4l27.4-21.2c0.1-0.1,0.3-0.1,0.4,0
							c0.1,0.1,0.1,0.3,0,0.4l-27.4,21.2C499.4,269.7,499.4,269.7,499.3,269.7z"/>
					</g>
					<g>
						<path class="st3" d="M444.8,264.6c-0.1,0-0.2-0.1-0.2-0.2l-7.2-60.1c0-0.1,0.1-0.3,0.2-0.3c0.1,0,0.3,0.1,0.3,0.2l7.2,60.1
							C445,264.5,444.9,264.6,444.8,264.6C444.8,264.6,444.8,264.6,444.8,264.6z"/>
					</g>
					<g>
						<path class="st3" d="M437.6,237.3C437.6,237.3,437.6,237.3,437.6,237.3c-0.2,0-0.3-0.2-0.2-0.3l2.7-9.7c0-0.1,0.2-0.2,0.3-0.2
							c0.1,0,0.2,0.2,0.2,0.3l-2.7,9.7C437.8,237.2,437.7,237.3,437.6,237.3z"/>
					</g>
					<g>
						<path class="st3" d="M438.4,234.6C438.3,234.6,438.3,234.6,438.4,234.6l-25-6.4c-0.1,0-0.2-0.2-0.2-0.3c0-0.1,0.2-0.2,0.3-0.2
							l25,6.3c0.1,0,0.2,0.2,0.2,0.3C438.6,234.5,438.5,234.6,438.4,234.6z"/>
					</g>
				</g>
			</g>
		</g>
		<g>
			<g>
				<g>
					<g>
						<polygon class="st3" points="182.8,355 187.7,355 189.1,366.8 183.8,364 						"/>
						<polygon class="st4" points="189.1,366.8 197.4,441.7 192.5,441.7 183.8,364 						"/>
					</g>
					<g>
						<polygon class="st4" points="146.2,365.5 154.7,441.7 149.7,441.7 140.9,362.7 						"/>
						<polygon class="st3" points="140.1,355 145,355 146.2,365.5 140.9,362.7 						"/>
					</g>
					<g>
						<polygon class="st3" points="121.6,355 126.5,355 125.3,365.8 120.6,363.2 						"/>
						<polygon class="st4" points="111.9,441.7 120.6,363.2 125.3,365.8 116.8,441.7 						"/>
					</g>
					<g>
						<polygon class="st3" points="78.8,355 83.7,355 82.6,365 78,362.5 						"/>
						<polygon class="st4" points="69.1,441.7 78,362.5 82.6,365 74.1,441.7 						"/>
					</g>
				</g>
				<g>
					<path class="st5" d="M191.3,355L191.3,355c-4.5-9.7-14.1-15.9-24.8-15.9h-32.5l-17.6-114.5l-24.7-20H76
						c-19.6,0-34.6,17.5-31.6,36.9L59.2,338c1.5,9.8,9.9,17,19.8,17H191.3z"/>
					<path class="st6" d="M206.9,355L206.9,355c-4.5-9.7-14.1-15.9-24.8-15.9h-32.5l-15-97.6c-3.3-21.2-21.5-36.9-43-36.9h0
						C72,204.6,57,222.1,60,241.5l13.2,85.8c1,6.8,6.9,11.9,13.8,11.9h20.5c10.6,0,20.3,6.2,24.8,15.9l0,0H206.9z"/>
				</g>
			</g>
			<g>
				<g>
					<g>
						<g>
							<path class="st19" d="M155.8,296.3l-16.5,42.8H222l-14.8,63.7h40l11.3-68c2.7-16-8.7-30.9-24.9-32.5l-60.5-6H155.8z"/>
							<path class="st6" d="M222,339.1l4.7-20.4l-6,5.4c-1.3,1.2-2.1,2.9-2.1,4.6l0,0c0,3.1-2.3,5.8-5.4,6.2l-2.5,0.3l-0.7,3.9H222z
								"/>
						</g>
						<g>
							<path class="st15" d="M242.8,427.4c-0.1-0.1-0.1-0.1-0.2-0.2l-0.9-1c-2.2-2.4-3.1-5.7-2.6-8.9l2.4-14.5h-18.4l-2.3,14.1
								c-0.4,2.8-1.3,5.5-2.8,7.9c-1,1.7-2.2,4.2-3,7.4h22.7C238.8,430.1,240.6,428.4,242.8,427.4z"/>
							<path class="st20" d="M252.3,431l-3.1-0.4c-2.5-0.3-4.8-1.5-6.5-3.3c-2.1,1-4,2.7-5.1,4.8h-22.7c-0.4,1.5-0.7,3.2-0.9,5
								c-0.3,2.4,1.6,4.5,4,4.5h43.8C261.8,436.2,257.7,431.7,252.3,431z"/>
							<polygon class="st3" points="223.1,402.8 241.5,402.8 241.1,405.1 222.1,408.8 							"/>
						</g>
					</g>
					<g>
						<g>
							<path class="st12" d="M192.4,427.4c-0.1-0.1-0.1-0.1-0.2-0.2l-0.9-1c-2.2-2.4-3.1-5.7-2.6-8.9l2.3-14.5h-18.4l-2.2,14.1
								c-0.4,2.8-1.3,5.5-2.8,7.9c-1,1.7-2.2,4.2-3,7.4h22.7C188.5,430.1,190.3,428.4,192.4,427.4z"/>
							<path class="st21" d="M202,431l-3.1-0.4c-2.5-0.3-4.8-1.5-6.5-3.3c-2.1,1-4,2.7-5.1,4.8h-22.7c-0.4,1.5-0.7,3.2-0.9,5
								c-0.3,2.4,1.6,4.5,4,4.5h43.8C211.4,436.2,207.4,431.7,202,431z"/>
							<polygon class="st3" points="172.6,402.8 191.1,402.8 190.7,405.1 171.7,408.8 							"/>
						</g>
						<g>
							<path class="st22" d="M108,296.3l-4.4,11.5c-5.8,15.1,5.3,31.3,21.5,31.3h49.2l-14.8,63.7h40l11.5-69.3
								c2.6-15.5-8.1-30.1-23.7-32.3l-34.5-4.9H108z"/>
							<path class="st6" d="M174.3,339.1l4.7-20.4l-5.8,5.7c-3.8,3.8-5.4,9.4-4,14.6l0,0H174.3z"/>
						</g>
						<g>
							<path class="st3" d="M174.3,339.4h-35c-0.1,0-0.3-0.1-0.3-0.3s0.1-0.3,0.3-0.3h35c0.1,0,0.3,0.1,0.3,0.3
								S174.4,339.4,174.3,339.4z"/>
						</g>
						<g>
							<path class="st3" d="M161.6,393.9C161.6,393.9,161.6,393.9,161.6,393.9c-0.2,0-0.3-0.2-0.2-0.3l17.3-74.9
								c0-0.1,0.2-0.2,0.3-0.2c0.1,0,0.2,0.2,0.2,0.3l-17.3,74.9C161.8,393.8,161.7,393.9,161.6,393.9z"/>
						</g>
						<g>
							<path class="st3" d="M187.3,301.5C187.3,301.5,187.3,301.5,187.3,301.5l-21.5-3.1c-0.1,0-0.2-0.1-0.2-0.3
								c0-0.1,0.1-0.2,0.3-0.2l21.5,3c0.1,0,0.2,0.1,0.2,0.3C187.6,301.4,187.5,301.5,187.3,301.5z"/>
						</g>
						<g>
							<path class="st3" d="M200.8,395.1C200.8,395.1,200.8,395.1,200.8,395.1c-0.2,0-0.3-0.2-0.2-0.3l7.6-45.9
								c0-0.1,0.2-0.2,0.3-0.2c0.1,0,0.2,0.2,0.2,0.3l-7.6,45.9C201,395,200.9,395.1,200.8,395.1z"/>
						</g>
					</g>
				</g>
				<g>
					<g>
						<path class="st15" d="M188.3,228.5l7,23.3l34.3,40.9l-9.2,8.3l-33.1-29.2c-4.7-4.2-8.1-9.7-9.8-15.8l-5.8-22L188.3,228.5z"/>
						<path class="st3" d="M188.3,228.5l-16.5,5.5l5.8,22c0,0.1,0.1,0.2,0.1,0.4l14.4-15L188.3,228.5z"/>
					</g>
					<g>
						<path class="st21" d="M168.9,192.6L168.9,192.6c5.7-0.3,10.9,3.3,12.6,8.8l9.9,32l-10.1,2.3l-6-17.3L168.9,192.6z"/>
						<polygon class="st20" points="175.3,218.5 181.3,235.8 190,233.7 172.8,208.5 						"/>
					</g>
				</g>
				<path class="st3" d="M175.3,164.1c3.9-5.5,7.4-11.5,8.8-18.2c1.4-6.6,0.5-14-3.7-19.3c-4.2-5.3-12.1-7.8-18.2-4.7
					c-7.4-4.9-16.3-8-24.6-4.8c-8.3,3.2-14.8,10.6-17,19.2c-4.4,17.3,8.1,36,2.4,53c-2.3,7-7.5,12.6-11.9,18.5
					c-4.4,5.9-8.4,12.8-7.7,20.2c0.9,9.4,9.8,16.7,19.1,18c7.4,1,15.1-1.3,20.8-6.1c6.6-5.6,10.2-14.2,11.7-22.8
					c1.5-8.6,1.4-17.3,1.9-26c0.3-5.4,1-11,3.3-15.9C162.7,170.2,170,165.5,175.3,164.1z"/>
				<g>
					<path class="st21" d="M184.4,232l-6.4-14.5l-9.1-24.9l-23.9,1.2c-13.7,0.7-24.3,12.3-23.7,26.1l0.5,10.7l0,0l-1.3,27
						c-0.3,5.1-1.3,10.2-3.2,14.9l-9.2,23.9h65.2l4.5-30.3l0.8-8.8c0.3-3,1.4-5.8,3.4-8.1l0,0C186,244.4,186.9,237.7,184.4,232z"/>
					<g>
						<path class="st3" d="M184.4,232.2c-0.1,0-0.2-0.1-0.2-0.1l-6.4-14.5l-5-13.7c0-0.1,0-0.3,0.1-0.3c0.1,0,0.3,0,0.3,0.1l5,13.7
							l6.4,14.5c0.1,0.1,0,0.3-0.1,0.3C184.5,232.2,184.4,232.2,184.4,232.2z"/>
					</g>
					<g>
						<path class="st3" d="M158.5,249.3c-0.1,0-0.2-0.1-0.2-0.2c0-0.1,0.1-0.3,0.2-0.3c4.9-0.4,9.7-2.9,12.7-6.8
							c0.1-0.1,0.2-0.1,0.4,0c0.1,0.1,0.1,0.2,0,0.4C168.5,246.3,163.6,249,158.5,249.3C158.5,249.3,158.5,249.3,158.5,249.3z"/>
					</g>
				</g>
				<g>
					<g>
						<path class="st12" d="M144.6,174.8l-0.6,19.6l3.1,3.2c5,5.2,13.8,3.4,16.4-3.3l0,0l-1.8-14.8L144.6,174.8z"/>
						<path class="st3" d="M156.8,189.7c2.1,0.3,4.2,0,6.1-1l-1.1-9.3l-17.1-4.8l-0.1,2.6c1,2.3,2.1,4.6,3.6,6.6
							C150.2,186.8,153.3,189.2,156.8,189.7z"/>
					</g>
					<path class="st12" d="M177.1,148v10.8c0,4.8-0.8,9.5-2.4,14l0,0c-2.4,6.9-8.9,11.5-16.2,11.5l0,0c-4.2,0-8.3-1.6-11.5-4.4
						l-6-5.4c-2.4-2.2-4.2-5.1-5-8.3l0,0c18.4-8,24.9-21.6,25.1-32.5C173.8,138.8,177.1,148,177.1,148z"/>
					<g>
						<g>
							<path class="st3" d="M158.4,148.6c-2.6,0.5-4.6,2.2-5.7,4.3l12.6-2.4C163.5,148.9,160.9,148.1,158.4,148.6z"/>
						</g>
						<circle class="st3" cx="159.6" cy="156.3" r="1.9"/>
						<g>
							<path class="st3" d="M174.2,148.6c1.6,0.5,2.8,2.2,3.4,4.3l-7.6-2.4C171.1,148.9,172.6,148.1,174.2,148.6z"/>
						</g>
						<ellipse class="st3" cx="173.5" cy="156.3" rx="1.2" ry="1.9"/>
						<g>
							<path class="st3" d="M167.9,167.4c-0.5,0-1-0.1-1.5-0.1c-0.1,0-0.2-0.1-0.2-0.3c0-0.1,0.1-0.2,0.3-0.2
								c0.9,0.1,1.9,0.2,2.8-0.1c0.8-0.2,1.7-0.9,1.8-1.8c0.1-0.7-0.2-1.4-0.5-2.1l-0.1-0.2c-1.3-2.7-1.8-5.7-1.7-8.7
								c0-0.1,0.1-0.2,0.3-0.2c0.1,0,0.2,0.1,0.2,0.3c-0.2,2.9,0.4,5.8,1.6,8.5l0.1,0.2c0.3,0.7,0.7,1.5,0.6,2.3
								c-0.2,1.1-1.2,1.9-2.1,2.2C168.9,167.3,168.4,167.4,167.9,167.4z"/>
						</g>
						<path class="st9" d="M170.4,170.5c-4.3,0.6-8.5,1.1-12.8,1.7c1.1,2.5,4,3.9,6.7,3.7C167,175.6,169.7,173.1,170.4,170.5z"/>
					</g>
				</g>
				<g>
					<g>
						<path class="st12" d="M124.8,251.8l22.5-3.5l3.1,26.3l54.3-16.7l3.2,14.3l-53.1,24.2c-12.7,5.8-27.4-2.9-28.3-16.9
							L124.8,251.8z"/>
						<polygon class="st3" points="147.3,248.3 124.8,251.8 125.3,261 147.5,250.7 						"/>
					</g>
					<g>
						<path class="st20" d="M150.4,247.8L123,252l-0.4-3.2l15.6-2.4c4.8-0.7,8.2-5.1,7.6-9.9l-2.4-20.5c-0.6-4.7-3.3-9-7.4-11.4l0,0
							l0.3,0.1c5.3,2,9.1,6.8,9.9,12.4L150.4,247.8z"/>
						<g>
							<path class="st3" d="M123,252.3c-0.1,0-0.2-0.1-0.2-0.2c0-0.1,0.1-0.3,0.2-0.3l27.1-4.2l-4-30.4c-0.7-5.6-4.5-10.2-9.7-12.2
								l-0.3-0.1c-0.1,0-0.2-0.2-0.1-0.3c0-0.1,0.2-0.2,0.3-0.1l0.3,0.1c5.4,2,9.3,6.9,10,12.6l4.1,30.6c0,0.1-0.1,0.3-0.2,0.3
								L123,252.3C123.1,252.3,123.1,252.3,123,252.3z"/>
						</g>
					</g>
					<g>
						<path class="st3" d="M139.2,278.2c-0.1,0-0.2-0.1-0.2-0.2c0-0.1,0-0.3,0.2-0.3l57.4-17.6c0.1,0,0.3,0,0.3,0.2
							c0,0.1,0,0.3-0.2,0.3L139.2,278.2C139.3,278.2,139.2,278.2,139.2,278.2z"/>
					</g>
				</g>
			</g>
		</g>
		<g>
			<g>
				<g>
					<path class="st23" d="M359.7,159.8v23.7c0,7.2-5.8,13-13,13h-2.2l-2,3.2H317l8.7-13.5L359.7,159.8z"/>
					<path class="st24" d="M359.8,164.4l-5.9,8.1v8.8c0,5-4,9-9,9h-15.7c-3.1,0-6-1.6-7.6-4.2c-16.2-25.7-12-45.1,5.9-42.5
						C342.9,121.3,382.1,147.8,359.8,164.4z"/>
					<path class="st23" d="M357.4,167.7l-3.5,4.8v8.5c0.5,1.4,1.8,2,2.8,1.7c1-0.3,1.9-1.3,2.5-2.5c0.9-1.5,1.5-3.2,1.8-5.1
						c0.2-1.9,0-4-0.7-5.6C359.5,168,358.7,167.7,357.4,167.7z"/>
					<g>
						<path class="st3" d="M356.2,183.1c-0.3,0-0.6-0.1-0.9-0.2c-0.1,0-0.2-0.2-0.1-0.3c0-0.1,0.2-0.2,0.3-0.1
							c0.4,0.1,0.8,0.2,1.1,0.1c0.8-0.2,1.6-1,2.4-2.4c0.9-1.6,1.5-3.3,1.8-5c0.3-2,0-4-0.7-5.5c-0.4-0.9-0.9-1.3-1.4-1.6
							c-0.1,0-0.2-0.2-0.1-0.3c0-0.1,0.2-0.2,0.3-0.1c0.7,0.3,1.2,0.8,1.7,1.8c0.8,1.6,1,3.6,0.8,5.7c-0.2,1.8-0.9,3.6-1.8,5.2
							c-0.9,1.5-1.8,2.3-2.7,2.6C356.6,183,356.4,183.1,356.2,183.1z"/>
					</g>
				</g>
				<g>
					<g>
						<g>
							<g>
								<path class="st25" d="M324.8,429.2c-1.6-2-2.9-4.2-3.8-6.7l-0.7-1.8h-20.8l-1.6,16.5h31.1
									C328.2,434.3,326.8,431.5,324.8,429.2z"/>
								<path class="st9" d="M329.1,437.2h-31.1l-0.4,4.5H330l-0.3-1.9C329.5,438.9,329.3,438,329.1,437.2z"/>
							</g>
							<polygon class="st3" points="320.3,420.7 299.6,420.7 298.9,427 							"/>
						</g>
						<g>
							<g>
								<polygon class="st26" points="338,320 330,420.7 293.4,420.7 301.2,339.7 								"/>
							</g>
							<polygon class="st27" points="334,370.3 299.2,360.2 301.2,339.7 338,320 							"/>
						</g>
					</g>
					<g>
						<g>
							<g>
								<path class="st25" d="M390.1,430.3L390.1,430.3c-3.5-1.7-6.4-4.4-8.4-7.8l-1-1.8H362l-3.5,16.5h39.3
									C395.9,434.2,393.2,431.8,390.1,430.3z"/>
								<path class="st9" d="M397.8,437.2h-39.3l-1,4.5H400l-0.1-0.2C399.4,440,398.7,438.5,397.8,437.2z"/>
							</g>
							<polygon class="st3" points="380.7,420.7 362,420.7 360.6,427 							"/>
						</g>
						<g>
							<path class="st26" d="M340.2,296.3l39.9,17.6c8.2,3.6,13.1,12,12.4,20.9l-6.8,85.8H349l7.8-81l-23.5-2.6h-58.4v-40.7H340.2z"
								/>
							<path class="st27" d="M356.8,339.7h25.7l-1.6,1.2c-7.1,5.2-16.2,6.8-24.6,4.2l0,0L356.8,339.7z"/>
						</g>
					</g>
					<g>
						<path class="st3" d="M382.5,410.9h-29.2c-0.1,0-0.3-0.1-0.3-0.3s0.1-0.3,0.3-0.3h29.2c0.1,0,0.3,0.1,0.3,0.3
							S382.6,410.9,382.5,410.9z"/>
					</g>
					<g>
						<path class="st3" d="M327.1,410.9h-29.2c-0.1,0-0.3-0.1-0.3-0.3s0.1-0.3,0.3-0.3h29.2c0.1,0,0.3,0.1,0.3,0.3
							S327.3,410.9,327.1,410.9z"/>
					</g>
					<g>
						<path class="st3" d="M380.7,416.8C380.7,416.8,380.7,416.8,380.7,416.8c-0.2,0-0.3-0.1-0.2-0.3l6.2-70.2
							c0-0.1,0.1-0.2,0.3-0.2c0.1,0,0.2,0.1,0.2,0.3l-6.2,70.2C380.9,416.7,380.8,416.8,380.7,416.8z"/>
					</g>
				</g>
				<g>
					<g>
						<path class="st7" d="M408.6,225.3l-9-15.9l0,0c1.9-0.9,4.2-0.4,5.6,1.2l2.7,3.1L408.6,225.3z"/>
						<path class="st23" d="M404.6,230.6l4-5.4l-2-11.8c-0.2-9.3,3.9-14.2,5.9-16.1c0.6-0.6,1.6-0.7,2.3-0.2l0,0
							c0.9,0.6,1.1,1.7,0.5,2.6c-3.1,4.6-3.4,9.4-3.4,9.4c2.3-4.8,5.9-7.6,7.7-8.8c0.7-0.4,1.5-0.4,2.1,0.1l5.6,4.2
							c0.8,0.6,1,1.9,0.3,2.7c-2.9,3.4-4.4,8.1-4.4,8.1c2,7.9-1.8,13.1-3.4,14l-6.5,10.4L404.6,230.6z"/>
					</g>
					<g>
						<path class="st28" d="M272,223.5L272,223.5c3.6-15.8,17.6-27,33.8-27h33.8c13.9,0,26.4,8.4,31.5,21.3L384,250l18.7-21.7
							c13.3,0.7,15.7,14.3,15.7,14.3l-25.6,32.8c-7.4,9.5-22.3,7.7-27.2-3.3L354,246.4l-10.5,54.2c-15.8,9.3-62.2,7-71.5,2V223.5z"
							/>
						<polygon class="st29" points="354,246.4 358.7,222.1 359.7,259.1 						"/>
						<path class="st29" d="M384,250l5.8,14.4l0.6-7.6c0.3-3.6-1.1-7.2-3.7-9.8l0,0L384,250z"/>
					</g>
					<g>
						<path class="st3" d="M416.4,210.9c0,0-0.1,0-0.1,0c-0.1-0.1-0.2-0.2-0.1-0.3c1.6-3,3.8-5.7,6.5-7.8c0.1-0.1,0.3-0.1,0.4,0
							c0.1,0.1,0.1,0.3,0,0.4c-2.6,2.1-4.8,4.7-6.4,7.7C416.6,210.9,416.5,210.9,416.4,210.9z"/>
					</g>
					<g>
						<path class="st3" d="M420.6,212c0,0-0.1,0-0.1,0c-0.1-0.1-0.2-0.2-0.1-0.3c1.4-2.2,3-4.3,5-6c0.1-0.1,0.3-0.1,0.4,0
							c0.1,0.1,0.1,0.3,0,0.4c-1.9,1.7-3.5,3.7-4.9,5.9C420.8,212,420.7,212,420.6,212z"/>
					</g>
					<g>
						<path class="st3" d="M407.1,227.6c-0.1,0-0.1,0-0.1,0c-0.1-0.1-0.1-0.2-0.1-0.4l1.5-2l-1.5-9c0-0.1,0.1-0.3,0.2-0.3
							c0.1,0,0.3,0.1,0.3,0.2l1.5,9.1c0,0.1,0,0.1,0,0.2l-1.5,2.1C407.2,227.5,407.2,227.6,407.1,227.6z"/>
					</g>
					<g>
						<path class="st3" d="M345.9,288.7C345.9,288.7,345.8,288.7,345.9,288.7c-0.2,0-0.3-0.2-0.2-0.3l12.8-66.4
							c0-0.1,0.2-0.2,0.3-0.2c0.1,0,0.2,0.2,0.2,0.3l-12.8,66.4C346.1,288.6,346,288.7,345.9,288.7z"/>
					</g>
					<g>
						<path class="st3" d="M389.8,264.6c-0.1,0-0.2-0.1-0.2-0.2l-15.7-39.1c-0.1-0.1,0-0.3,0.1-0.3c0.1-0.1,0.3,0,0.3,0.1l15.7,39.1
							C390.1,264.4,390,264.6,389.8,264.6C389.8,264.6,389.8,264.6,389.8,264.6z"/>
					</g>
					<g>
						<path class="st3" d="M384,250.3c-0.1,0-0.1,0-0.2-0.1c-0.1-0.1-0.1-0.2,0-0.4l11-12.7c0.1-0.1,0.2-0.1,0.4,0
							c0.1,0.1,0.1,0.2,0,0.4l-11,12.7C384.1,250.2,384.1,250.3,384,250.3z"/>
					</g>
					<g>
						<path class="st3" d="M326,295.6C325.9,295.6,325.9,295.6,326,295.6c-7.4-2.2-14.1-6.2-19.6-11.4c-0.1-0.1-0.1-0.3,0-0.4
							c0.1-0.1,0.3-0.1,0.4,0c5.4,5.2,12.1,9.1,19.4,11.3c0.1,0,0.2,0.2,0.2,0.3C326.2,295.5,326.1,295.6,326,295.6z"/>
					</g>
					<g>
						<path class="st3" d="M319.9,224.3c-0.1,0-0.2-0.1-0.2-0.2c0-0.1,0-0.3,0.2-0.3l9.7-3.4c0.1,0,0.3,0,0.3,0.2
							c0,0.1,0,0.3-0.2,0.3L319.9,224.3C320,224.3,319.9,224.3,319.9,224.3z"/>
					</g>
				</g>
			</g>
			<g>
				<path class="st6" d="M342.9,350.5c-1.3-8.9-8.8-15.4-17.8-15.5l-5.1,0c-3.8,0-7.1-2.7-7.8-6.5l-16.5-83.8
					c-4.8-24.6-26.4-42.3-51.4-42.3l0,0h-16.6l2.6,2.6c-16.5,6.5-27,24.1-23.3,42.7l17.4,88.6C226.6,347.2,236,355,247,355h96.5
					L342.9,350.5z"/>
				<path class="st5" d="M207.8,336.4l-17.4-88.6c-4.6-23.5,13.4-45.3,37.3-45.3h0c25,0,46.6,17.7,51.4,42.3l18,91.7
					c2.1,10.8,11.6,18.6,22.6,18.6h0.8h-90.1C219.4,355,210,347.2,207.8,336.4z"/>
				<g>
					<polygon class="st3" points="235.3,355 230.4,355 229.1,366.8 234.3,364 					"/>
					<polygon class="st4" points="229.1,366.8 220.7,441.7 225.7,441.7 234.3,364 					"/>
				</g>
				<g>
					<polygon class="st4" points="272,365.5 263.5,441.7 268.4,441.7 277.2,362.7 					"/>
					<polygon class="st3" points="278.1,355 273.2,355 272,365.5 277.2,362.7 					"/>
				</g>
				<g>
					<polygon class="st3" points="296.6,355 291.7,355 292.9,365.8 297.5,363.2 					"/>
					<polygon class="st4" points="306.3,441.7 297.5,363.2 292.9,365.8 301.3,441.7 					"/>
				</g>
				<g>
					<polygon class="st3" points="339.3,355 334.4,355 335.5,365 340.2,362.5 					"/>
					<polygon class="st4" points="349,441.7 340.2,362.5 335.5,365 344.1,441.7 					"/>
				</g>
			</g>
		</g>
		<g>
			<g>
				<g>
					<path class="st23" d="M596.3,209.6l8.9-11.4c2.2-2.9,5.7-4.5,9.3-4.5l-1.9-0.3c-1.4-0.3-2.6-1.3-3.1-2.6l-5.1-14.6l-15,8
						l2.2,11.6c0.2,1,0,2.1-0.6,2.9l-9.2,14.3l0.2,0.1C586.9,215.4,592.9,214,596.3,209.6z"/>
					<path class="st30" d="M625.7,304.3l-11.2-110.5c-3.6,0-7.1,1.7-9.3,4.5l-8.9,11.4c-3.4,4.4-9.4,5.8-14.4,3.4l-0.2-0.1
						l-14.9,23.2c-2,3-2.2,6.9-0.4,10.1c0.9,1.6,1.9,2.9,3,4c4.1,4.1,5.7,10.1,4.6,15.8l-4.2,22.1L625.7,304.3z"/>
					<path class="st3" d="M590.7,191.6c12.1-3.8,14-11.4,13.6-15.4l-15,8L590.7,191.6z"/>
					<path class="st31" d="M608.1,216.1l-1.8,49.9c-0.2,5.8-4.8,10.4-10.6,10.6l-23.9,0.9l-2,10.5l55.8,16.3l-8.9-88.2H608.1z"/>
					<g>
						<path class="st3" d="M592.4,253.7C592.3,253.7,592.3,253.7,592.4,253.7c-5-1.3-9.6-4.4-12.6-8.6c-0.1-0.1-0.1-0.3,0.1-0.3
							c0.1-0.1,0.3-0.1,0.3,0.1c2.9,4.1,7.4,7.1,12.3,8.4c0.1,0,0.2,0.2,0.2,0.3C592.6,253.6,592.5,253.7,592.4,253.7z"/>
					</g>
				</g>
				<g>
					<path class="st32" d="M619.2,140.9c2.5-9.7,11.8-17.2,21.7-17.7c3.7-0.2,7.7,0.7,10.3,3.3c2.2,2.2,3.1,5.5,3.3,8.6
						c0.5,5.5-0.7,11.1-1.9,16.5c-1.3,5.4-2.6,10.9-2.6,16.4c0,5.6,1.6,11.3,5.5,15.3c-10.2,1.7-20.9-3.4-27-11.7
						C622.5,163.1,616.6,150.9,619.2,140.9z"/>
					<path class="st32" d="M578.3,163.2c-3.5-3.8-5.8-8.8-6.3-14c-0.4-3.4,0-7,1.4-10.1c1.4-3.1,4-5.8,7.3-7
						c3.2-1.2,7.1-0.8,9.8,1.3c5-3,11.2-3.8,16.9-2.5c5.7,1.3,10.9,4.9,14,9.9c3.9,6.1,4.7,14,2.8,21c-1.9,6.7-6.5,13-13.1,15.2
						c-5.7,1.9-12,0.6-17.3-2.2C588.6,171.9,582.3,167.6,578.3,163.2z"/>
					<g>
						<path class="st3" d="M611.1,177.2c-0.1,0-0.2-0.1-0.2-0.2c0-0.1,0-0.3,0.2-0.3c6-2,10.9-7.8,12.9-15c2-7.2,1-15-2.7-20.8
							c-3.2-4.9-8.2-8.5-13.9-9.8c-0.1,0-0.2-0.2-0.2-0.3c0-0.1,0.2-0.2,0.3-0.2c5.8,1.3,11,5,14.2,10c3.8,5.9,4.8,13.8,2.8,21.2
							C622.4,169.2,617.3,175.1,611.1,177.2C611.2,177.2,611.2,177.2,611.1,177.2z"/>
					</g>
					<g>
						<path class="st23" d="M585.3,144.8L585.3,144.8c-5.1,4.1-8.5,9.8-9.7,16.2l-0.5,2.7l-5.5,8.8h5.8l0.8,8.6
							c0.3,3.3,2.5,6.1,5.6,7.2l0,0c2.1,0.8,4.4,0.7,6.4-0.2l11.3-5.1c2.5-1.1,4.1-3.6,4.1-6.4v-5.3c-2-0.8-4.6-2.3-5.5-4.2
							s-1-4.2-0.4-6.3C592.4,157.4,587.5,150.9,585.3,144.8z"/>
						<g>
							<path class="st23" d="M606.3,165.1c1-0.5,2.2-0.9,3.3-0.7c1.1,0.1,2.3,0.8,2.8,1.8c0.5,1,0.4,2.2,0.2,3.3
								c-0.4,1.9-1.2,3.6-2.4,5.2c-0.8,1.1-1.9,2.1-3.2,2.6c-1.3,0.5-2.9,0.5-4-0.4c-1.9-1.4-1.3-4.3-0.9-6.2
								C602.7,168.4,604.2,166.3,606.3,165.1z"/>
							<path class="st7" d="M605.4,175.7c-0.3,0-0.7-0.1-1-0.3c-0.9-0.7-0.4-2.8-0.1-4.2c0.4-1.9,1.6-3.5,3.1-4.3
								c0.6-0.3,1.3-0.5,1.8-0.5c0.1,0,0.2,0,0.3,0c0.6,0.1,1.1,0.4,1.3,0.8c0.2,0.4,0.2,1.1,0,2c-0.4,1.6-1.1,3.1-2,4.4
								c-0.8,1-1.5,1.7-2.3,2C606,175.6,605.7,175.7,605.4,175.7z"/>
						</g>
					</g>
					<g>
						<path class="st3" d="M584.2,157.7c2.3,0.4,4.1,1.9,5.1,3.8l-11.2-2.1C579.7,158,582,157.3,584.2,157.7z"/>
					</g>
					<circle class="st3" cx="583.2" cy="164.6" r="1.7"/>
					<path class="st9" d="M587.7,177.3c-3.3-0.7-6.7-0.7-10,0c0.2,1.1,1.3,2.2,2.2,2.8c0.9,0.6,2.1,0.9,3.2,0.7
						C584.8,180.6,586.4,178.6,587.7,177.3z"/>
				</g>
				<g>
					<g>
						<path class="st23" d="M550.6,282.4l65.5,19.1c11.3,3.3,22.4-5.6,21.7-17.3l-2-34l-22.9,3.3l1.8,29.4l-48.2-6.1
							c-4.1-0.5-8.2,0.5-11.6,2.7L550.6,282.4"/>
						<path class="st3" d="M613,253.5l22.9-3.3l0.5,8.9c-9.9,2.4-23.2-0.7-23.2-0.7L613,253.5z"/>
					</g>
					<path class="st30" d="M614.5,193.8L614.5,193.8c10,0,18.5,7.4,19.9,17.3L640,252c-11.5,5.3-29.1,5-29.1,5l-2.7-40.9
						c-0.5-7.7,1.6-15.3,5.9-21.7L614.5,193.8z"/>
					<g>
						<path class="st33" d="M614.5,193.8"/>
					</g>
					<g>
						<path class="st3" d="M610.4,251c-0.1,0-0.2-0.1-0.2-0.2l-2.3-34.7c-0.3-4.2,0.2-8.3,1.4-12.4c0-0.1,0.2-0.2,0.3-0.2
							c0.1,0,0.2,0.2,0.2,0.3c-1.2,4-1.7,8.1-1.4,12.2l2.3,34.7C610.7,250.9,610.6,251,610.4,251C610.4,251,610.4,251,610.4,251z"/>
					</g>
					<g>
						<path class="st3" d="M638.9,244.1c-0.1,0-0.2-0.1-0.2-0.2l-4.5-32.8c0-0.1,0.1-0.3,0.2-0.3c0.1,0,0.3,0.1,0.3,0.2l4.5,32.8
							C639.1,244,639.1,244.1,638.9,244.1C638.9,244.1,638.9,244.1,638.9,244.1z"/>
					</g>
					<g>
						<path class="st3" d="M623.6,284.2C623.6,284.2,623.6,284.2,623.6,284.2l-47.7-6c-0.1,0-0.2-0.1-0.2-0.3c0-0.1,0.1-0.2,0.3-0.2
							l47.7,6c0.1,0,0.2,0.1,0.2,0.3C623.9,284.2,623.7,284.2,623.6,284.2z"/>
					</g>
					<g>
						<path class="st3" d="M620.9,251.1c-0.1,0-0.2-0.1-0.2-0.2c0-0.1,0.1-0.3,0.2-0.3c3.1-0.5,6.1-1.9,8.6-3.8
							c0.1-0.1,0.3-0.1,0.4,0c0.1,0.1,0.1,0.3,0,0.4C627.2,249.2,624.1,250.6,620.9,251.1C620.9,251.1,620.9,251.1,620.9,251.1z"/>
					</g>
				</g>
				<g>
					<g>
						<g>
							<path class="st23" d="M476.2,395.5l2.2-9.1l6.2-15.1l-16.7-6.8l-3.4,8.2c-1.5,3.7-4.5,6.6-8.2,7.9c0.7,2.3,1.1,4.7,0.9,7.1
								L476.2,395.5z"/>
							<path class="st30" d="M457.2,387.7c0.2-2.4-0.1-4.8-0.9-7.1c-0.6,0.2-1.3,0.4-1.9,0.6l-1.6,0.3c-2,0.4-4.1,0.4-6.1,0
								l-2.5-0.5c-5.3-1.1-10.7,0.8-14.1,5l44,17.9l2-8.4L457.2,387.7z"/>
						</g>
						<polygon class="st3" points="467.8,364.4 484.5,371.2 482.2,377 467.1,366.3 						"/>
					</g>
					<polygon class="st34" points="462.2,362.7 494.8,297.3 520.6,310.5 500.2,379.5 					"/>
					<path class="st34" d="M625.7,304.3l-98.1-28.6c-11.2-3.2-23,2-28.2,12.4l-4.6,9.2l72,37h31.7c14.3,0,26.2-11.2,27-25.5
						L625.7,304.3z"/>
					<g>
						<path class="st3" d="M595.4,295.7C595.4,295.7,595.4,295.7,595.4,295.7l-63.8-18.6c-0.1,0-0.2-0.2-0.2-0.3
							c0-0.1,0.2-0.2,0.3-0.2l63.8,18.6c0.1,0,0.2,0.2,0.2,0.3C595.6,295.6,595.5,295.7,595.4,295.7z"/>
					</g>
					<g>
						<path class="st3" d="M625.7,304.5C625.6,304.5,625.6,304.5,625.7,304.5l-20-5.8c-0.1,0-0.2-0.2-0.2-0.3c0-0.1,0.2-0.2,0.3-0.2
							l19.9,5.8c0.1,0,0.2,0.2,0.2,0.3C625.9,304.4,625.8,304.5,625.7,304.5z"/>
					</g>
				</g>
				<g>
					<g>
						<path class="st34" d="M516.1,308.2l-11.3,2c-9.6,1.7-16.7,9.8-17.2,19.6l-4.1,77.7h44.8l-6.5-70l45-3.3L516.1,308.2z"/>
						<path class="st35" d="M512.8,308.8c0,0,32.4,27,32.4,27c0,0,21.6-1.6,21.6-1.6l-50.6-26L512.8,308.8z"/>
					</g>
					<g>
						<g>
							<path class="st3" d="M488.9,323.8C488.9,323.8,488.9,323.8,488.9,323.8c-0.2-0.1-0.3-0.2-0.2-0.3c2.6-6.9,8.8-12.1,16.1-13.4
								l11.3-2c0.1,0,0.3,0.1,0.3,0.2c0,0.1-0.1,0.3-0.2,0.3l-11.3,2c-7.1,1.3-13.1,6.3-15.7,13.1
								C489.1,323.7,489,323.8,488.9,323.8z"/>
						</g>
						<g>
							<path class="st3" d="M521.8,337.8c-0.1,0-0.2-0.1-0.2-0.2c0-0.1,0.1-0.3,0.2-0.3l36.7-2.7c0.1,0,0.3,0.1,0.3,0.2
								c0,0.1-0.1,0.3-0.2,0.3L521.8,337.8C521.8,337.8,521.8,337.8,521.8,337.8z"/>
						</g>
						<g>
							<path class="st3" d="M484.9,380.9C484.9,380.9,484.9,380.9,484.9,380.9c-0.2,0-0.3-0.1-0.3-0.3l2.5-46.4
								c0-0.1,0.1-0.2,0.3-0.2c0,0,0,0,0,0c0.1,0,0.2,0.1,0.2,0.3l-2.5,46.4C485.2,380.8,485.1,380.9,484.9,380.9z"/>
						</g>
						<g>
							<path class="st3" d="M524.8,371c-0.1,0-0.2-0.1-0.2-0.2l-4-43.5c0-0.1,0.1-0.3,0.2-0.3c0.1,0,0.3,0.1,0.3,0.2l4,43.5
								C525.1,370.8,525,371,524.8,371C524.9,371,524.8,371,524.8,371z"/>
						</g>
					</g>
					<g>
						<g>
							<path class="st23" d="M512.9,433.1l-1.4-9.2v-16.3h-18v8.9c0,4-1.7,7.8-4.6,10.4c1.5,1.8,2.7,4,3.5,6.3H512.9z"/>
							<path class="st30" d="M492.4,433.1c-0.7-2.3-1.9-4.4-3.5-6.3c-0.5,0.4-1,0.9-1.5,1.3l-1.3,0.9c-1.7,1.2-3.6,1.9-5.6,2.3
								l-2.5,0.4c-5.3,0.9-9.6,4.8-11.1,9.9h47.5l-1.3-8.6H492.4z"/>
						</g>
						<polygon class="st3" points="493.5,407.5 511.5,407.5 511.5,413.8 493.5,409.5 						"/>
					</g>
				</g>
			</g>
			<g>
				<g>
					<polygon class="st3" points="658.5,352.5 663.4,352.5 664.7,364.2 659.5,361.4 					"/>
					<polygon class="st4" points="664.7,364.2 673,439.1 668.1,439.1 659.5,361.4 					"/>
				</g>
				<g>
					<polygon class="st4" points="626.9,362.9 635.3,439.1 630.4,439.1 621.6,360.1 					"/>
					<polygon class="st3" points="620.8,352.5 625.7,352.5 626.9,362.9 621.6,360.1 					"/>
				</g>
				<g>
					<polygon class="st3" points="610.8,352.5 615.7,352.5 614.5,363.2 609.9,360.7 					"/>
					<polygon class="st4" points="601.2,439.1 609.9,360.7 614.5,363.2 606.1,439.1 					"/>
				</g>
				<g>
					<polygon class="st3" points="570.3,352.5 575.2,352.5 574.1,362.5 569.4,360 					"/>
					<polygon class="st4" points="560.6,439.1 569.4,360 574.1,362.5 565.5,439.1 					"/>
				</g>
				<g>
					<path class="st5" d="M691.6,207.8V200h-16.8h0c-19.8,0-36.9,14-40.7,33.5l-16.8,85.3c-1.5,7.5-8.1,12.9-15.7,12.9h-21.5
						c-11.5,0-20.7,9.3-20.7,20.8l0,0h93.3c11,0,20.4-7.8,22.6-18.6l21.2-107.7C697.7,219.3,695.7,212.6,691.6,207.8z"/>
					<path class="st6" d="M692,333.9l21.2-107.7c2.7-13.6-7.7-26.2-21.6-26.2h0c-19.8,0-36.9,14-40.7,33.5l-19.8,100.4
						c-2.1,10.8-11.6,18.6-22.6,18.6h-0.8h61.7C680.4,352.5,689.9,344.7,692,333.9z"/>
				</g>
			</g>
		</g>
	</g>
</g>
</svg>
