<?xml version="1.0" encoding="utf-8"?>
<!-- Generator: Adobe Illustrator 21.0.2, SVG Export Plug-In . SVG Version: 6.00 Build 0)  -->
<svg version="1.1" xmlns="http://www.w3.org/2000/svg" xmlns:xlink="http://www.w3.org/1999/xlink" x="0px" y="0px"
	 viewBox="0 0 3710 3710" style="enable-background:new 0 0 3710 3710;" xml:space="preserve">
<style type="text/css">
	.st0{display:none;}
	.st1{display:inline;}
	.st2{fill:#FFFFFF;}
	.st3{fill:#F4F7FA;}
	.st4{fill:url(#SVGID_1_);}
	.st5{fill:url(#SVGID_2_);}
	.st6{fill:url(#SVGID_3_);}
	.st7{opacity:0.2;fill:url(#SVGID_4_);}
	.st8{opacity:0.3;fill:#FFFFFF;}
	.st9{fill:url(#SVGID_5_);}
	.st10{fill:url(#SVGID_6_);}
	.st11{fill:url(#SVGID_7_);}
	.st12{opacity:0.2;fill:#B7C0CE;}
	.st13{fill:url(#SVGID_8_);}
	.st14{opacity:0.3;fill:url(#SVGID_9_);}
	.st15{fill:#D8DEE8;}
	.st16{fill:url(#SVGID_10_);}
	.st17{opacity:0.74;fill:#FFFFFF;}
	.st18{fill:url(#SVGID_11_);}
	.st19{opacity:0.5;}
	.st20{fill:url(#SVGID_12_);}
	.st21{fill:url(#SVGID_13_);}
	.st22{fill:url(#SVGID_14_);}
	.st23{fill:url(#SVGID_15_);}
	.st24{fill:url(#SVGID_16_);}
	.st25{fill:url(#SVGID_17_);}
	.st26{opacity:0.3;}
	.st27{fill:url(#SVGID_18_);}
	.st28{fill:url(#SVGID_19_);}
	.st29{fill:url(#SVGID_20_);}
	.st30{fill:url(#SVGID_21_);}
	.st31{fill:url(#SVGID_22_);}
	.st32{fill:url(#SVGID_23_);}
	.st33{fill:url(#SVGID_24_);}
	.st34{opacity:0.3;fill:url(#SVGID_25_);}
	.st35{fill:url(#SVGID_26_);}
	.st36{fill:url(#SVGID_27_);}
	.st37{fill:url(#SVGID_28_);}
	.st38{fill:url(#SVGID_29_);}
	.st39{fill:url(#SVGID_30_);}
	.st40{fill:url(#SVGID_31_);}
	.st41{fill:url(#SVGID_32_);}
	.st42{fill:url(#SVGID_33_);}
	.st43{fill:url(#SVGID_34_);}
	.st44{fill:url(#SVGID_35_);}
	.st45{fill:url(#SVGID_36_);}
	.st46{fill:url(#SVGID_37_);}
	.st47{fill:url(#SVGID_38_);}
	.st48{opacity:0.3;fill:url(#SVGID_39_);}
	.st49{fill:url(#SVGID_40_);}
	.st50{fill:url(#SVGID_41_);}
	.st51{fill:url(#SVGID_42_);}
	.st52{fill:url(#SVGID_43_);}
	.st53{fill:url(#SVGID_44_);}
	.st54{opacity:0.3;fill:url(#SVGID_45_);}
	.st55{fill:url(#SVGID_46_);}
	.st56{fill:url(#SVGID_47_);}
	.st57{fill:url(#SVGID_48_);}
	.st58{fill:url(#SVGID_49_);}
	.st59{opacity:0.5;fill:url(#SVGID_50_);}
	.st60{fill:url(#SVGID_51_);}
	.st61{fill:url(#SVGID_52_);}
	.st62{fill:url(#SVGID_53_);}
	.st63{fill:url(#SVGID_54_);}
	.st64{fill:url(#SVGID_55_);}
	.st65{fill:url(#SVGID_56_);}
	.st66{opacity:0.3;fill:url(#SVGID_57_);}
	.st67{fill:url(#SVGID_58_);}
	.st68{fill:url(#SVGID_59_);}
	.st69{fill:url(#SVGID_60_);}
	.st70{fill:url(#SVGID_61_);}
	.st71{fill:url(#SVGID_62_);}
	.st72{fill:url(#SVGID_63_);}
	.st73{fill:url(#SVGID_64_);}
	.st74{opacity:0.3;fill:url(#SVGID_65_);}
	.st75{fill:url(#SVGID_66_);}
	.st76{fill:url(#SVGID_67_);}
	.st77{fill:url(#SVGID_68_);}
	.st78{opacity:0.2;}
	.st79{fill:url(#SVGID_69_);}
	.st80{fill:url(#SVGID_70_);}
	.st81{fill:url(#SVGID_71_);}
	.st82{fill:url(#SVGID_72_);}
	.st83{fill:url(#SVGID_73_);}
	.st84{fill:url(#SVGID_74_);}
	.st85{fill:url(#SVGID_75_);}
</style>
<g id="Background" class="st0">
	<g class="st1">
		<g>
			<rect class="st2" width="3710" height="3710"/>
		</g>
	</g>
</g>
<g id="Illustration">
	<g>
		<path class="st3" d="M3221.4,1651C3145.1,1151.4,2832.2,537.7,2214,473.5c0,0-469.4-57.1-932,29.4
			c-274.6,51.4-515.4,204.2-667.7,423.9c-152.4,219.7-203.3,487.6-141.5,743c40.1,165.9,67.2,337.6,59.8,508
			c-12.9,296.7-5.5,573.6,282.4,750.5c257.1,158,580.6,297.3,889.3,321.7c209.8,16.6,445-10.3,647.2-64.9
			C3381.7,2907,3297.8,2150.5,3221.4,1651z"/>
		<g>
			<g>
				<linearGradient id="SVGID_1_" gradientUnits="userSpaceOnUse" x1="813.368" y1="1544.8842" x2="863.6186" y2="661.9047">
					<stop  offset="0" style="stop-color:#FFC444"/>
					<stop  offset="0.9964" style="stop-color:#F36F56"/>
				</linearGradient>
				<polygon class="st4" points="852.1,644.4 880.8,591 897.8,649.2 937,603 941.5,663.4 989.4,626.3 981.2,686.4 1035.8,660 
					1015.3,717.1 1074.2,702.7 1042.3,754.3 1102.9,752.4 1061,796.2 1120.7,807 1070.6,841.1 1126.7,864.1 1070.6,887 
					1120.7,921.2 1061,932 1102.9,975.8 1042.3,973.9 1074.2,1025.5 1015.3,1011.1 1035.8,1068.1 981.2,1041.8 989.4,1101.9 
					941.5,1064.7 937,1125.2 897.8,1078.9 880.8,1137.1 852.1,1083.7 823.4,1137.1 806.4,1078.9 767.3,1125.2 762.8,1064.7 
					714.8,1101.9 723,1041.8 668.4,1068.1 688.9,1011.1 630,1025.5 661.9,973.9 601.3,975.8 643.2,932 583.5,921.2 633.7,887 
					577.5,864.1 633.7,841.1 583.5,807 643.2,796.2 601.3,752.4 661.9,754.3 630,702.7 688.9,717.1 668.4,660 723,686.4 
					714.8,626.3 762.8,663.4 767.3,603 806.4,649.2 823.4,591 				"/>
				
					<linearGradient id="SVGID_2_" gradientUnits="userSpaceOnUse" x1="831.175" y1="1493.8895" x2="877.6143" y2="677.8806" gradientTransform="matrix(1 5.600000e-03 -5.600000e-03 1 -10.0259 -5.4965)">
					<stop  offset="0" style="stop-color:#FFC444"/>
					<stop  offset="0.9964" style="stop-color:#F36F56"/>
				</linearGradient>
				<polygon class="st5" points="1051,905.9 1104.8,890 1055.3,863.6 1104.6,836.9 1050.8,821.4 1093.5,785 1037.5,781 
					1071.8,736.6 1016.2,744.3 1040.5,693.7 987.7,712.8 1000.9,658.2 953.3,687.9 954.9,631.8 914.4,670.7 904.3,615.5 872.9,662 
					851.5,610.1 830.4,662.1 798.7,615.8 788.9,671 748.3,632.3 750.1,688.4 702.3,659 715.8,713.4 663,694.6 687.4,745 
					631.9,737.6 666.3,781.9 610.4,786.2 653.3,822.3 599.5,838.1 648.9,864.6 599.6,891.2 653.5,906.8 610.7,943.1 666.7,947.2 
					632.5,991.6 688,983.9 663.8,1034.5 716.5,1015.4 703.3,1069.9 750.9,1040.3 749.4,1096.4 789.8,1057.5 799.9,1112.6 
					831.4,1066.2 852.7,1118.1 873.8,1066.1 905.5,1112.4 915.4,1057.2 956,1095.9 954.1,1039.8 1001.9,1069.2 988.4,1014.8 
					1041.3,1033.6 1016.8,983.1 1072.4,990.6 1037.9,946.3 1093.9,942 				"/>
			</g>
			<g>
				<linearGradient id="SVGID_3_" gradientUnits="userSpaceOnUse" x1="998.3632" y1="505.0981" x2="682.4724" y2="1280.4681">
					<stop  offset="0" style="stop-color:#FCB148"/>
					<stop  offset="5.207239e-02" style="stop-color:#FDBA46"/>
					<stop  offset="0.1424" style="stop-color:#FFC244"/>
					<stop  offset="0.3183" style="stop-color:#FFC444"/>
					<stop  offset="0.4849" style="stop-color:#FDB946"/>
					<stop  offset="0.7754" style="stop-color:#F99C4D"/>
					<stop  offset="0.8658" style="stop-color:#F8924F"/>
					<stop  offset="1" style="stop-color:#F8924F"/>
				</linearGradient>
				<path class="st6" d="M1071.1,864.1c0,112-84.1,204.4-192.7,217.4c-8.6,1-17.4,1.6-26.3,1.6c-120.9,0-218.9-98-218.9-218.9
					c0-55.1,20.3-105.4,53.9-143.9c40.1-46,99.2-75.1,165-75.1C973,645.1,1071.1,743.2,1071.1,864.1z"/>
				<linearGradient id="SVGID_4_" gradientUnits="userSpaceOnUse" x1="633.1741" y1="901.6221" x2="958.5368" y2="901.6221">
					<stop  offset="0" style="stop-color:#FCB148"/>
					<stop  offset="5.207239e-02" style="stop-color:#FDBA46"/>
					<stop  offset="0.1424" style="stop-color:#FFC244"/>
					<stop  offset="0.3183" style="stop-color:#FFC444"/>
					<stop  offset="0.4849" style="stop-color:#FDB946"/>
					<stop  offset="0.7754" style="stop-color:#F99C4D"/>
					<stop  offset="0.8658" style="stop-color:#F8924F"/>
					<stop  offset="1" style="stop-color:#F8924F"/>
				</linearGradient>
				<path class="st7" d="M952.6,993.2c-11.1,30.9-37.1,61.2-74.2,88.3c-8.6,1-17.4,1.6-26.3,1.6c-120.9,0-218.9-98-218.9-218.9
					c0-55.1,20.3-105.4,53.9-143.9c1.7,15.9,9.9,33.7,29.7,51.9c20.2,18.6,52.7,37.8,102.8,56C939.3,871.5,974,933.3,952.6,993.2z"
					/>
				<circle class="st8" cx="852.1" cy="864.1" r="163.6"/>
			</g>
		</g>
		<g>
			<linearGradient id="SVGID_5_" gradientUnits="userSpaceOnUse" x1="1659.5111" y1="2988.7249" x2="1467.1727" y2="3069.5068">
				<stop  offset="0" style="stop-color:#40447E"/>
				<stop  offset="0.9964" style="stop-color:#3C3B6B"/>
			</linearGradient>
			<path class="st9" d="M3240.9,2883.3l-2737.8-24.1v71.2c0,19.3,11.9,35.8,28.1,38.7l774.2,140.2c9.2,1.7,18.5,2.1,27.8,1.3
				l1878-159.9c16.8-1.4,29.8-17.9,29.8-37.8V2883.3z"/>
			<g>
				<linearGradient id="SVGID_6_" gradientUnits="userSpaceOnUse" x1="1346.5648" y1="2133.6663" x2="1147.1417" y2="2217.4241">
					<stop  offset="0" style="stop-color:#40447E"/>
					<stop  offset="0.9964" style="stop-color:#3C3B6B"/>
				</linearGradient>
				<path class="st10" d="M2247.4,2767.9L531.5,2898.1c-30.7,2.3-55.7-22.4-55.7-55.3V1525.2c0-32.9,25-59.5,55.7-59.5h1715.9
					c25.3,0,45.7,24.1,45.7,53.8v1191.1C2293.1,2740.3,2272.7,2765.9,2247.4,2767.9z"/>
				<linearGradient id="SVGID_7_" gradientUnits="userSpaceOnUse" x1="503.1507" y1="2181.9487" x2="2320.4939" y2="2181.9487">
					<stop  offset="0" style="stop-color:#40447E"/>
					<stop  offset="0.9964" style="stop-color:#3C3B6B"/>
				</linearGradient>
				<path class="st11" d="M2274.7,2767.9L558.8,2898.1c-30.7,2.3-55.7-22.4-55.7-55.3V1525.2c0-32.9,25-59.5,55.7-59.5h1715.9
					c25.3,0,45.8,24.1,45.8,53.8v1191.1C2320.5,2740.3,2300,2765.9,2274.7,2767.9z"/>
				<path class="st2" d="M2221.3,2683.9L623.1,2797c-25,1.8-45.3-18.6-45.3-45.4V1598.1c0-26.8,20.3-48.7,45.3-48.8l1598.2-7.1
					c20.9-0.1,37.7,19.7,37.7,44.1v1050.7C2259,2661.4,2242.2,2682.4,2221.3,2683.9z"/>
				<path class="st2" d="M1477.4,1501.7c0,12.2-8.8,22.2-19.7,22.2c-10.9,0-19.8-9.9-19.8-22.2c0-12.3,8.9-22.2,19.8-22.2
					C1468.6,1479.5,1477.4,1489.4,1477.4,1501.7z"/>
				<path class="st12" d="M1861.3,2406.5c-132.3-76.4-236.3,20.4-336.7-75.2c-60.9-57.9-31-101.2-105.9-187.7
					c-82.9-95.9-136.9-63.7-220.3-150c-105.4-109.1-52.7-194.1-143.5-272.4c-110.1-95.1-228.9-7.1-333.7-98.2
					c-45.2-39.3-70-96.5-83-157.3H535.7c-18,0-32.6,15.6-32.6,35v1365.8c0,19.3,14.6,33.8,32.6,32.5l1748.8-133.3
					c8.6-0.7,16.2-6,21.1-13.8c-128-5-206.7-51.1-256.9-98.8C1950.3,2559.7,1967.4,2467.8,1861.3,2406.5z"/>
			</g>
			<linearGradient id="SVGID_8_" gradientUnits="userSpaceOnUse" x1="503.1507" y1="2903.8052" x2="3240.9036" y2="2903.8052">
				<stop  offset="0" style="stop-color:#40447E"/>
				<stop  offset="0.9964" style="stop-color:#3C3B6B"/>
			</linearGradient>
			<path class="st13" d="M2343.1,2762l-1840,137.1l802.3,145.3c9.2,1.7,18.5,2.1,27.8,1.3l1907.7-162.4l-868.5-120.4
				C2362.7,2761.5,2352.9,2761.2,2343.1,2762z"/>
			<linearGradient id="SVGID_9_" gradientUnits="userSpaceOnUse" x1="771.6333" y1="2881.167" x2="2777.5676" y2="2881.167">
				<stop  offset="0" style="stop-color:#40447E"/>
				<stop  offset="0.9964" style="stop-color:#3C3B6B"/>
			</linearGradient>
			<polygon class="st14" points="771.6,2902.5 2303.5,2786.7 2777.6,2851.8 1258.9,2975.7 			"/>
			<g>
				<polygon class="st15" points="903.9,1639.8 727.9,1640.4 727.9,1583.5 903.9,1583.5 				"/>
				<polygon class="st15" points="1826,1636.6 1015.7,1639.4 1015.7,1583.5 1826,1583.5 				"/>
				<polygon class="st15" points="1185.5,1733.4 1015.7,1735 1015.7,1679.1 1185.5,1678 				"/>
				<polygon class="st15" points="2076.6,1725 1293.4,1732.4 1293.4,1677.4 2076.6,1672.7 				"/>
				<polygon class="st15" points="1185.5,1828 1015.7,1830.6 1015.7,1774.6 1185.5,1772.6 				"/>
				<polygon class="st15" points="2076.6,1814.2 1293.4,1826.3 1293.4,1771.3 2076.6,1762 				"/>
				<polygon class="st15" points="903.9,1928.5 727.9,1932.3 727.9,1875.3 903.9,1872.2 				"/>
				<polygon class="st15" points="1826,1908.8 1015.7,1926.1 1015.7,1870.2 1826,1855.7 				"/>
				<polygon class="st15" points="1185.5,2017.1 1015.7,2021.7 1015.7,1965.8 1185.5,1961.7 				"/>
				<polygon class="st15" points="2076.6,1992.7 1293.4,2014.1 1293.4,1959.1 2076.6,1940.4 				"/>
				<polygon class="st15" points="1185.5,2111.6 1015.7,2117.3 1015.7,2061.3 1185.5,2056.3 				"/>
				<polygon class="st15" points="2076.6,2081.9 1293.4,2108 1293.4,2053 2076.6,2029.7 				"/>
				<polygon class="st15" points="1185.5,2206.2 1015.7,2212.8 1015.7,2156.9 1185.5,2150.8 				"/>
				<polygon class="st15" points="2076.6,2171.2 1293.4,2201.9 1293.4,2147 2076.6,2118.9 				"/>
				<polygon class="st15" points="1460,2288.3 1296,2295.7 1296,2240.8 1460,2233.9 				"/>
				<polygon class="st15" points="2196.2,2255 1564.3,2283.6 1564.3,2229.6 2196.2,2203.2 				"/>
				<polygon class="st15" points="903.9,2409.7 727.9,2418.7 727.9,2361.8 903.9,2353.4 				"/>
				<polygon class="st15" points="1826,2362.5 1015.7,2404 1015.7,2348 1826,2309.4 				"/>
				<polygon class="st15" points="1185.5,2489.8 1015.7,2499.5 1015.7,2443.6 1185.5,2434.5 				"/>
				<polygon class="st15" points="2076.6,2438.9 1293.4,2483.7 1293.4,2428.7 2076.6,2386.7 				"/>
				<polygon class="st15" points="1185.5,2584.4 1015.7,2595.1 1015.7,2539.2 1185.5,2529 				"/>
				<polygon class="st15" points="2076.6,2528.1 1293.4,2577.6 1293.4,2522.6 2076.6,2475.9 				"/>
				<polygon class="st15" points="903.9,2698.4 727.9,2710.6 727.9,2653.6 903.9,2642.1 				"/>
				<polygon class="st15" points="1826,2634.7 1015.7,2690.7 1015.7,2634.7 1826,2581.6 				"/>
			</g>
		</g>
		<g>
			<linearGradient id="SVGID_10_" gradientUnits="userSpaceOnUse" x1="2303.0125" y1="541.7468" x2="768.5316" y2="3610.7019">
				<stop  offset="3.597120e-03" style="stop-color:#E38DDD"/>
				<stop  offset="1" style="stop-color:#9571F6"/>
			</linearGradient>
			<path class="st16" d="M2488.6,901.6L1072.7,855c-47.5-1.6-86.1,35.9-86.1,83.7v1380c0,47.8,38.7,84.8,86.1,82.8l1415.9-60.5
				c41-1.7,74-38.9,74-83V983.9C2562.6,939.8,2529.6,902.9,2488.6,901.6z"/>
			<path class="st17" d="M1072.7,2374c-32.3,1.3-58.6-23.9-58.6-56.4V939.5c0-32.5,26.3-58,58.6-57l1415.9,44.6
				c27.9,0.9,50.5,26,50.5,56v1275.8c0,30.1-22.6,55.4-50.5,56.5L1072.7,2374z"/>
			<linearGradient id="SVGID_11_" gradientUnits="userSpaceOnUse" x1="1639.3457" y1="445.9034" x2="1905.9672" y2="1512.3923">
				<stop  offset="3.597120e-03" style="stop-color:#E38DDD"/>
				<stop  offset="1" style="stop-color:#9571F6"/>
			</linearGradient>
			<path class="st18" d="M2488.6,901.6L1072.7,855c-47.5-1.6-86.1,35.9-86.1,83.7v62l1576,40.4v-57.3
				C2562.6,939.8,2529.6,902.9,2488.6,901.6z"/>
			<path class="st2" d="M1139.7,934.8c0,15.5-12.5,27.8-27.9,27.3c-15.5-0.4-28-13.4-28-28.9c0-15.6,12.5-27.8,28-27.3
				C1127.2,906.3,1139.7,919.3,1139.7,934.8z"/>
			<path class="st2" d="M1237.2,937.6c0,15.4-12.4,27.6-27.7,27.2c-15.3-0.4-27.7-13.3-27.7-28.8s12.4-27.7,27.7-27.2
				C1224.8,909.3,1237.2,922.2,1237.2,937.6z"/>
			<path class="st2" d="M1333.8,940.4c0,15.4-12.3,27.5-27.4,27.1c-15.2-0.4-27.5-13.3-27.5-28.7c0-15.4,12.3-27.5,27.5-27.1
				C1321.5,912.2,1333.8,925,1333.8,940.4z"/>
			<g>
				<polygon class="st2" points="1834.8,1173.4 1087,1160 1087,1203.9 1834.8,1215.8 				"/>
				<polygon class="st2" points="2397.1,1183.5 2397.1,1224.7 2476.2,1225.9 2476.2,1184.9 				"/>
			</g>
			<g>
				<polygon class="st2" points="1245.1,1311.5 1087,1309.8 1087,1264.5 1245.1,1266.5 				"/>
				<polygon class="st2" points="2089.7,1320.5 1346,1312.6 1346,1267.8 2089.7,1277.4 				"/>
				<polygon class="st2" points="1500.2,1390.1 1346,1389.1 1346,1344.3 1500.2,1345.7 				"/>
				<polygon class="st2" points="2324.2,1395.8 1598.6,1390.8 1598.6,1346.6 2324.2,1353.2 				"/>
				<polygon class="st2" points="1500.2,1466 1346,1465.5 1346,1420.8 1500.2,1421.6 				"/>
				<polygon class="st2" points="2324.2,1468.5 1598.6,1466.3 1598.6,1422.1 2324.2,1425.9 				"/>
				<polygon class="st2" points="1245.1,1542.1 1087,1542.2 1087,1496.8 1245.1,1497.1 				"/>
				<polygon class="st2" points="2089.7,1541.5 1346,1542 1346,1497.2 2089.7,1498.4 				"/>
				<polygon class="st2" points="1500.2,1617.8 1346,1618.5 1346,1573.7 1500.2,1573.4 				"/>
				<polygon class="st2" points="2324.2,1614.1 1598.6,1617.3 1598.6,1573.1 2324.2,1571.5 				"/>
				<polygon class="st2" points="1500.2,1693.7 1346,1695 1346,1650.2 1500.2,1649.2 				"/>
				<polygon class="st2" points="2324.2,1686.8 1598.6,1692.9 1598.6,1648.7 2324.2,1644.2 				"/>
				<polygon class="st2" points="1500.2,1769.6 1346,1771.4 1346,1726.7 1500.2,1725.1 				"/>
				<polygon class="st2" points="2324.2,1759.6 1598.6,1768.4 1598.6,1724.2 2324.2,1717 				"/>
				<polygon class="st2" points="1751.2,1841.5 1601,1843.9 1601,1799.7 1751.2,1797.6 				"/>
				<polygon class="st2" points="2436.7,1830.6 1847.2,1840 1847.2,1796.3 2436.7,1788.2 				"/>
				<polygon class="st2" points="1245.1,1926.4 1087,1929.5 1087,1884.1 1245.1,1881.4 				"/>
				<polygon class="st2" points="2089.7,1909.8 1346,1924.4 1346,1879.6 2089.7,1866.6 				"/>
				<polygon class="st2" points="1500.2,1997.2 1346,2000.9 1346,1956.1 1500.2,1952.8 				"/>
				<polygon class="st2" points="2324.2,1977.9 1598.6,1994.9 1598.6,1950.7 2324.2,1935.3 				"/>
				<polygon class="st2" points="1500.2,2073.1 1346,2077.3 1346,2032.6 1500.2,2028.7 				"/>
				<polygon class="st2" points="2324.2,2050.7 1598.6,2070.5 1598.6,2026.2 2324.2,2008.1 				"/>
				<polygon class="st2" points="1245.1,2156.9 1087,2161.8 1087,2116.5 1245.1,2111.9 				"/>
				<polygon class="st2" points="2089.7,2130.7 1346,2153.8 1346,2109 2089.7,2087.6 				"/>
				<polygon class="st2" points="1500.2,2224.9 1346,2230.3 1346,2185.5 1500.2,2180.5 				"/>
				<polygon class="st2" points="2324.2,2196.2 1598.6,2221.5 1598.6,2177.3 2324.2,2153.6 				"/>
			</g>
			<g class="st19">
				<path class="st2" d="M1938.2,1432.1c-165.4-240.6-451.6-164.1-632.7-430c-32.7-47.9-54.8-96.7-70-141.7l-162.8-5.4
					c-47.5-1.6-86.1,35.9-86.1,83.7v1380c0,47.8,38.7,84.8,86.1,82.8l1364-58.2c-31.2-45.1-303.4-212-373.7-468.3
					C1998.7,1640.6,2038,1577.3,1938.2,1432.1z"/>
			</g>
		</g>
		<g>
			
				<linearGradient id="SVGID_12_" gradientUnits="userSpaceOnUse" x1="-1814.3729" y1="1493.9232" x2="-2144.5237" y2="3076.832" gradientTransform="matrix(1 0 0 1 3148.573 0)">
				<stop  offset="0" style="stop-color:#FF9085"/>
				<stop  offset="1" style="stop-color:#FB6FBB"/>
			</linearGradient>
			<path class="st20" d="M1407.9,1947.7c28.7-30.7-50.8-145.9-93.4-196.4c-37.2-44.1-75.4-89.4-122.3-83.7
				c-41.2,5-81.3,48.5-83.7,90.1C1102.1,1869.8,1367.1,1991.3,1407.9,1947.7z"/>
			
				<linearGradient id="SVGID_13_" gradientUnits="userSpaceOnUse" x1="4290.0024" y1="3060.3406" x2="4388.877" y2="3060.3406" gradientTransform="matrix(-0.9996 2.890000e-02 2.890000e-02 0.9996 5354.2485 -31.2392)">
				<stop  offset="0" style="stop-color:#444B8C"/>
				<stop  offset="0.9964" style="stop-color:#26264F"/>
			</linearGradient>
			<path class="st21" d="M1063,3131.6c-5.4,4.4-6.4,15.4-7.1,22.5c-0.3,3.2-0.4,4.8-0.1,5.9c2.6,8.3,18.6,9.1,43.7,11.7
				c39.7,4.1,51.5,7.2,54.6,1.3c2.9-5.5-4.1-14.6-4.9-15.6c-4.3-5.4-9.5-7.3-19.6-10.7c-18.7-6.2-31.4-9.5-35.2-10.6
				C1070.6,3129.9,1066.6,3128.7,1063,3131.6z"/>
			<path class="st15" d="M1086.6,3095.4l4,45.2c-1.1,2.2-14.6,8.7-25.2,3.1l-10.2-44.4L1086.6,3095.4z"/>
			
				<linearGradient id="SVGID_14_" gradientUnits="userSpaceOnUse" x1="4638.0957" y1="2285.833" x2="4743.1436" y2="2285.833" gradientTransform="matrix(-0.9642 0.2651 0.2651 0.9642 5341.4233 -308.9189)">
				<stop  offset="0" style="stop-color:#444B8C"/>
				<stop  offset="0.9964" style="stop-color:#26264F"/>
			</linearGradient>
			<path class="st22" d="M1377.7,3125.8c-6.5,7.2-8,20.3-2.3,26.8c5.5,6.4,13.9,1.6,37.5,2.3c25.3,0.8,31.9,6.7,49.1,2
				c6.9-1.9,19.2-6.6,19-11.5c-0.2-3.5-6.4-5.3-27.3-12.3c-29.6-9.9-29.5-10.5-35.8-11.5C1402.1,3119,1386.3,3116.4,1377.7,3125.8z"
				/>
			<path class="st15" d="M1393.9,3084.6l12.7,42.2c-1,2.3-13.9,9.8-24.9,5l-18.8-41L1393.9,3084.6z"/>
			
				<linearGradient id="SVGID_15_" gradientUnits="userSpaceOnUse" x1="-1707.7316" y1="2953.6572" x2="-1987.9135" y2="2322.0603" gradientTransform="matrix(1 0 0 1 3148.573 0)">
				<stop  offset="0" style="stop-color:#AA80F9"/>
				<stop  offset="0.9964" style="stop-color:#6165D7"/>
			</linearGradient>
			<path class="st23" d="M1281.2,2160c1.8,141.9,11.5,301.4,34.7,474.7c23,171.3,55.1,326.1,90.2,462.2
				c-16.2,4.4-32.4,8.7-48.6,13.1c-41.1-38.3-92.9-98.6-117.9-183.8c-15.5-52.9-10.3-80.1-20.2-145.1
				c-15.7-103.6-47.4-157.8-80.2-241.4c-29.5-75.1-64.3-185.2-83-332.4C1131.2,2191.5,1206.2,2175.7,1281.2,2160z"/>
			
				<linearGradient id="SVGID_16_" gradientUnits="userSpaceOnUse" x1="-2265.9761" y1="2617.5049" x2="-2546.1531" y2="1985.9192" gradientTransform="matrix(0.9925 -0.1225 0.1225 0.9925 3231.5779 108.1241)">
				<stop  offset="0" style="stop-color:#AA80F9"/>
				<stop  offset="0.9964" style="stop-color:#6165D7"/>
			</linearGradient>
			<path class="st24" d="M1135,2146.5c-9.9,180.4-18.1,364.2-24.2,551.3c-4.6,140.4-8,278.9-10.3,415.7c-16.5,2-33.1,4.1-49.6,6.1
				c-16-29.8-37.2-75.2-51.7-133.6c-17.7-70.8-13.6-112.9-21.3-186.3c-8.7-82.3-21.3-100.3-43.7-204.1
				c-45.4-210.7-68.1-316.1-17.5-381.7C933.1,2192.7,984.6,2139.3,1135,2146.5z"/>
			
				<linearGradient id="SVGID_17_" gradientUnits="userSpaceOnUse" x1="-1928.6884" y1="1470.08" x2="-2258.8384" y2="3052.9854" gradientTransform="matrix(1 0 0 1 3148.573 0)">
				<stop  offset="0" style="stop-color:#FF9085"/>
				<stop  offset="1" style="stop-color:#FB6FBB"/>
			</linearGradient>
			<path class="st25" d="M894,1693c38.7-10.9,95.5-23.6,165-27.6c99.2-5.6,148.7-8.4,183.9,15.2c81.1,54.5,18.3,180.4,51.5,492.4
				c4.7,44.6,5.8,89.4,9.2,134.1c5.7,74,7,78,1.8,85.5c-32.3,47-152.7-23.9-329.2,4.1c-98.8,15.7-143.6,51.8-170.6,25.8
				c-31.6-30.4-4.5-112.1,18.8-182.5c26.7-80.8,43.3-81.8,58.4-142.6c15.9-63.6,6.3-96.3,3.8-196.6
				C885.5,1852.9,885.8,1781.5,894,1693z"/>
			<g class="st26">
				
					<linearGradient id="SVGID_18_" gradientUnits="userSpaceOnUse" x1="-2212.615" y1="2823.8384" x2="-2087.3157" y2="2228.6682" gradientTransform="matrix(1 0 0 1 3148.573 0)">
					<stop  offset="0" style="stop-color:#FF9085"/>
					<stop  offset="1" style="stop-color:#FB6FBB"/>
				</linearGradient>
				<path class="st27" d="M1134,2278.8c-46.1-3.6-76.1,22.5-115.9,2.1c-54.6-27.9-72.2-114.6-68.7-176
					c5.3-93.3,58.5-117.8,49.4-178.1c-5-32.6-28.2-75.9-111.8-120.1c-1.1,37.2-0.9,68.9-0.3,94.1c2.5,100.3,12.1,133-3.8,196.6
					c-15.2,60.8-31.7,61.9-58.4,142.6c-23.3,70.4-50.4,152.1-18.8,182.5c27.1,26.1,71.8-10.1,170.6-25.8
					c152.1-24.2,262.5,25.1,310.8,9.1C1228.7,2309.5,1175.7,2282,1134,2278.8z"/>
			</g>
			
				<linearGradient id="SVGID_19_" gradientUnits="userSpaceOnUse" x1="-2154.8538" y1="1422.9084" x2="-2485.0037" y2="3005.8147" gradientTransform="matrix(1 0 0 1 3148.573 0)">
				<stop  offset="0" style="stop-color:#FF9085"/>
				<stop  offset="1" style="stop-color:#FB6FBB"/>
			</linearGradient>
			<path class="st28" d="M956.9,1699.4c-32.9-27.1-99.2,3.6-116.9,11.8c-98.8,45.7-187.4,168.8-165.5,298.9
				c3.3,19.5,18.6,110.8,95.8,155c69.7,39.9,163.9,29.6,239.3-26.9c10.3-9.1,20.6-18.3,30.9-27.4c10.1-11,20.3-21.9,30.4-32.9
				c-15.9-13.3-43-32.4-81.1-44.7c-50.2-16.2-86.7,12.9-109.9-9.2c-16.1-15.2-16.1-42.2-12.1-58.5c8-32.9,37-42.1,61.2-65.5
				C985.9,1845.2,996.3,1731.8,956.9,1699.4z"/>
			<g>
				
					<linearGradient id="SVGID_20_" gradientUnits="userSpaceOnUse" x1="-1873.3837" y1="2306.6396" x2="-1926.808" y2="2155.2705" gradientTransform="matrix(1 0 0 1 3148.573 0)">
					<stop  offset="0" style="stop-color:#311944"/>
					<stop  offset="1" style="stop-color:#893976"/>
				</linearGradient>
				<polygon class="st29" points="1430.4,2124.1 988.8,2117.5 1106.2,2174.1 1431.5,2152.8 				"/>
				
					<linearGradient id="SVGID_21_" gradientUnits="userSpaceOnUse" x1="-2106.771" y1="2087.3289" x2="-2087.1821" y2="2222.6711" gradientTransform="matrix(1 0 0 1 3148.573 0)">
					<stop  offset="0" style="stop-color:#311944"/>
					<stop  offset="1" style="stop-color:#893976"/>
				</linearGradient>
				<path class="st30" d="M973.2,2129.2L973.2,2129.2c0,8.3,5.2,15.6,12.9,18.5l141.1,55.3l0.6-38.4l-139.1-47.2
					C981,2115.2,973.2,2121.1,973.2,2129.2z"/>
			</g>
			<linearGradient id="SVGID_22_" gradientUnits="userSpaceOnUse" x1="1040.8793" y1="2108.5737" x2="1151.5908" y2="2108.5737">
				<stop  offset="0" style="stop-color:#FFC444"/>
				<stop  offset="0.9964" style="stop-color:#F36F56"/>
			</linearGradient>
			<path class="st31" d="M1041.2,2103.1c-2.7-0.6,13.2-32.3,25.7-28.7c12.5,3.7,73.6,39.1,79.2,53.7c5.6,14.6,5.6,14.6,5.6,14.6
				s-26.7,2.1-43.2-3.5C1091.9,2133.6,1063.2,2108,1041.2,2103.1z"/>
			<g>
				<g>
					
						<linearGradient id="SVGID_23_" gradientUnits="userSpaceOnUse" x1="-1718.6251" y1="2099.1829" x2="-1822.7833" y2="1951.2783" gradientTransform="matrix(1 0 0 1 3148.573 0)">
						<stop  offset="0" style="stop-color:#444B8C"/>
						<stop  offset="0.9964" style="stop-color:#26264F"/>
					</linearGradient>
					<path class="st32" d="M1139.6,1895.5l-31.1,283.4c-1.1,9.8,12.6,24.4,22.4,23.9l456.7-28c7.5-0.4,13.8-5.9,15-13.3l57.3-273.8
						c1.7-10-16.2-20.3-26.3-20l-478.6,13.5C1147.1,1881.5,1140.5,1887.6,1139.6,1895.5z"/>
					
						<linearGradient id="SVGID_24_" gradientUnits="userSpaceOnUse" x1="-1918.4193" y1="2343.9624" x2="-1690.474" y2="1880.9491" gradientTransform="matrix(1 0 0 1 3148.573 0)">
						<stop  offset="0" style="stop-color:#311944"/>
						<stop  offset="1" style="stop-color:#893976"/>
					</linearGradient>
					<path class="st33" d="M1150,1903.8l-31.1,283.4c-1.1,9.8,6.8,18.2,16.7,17.7l462.5-21.9c7.5-0.4,13.8-5.9,15-13.3l47.2-275
						c1.7-10-6.1-19-16.2-18.7l-478.6,13.5C1157.5,1889.8,1150.9,1895.9,1150,1903.8z"/>
				</g>
				
					<linearGradient id="SVGID_25_" gradientUnits="userSpaceOnUse" x1="-2029.7686" y1="2046.7852" x2="-1529.0048" y2="2046.7852" gradientTransform="matrix(1 0 0 1 3148.573 0)">
					<stop  offset="0" style="stop-color:#311944"/>
					<stop  offset="1" style="stop-color:#893976"/>
				</linearGradient>
				<path class="st34" d="M1421.6,2116.7c-40.4-17.1-26.1-49.8-73.8-90.4c-62.9-53.6-127-30.4-149.5-72c-7-13-10.3-33.1,1.8-65.7
					l-34.7,1c-8,0.2-14.6,6.3-15.5,14.3l-31.1,283.4c-1.1,9.8,6.8,18.2,16.7,17.7l462.5-21.9c7.5-0.4,13.8-5.9,15-13.3l6.5-37.9
					c-14-7.8-30.8-14.9-50.4-18.9C1501.4,2099.2,1468.1,2136.4,1421.6,2116.7z"/>
			</g>
			<linearGradient id="SVGID_26_" gradientUnits="userSpaceOnUse" x1="1552.6581" y1="2165.2056" x2="1627.3473" y2="2165.2056">
				<stop  offset="0" style="stop-color:#FFC444"/>
				<stop  offset="0.9964" style="stop-color:#F36F56"/>
			</linearGradient>
			<path class="st35" d="M1627.2,2143.4c0.8-2.3-0.8-4.6-3.2-4.8c-9.8-0.5-32.4-0.7-45,7c-16.3,10-37.3,28.1-19.6,37.3l16.5,8.6
				c0.8,0.4,1.6,0.5,2.4,0.3c5.9-1.3,30.6-6.8,33.3-8.1C1614.1,2182.5,1623.5,2154.5,1627.2,2143.4z"/>
			<g>
				<linearGradient id="SVGID_27_" gradientUnits="userSpaceOnUse" x1="1098.6676" y1="1493.3784" x2="1017.5488" y2="2009.4296">
					<stop  offset="0" style="stop-color:#FFC444"/>
					<stop  offset="0.9964" style="stop-color:#F36F56"/>
				</linearGradient>
				<path class="st36" d="M1066.4,1557.1c0.2,29.4-3,52.7-6.1,68.7c-3.6,18.3-6.1,23-9.4,26.9c-4.9,5.8-12.4,10.6-54.5,21.1
					c-22.9,5.7-25.9,5.5-26.4,7.8c-2.5,11.1,60,48.9,124.6,39.8c39.5-5.6,75.5-28.1,73.3-40c-2.2-11.9-41.7-5.5-53.5-27.1
					c-8.2-15,1-36.3,11.8-53.9C1115.8,1580.6,1076.9,1576.7,1066.4,1557.1z"/>
				<g>
					<linearGradient id="SVGID_28_" gradientUnits="userSpaceOnUse" x1="1036.4832" y1="1567.6151" x2="1146.8589" y2="1567.6151">
						<stop  offset="0" style="stop-color:#40447E"/>
						<stop  offset="0.9964" style="stop-color:#3C3B6B"/>
					</linearGradient>
					<path class="st37" d="M1139.8,1568.7c9.3-12.4,9.9-34-0.8-47.7c-9.2-11.8-23.8-13.4-32.5-14.5c-25.2-2.9-57.1,7.6-68.2,30.9
						c-6.6,13.8,7.6,42.4,9.9,47.5c2.5,5.8,7.1,7.8,11.3,12.2c5.9,6.1,15,15.8,30,32c1.2-4.8,2.9-10.7,5.7-17.1
						c1.1-2.5,5.4-12.1,12-20.1C1120.2,1575.9,1130.9,1580.4,1139.8,1568.7z"/>
					<linearGradient id="SVGID_29_" gradientUnits="userSpaceOnUse" x1="1095.7947" y1="1563.1394" x2="1097.5205" y2="1702.939">
						<stop  offset="0" style="stop-color:#FFC444"/>
						<stop  offset="0.9964" style="stop-color:#F36F56"/>
					</linearGradient>
					<path class="st38" d="M1068,1615.5c0,0,16.6,27.2,49.6,25.1c29.6-1.9,33.9-68.3,15-82.4c-6.3-4.7-18.9-6.6-29.2-3.8
						c-6.1,1.7-8.1,4.2-18.1,6.8c-9.2,2.4-11.8,1.4-14.6,3.7c-3.5,2.9-6,10.1-0.2,29.5c-5.6-5.7-12.4-7.9-17.2-5.6
						c-0.8,0.4-2.8,1.7-3.9,3.8C1045.3,1600.2,1052.2,1609.9,1068,1615.5z"/>
					<linearGradient id="SVGID_30_" gradientUnits="userSpaceOnUse" x1="1049.6937" y1="1604.26" x2="1145.0383" y2="1604.26">
						<stop  offset="0" style="stop-color:#40447E"/>
						<stop  offset="0.9964" style="stop-color:#3C3B6B"/>
					</linearGradient>
					<path class="st39" d="M1069.5,1561c1.4,1.1-2.9,6.4-3.3,13.9c-0.6,14.6,14.2,32.2,29.3,33.7c8.9,0.9,11.4-4.5,26.1-6.1
						c9.1-1,16.7,0.2,21.5,1.2c4.6,16,0.3,32-10.4,39.5c-11.5,8-26.3,3.1-32.5,1.1c-4.1-1.4-17.3-5.7-24.2-17.8
						c-7.2-12.6-0.1-20.2-8.4-28.8c-4.2-4.3-9.6-6.2-15-14.5c-1.4-2.3-2.4-4.3-3-5.6C1057.3,1569.6,1067.4,1559.5,1069.5,1561z"/>
					<linearGradient id="SVGID_31_" gradientUnits="userSpaceOnUse" x1="1113.818" y1="1613.3872" x2="1134.8718" y2="1613.3872">
						<stop  offset="0" style="stop-color:#FFC444"/>
						<stop  offset="0.9964" style="stop-color:#F36F56"/>
					</linearGradient>
					<path class="st40" d="M1132.5,1609.7c0,0-6.4,3.3-17.4,2.7c-0.5,0-1.1,0.1-1.2,0.4c-0.3,1,6.8,5.7,13.4,3.9
						c4.6-1.3,8.2-5.7,7.6-6.8C1134.5,1609.5,1133.5,1609.5,1132.5,1609.7z"/>
				</g>
			</g>
		</g>
		<g>
			
				<linearGradient id="SVGID_32_" gradientUnits="userSpaceOnUse" x1="3483.2109" y1="1925.2466" x2="3476.9666" y2="2033.8998" gradientTransform="matrix(-1 0 0 1 5935.2954 0)">
				<stop  offset="0" style="stop-color:#311944"/>
				<stop  offset="1" style="stop-color:#A03976"/>
			</linearGradient>
			<path class="st41" d="M2450.8,1962.2c0,0-11.6-11.4-10.4-22.2c1.2-10.8,21.2,19.8,28.1,25.9c6.9,6.1,8.6,6.1,6.1,21.8
				c-2.6,15.7,1.2,32.4,1.2,32.4c5.7,0.2-21.6,2.6-21.6,2.6s-0.8-12.8-3.7-16.5c-2.9-3.7-13.9-6.5-15.5-22.2
				C2433.3,1968.3,2450.8,1962.2,2450.8,1962.2z"/>
			
				<linearGradient id="SVGID_33_" gradientUnits="userSpaceOnUse" x1="3352.9856" y1="1928.0016" x2="3337.2817" y2="2201.2549" gradientTransform="matrix(-1 0 0 1 5935.2954 0)">
				<stop  offset="0" style="stop-color:#AA80F9"/>
				<stop  offset="0.9964" style="stop-color:#6165D7"/>
			</linearGradient>
			<path class="st42" d="M2694.1,1951.5c0,0-69.6,23.9-111.2,118.1c-41.6,94.2-102.9-59.1-102.9-59.1l-34.5,4.9
				c0,0,13.9,155.2,118,158.4c91.3,2.8,140.8-75.9,163.8-189.8L2694.1,1951.5z"/>
			
				<linearGradient id="SVGID_34_" gradientUnits="userSpaceOnUse" x1="3010.5374" y1="2495.1462" x2="2817.6292" y2="2593.2212" gradientTransform="matrix(-1 0 0 1 5935.2954 0)">
				<stop  offset="3.597120e-03" style="stop-color:#E38DDD"/>
				<stop  offset="1" style="stop-color:#9571F6"/>
			</linearGradient>
			<path class="st43" d="M2963.2,2523.1c0,0,5.7-12.3,12.3-11.7c6.6,0.5,13.6,1.1,29.1,11.3c15.5,10.2,22.9,11.8,22.2,18.3
				C3026,2547.5,2977.2,2546.2,2963.2,2523.1z"/>
			
				<linearGradient id="SVGID_35_" gradientUnits="userSpaceOnUse" x1="-9408.8418" y1="665.2787" x2="-9404.4658" y2="722.1653" gradientTransform="matrix(0.3082 -0.9513 0.9513 0.3082 5195.0952 -6628.4365)">
				<stop  offset="0" style="stop-color:#311944"/>
				<stop  offset="1" style="stop-color:#A03976"/>
			</linearGradient>
			<path class="st44" d="M2945,2531.1c1.2-0.4,14.4-8.2,21.9-12.7c3.1-1.8,6.9-1.4,9.5,1l0,0c3.8,3.5,4.2,9.4,0.9,13.4
				c-5.6,6.7-14.1,16.5-20.2,22L2945,2531.1z"/>
			
				<linearGradient id="SVGID_36_" gradientUnits="userSpaceOnUse" x1="3052.2185" y1="2765.2954" x2="3240.2634" y2="3010.8887" gradientTransform="matrix(-1 0 0 1 5935.2954 0)">
				<stop  offset="3.597120e-03" style="stop-color:#E38DDD"/>
				<stop  offset="1" style="stop-color:#9571F6"/>
			</linearGradient>
			<path class="st45" d="M2837.9,2854c0,0.3,0,0.9,0.1,1.7c0.4,3.8,1,12.6-6.1,19.4c-8.7,8.3-30.6,10.2-56.9,11.5
				c-26.3,1.3-5.4-15.7-1.7-17.6c3.7-1.9,55.2-24.6,55.2-24.6L2837.9,2854z"/>
			
				<linearGradient id="SVGID_37_" gradientUnits="userSpaceOnUse" x1="-5396.4937" y1="4573.9663" x2="-5419.144" y2="4678.7222" gradientTransform="matrix(0.4133 0.9106 -0.9106 0.4133 9360.1377 5838.626)">
				<stop  offset="0" style="stop-color:#311944"/>
				<stop  offset="1" style="stop-color:#A03976"/>
			</linearGradient>
			<path class="st46" d="M2818.1,2830.2l4.3,30.5c0,0,6.2,3.7,10.8-4.9l11.6-21.5L2818.1,2830.2z"/>
			<g>
				
					<linearGradient id="SVGID_38_" gradientUnits="userSpaceOnUse" x1="3224.8794" y1="2217.0813" x2="3139.7729" y2="2657.2036" gradientTransform="matrix(-1 0 0 1 5935.2954 0)">
					<stop  offset="0" style="stop-color:#FFC444"/>
					<stop  offset="0.9964" style="stop-color:#F36F56"/>
				</linearGradient>
				<path class="st47" d="M2714.6,2236.2c-36-2.2-51,38.2-71.3,73.5c-40.1,69.6-99.3,218.7-42.6,294.5
					c47.7,63.8,186.8,33,227.7,19.7c85.6-27.9,82.2-36.6,142-74.7c-10.5-8.3-13.8-18.6-22.5-27.7c-21.4-2.1-61.7-2.7-80.2-3.1
					c-27.3-0.5-76.1,1.7-90.9,2.8c-23.5,1.8-68.3,13.5-76.1,3.1c-17.3-23.1,32-140.3,32.8-178.6
					C2733.8,2329.8,2747.5,2238.2,2714.6,2236.2z"/>
				
					<linearGradient id="SVGID_39_" gradientUnits="userSpaceOnUse" x1="-8977.4609" y1="4734.6465" x2="-8706.9951" y2="4948.6416" gradientTransform="matrix(0.9513 0.3082 -0.3082 0.9513 12539.1035 419.9144)">
					<stop  offset="0" style="stop-color:#FFC444"/>
					<stop  offset="0.9964" style="stop-color:#F36F56"/>
				</linearGradient>
				<path class="st48" d="M2643.9,2308c-9.4,14.6-18.8,39-26.3,55.7c7.5,5.1,18,11,20.7,19.5c12.4,39-14.3,74.1-11.6,123.1
					c0.7,12.5,5.8,57.6,29.8,68.6c28.7,13.2,84.1-6.3,121.9-1.5c19.6,2.5,38.3,16.4,58.4,14.1c31.7-3.6,52-26.7,84.2-31.3
					c8.5-1.2,23.4,1.9,32.4,5.4c5.5-3.8,10.3-7.9,15.4-12c-7.1-9.4-13.2-18.8-20.9-28.2c-21.5-2.1-61.7-2.7-80.2-3.1
					c-27.3-0.6-76.1,1.7-90.9,2.8c-23.4,1.7-68.4,13.7-76.1,3.1c-17.1-23.5,31.7-139.5,33-178.9c0.5-16.5,12.8-104.7-18.7-110.1
					C2680.4,2229.6,2659.9,2283.3,2643.9,2308z"/>
			</g>
			<g>
				
					<linearGradient id="SVGID_40_" gradientUnits="userSpaceOnUse" x1="3055.9419" y1="2243.8679" x2="3229.803" y2="2805.5737" gradientTransform="matrix(-1 0 0 1 5935.2954 0)">
					<stop  offset="0" style="stop-color:#FFC444"/>
					<stop  offset="0.9964" style="stop-color:#F36F56"/>
				</linearGradient>
				<path class="st49" d="M2695.6,2333.7c-3.8,64.3,35.9,153,31,227.2c-0.6,8.4,2.5,44,5.9,54c10.9,32.4,75.5,224.2,77.1,226
					c12-2.5,24.5-4,36.7-6.6c16-29.1,28.9-69.6,36.2-100.6c9.9-41.6-10.2-90.4-14.9-118.1c-5.4-31.9-5-84-8.2-94.8
					c-24.1-80.9,5.9-111.6-5.5-177.8c-5.9-34.3-27.8-51-52.7-71.6C2765.7,2307.2,2725.7,2294.2,2695.6,2333.7z"/>
			</g>
			
				<linearGradient id="SVGID_41_" gradientUnits="userSpaceOnUse" x1="3112.5674" y1="1841.4738" x2="3189.519" y2="2491.6365" gradientTransform="matrix(-1 0 0 1 5935.2954 0)">
				<stop  offset="0" style="stop-color:#AA80F9"/>
				<stop  offset="0.9964" style="stop-color:#6165D7"/>
			</linearGradient>
			<path class="st50" d="M2641.6,2306.4c7.3,30.7,44.3,45.6,82.4,60.9c25.5,10.2,104.2,41.9,150,6.3c19.3-15,21.4-33.1,35.1-99.7
				c10-48.2,18.2-83.9,24.5-111c15.9-68.2,19.8-83,9.3-109.2c-22.7-56.6-79.8-83.4-99.1-91.3c-2.1-0.8-3.8-1.5-4.9-1.9
				c-49.1-18.7-140.2-28.2-176.9,10c-39.8,41.6,25.9,96.6-2.8,221c-8.6,37.6-18.2,60.7-20,84
				C2638.4,2285.4,2639,2295.3,2641.6,2306.4z"/>
			
				<linearGradient id="SVGID_42_" gradientUnits="userSpaceOnUse" x1="-11172.4678" y1="1266.0824" x2="-11269.8115" y2="1018.8466" gradientTransform="matrix(0.9842 0.1772 -0.1772 0.9842 14046.7217 2787.666)">
				<stop  offset="0" style="stop-color:#311944"/>
				<stop  offset="1" style="stop-color:#6B3976"/>
			</linearGradient>
			<path class="st51" d="M2706.3,1845.3c-2.1-11-10.2-11.3-11.9-21.5c-2.2-12.8,7.9-28,20.3-34.6c12.1-6.4,17.6,0.3,44.1,0
				c28.4-0.3,32.9-8.1,56-4.8c6,0.9,17.3,2.6,29.8,9.5c9.9,5.5,29.7,16.5,32.2,37c2.7,22.3-17.2,39-19.1,40.5
				c7.5,25.9,4.3,36.9-1.2,41.7c0,0-5.8,5.1-35.8,4.8l0,0c0,0-8.4,10.5-13.4,14c-5.6,4-16.5,5.9-39.9-5.2c-0.4-5-1.2-12.2-3.1-20.7
				c-3.5-15.9-5.2-23.8-9.6-25.3c-11.1-3.8-25.9,35-40.9,32.2c-9.6-1.8-17.2-20.5-15.9-35.5
				C2699.3,1862.5,2708.7,1857.8,2706.3,1845.3z"/>
			
				<linearGradient id="SVGID_43_" gradientUnits="userSpaceOnUse" x1="-8609.1992" y1="2522.1147" x2="-8630.3389" y2="2702.3613" gradientTransform="matrix(0.9939 0.1103 -0.1103 0.9939 11646.2119 263.1535)">
				<stop  offset="0" style="stop-color:#311944"/>
				<stop  offset="1" style="stop-color:#A03976"/>
			</linearGradient>
			<path class="st52" d="M2746,1935.1c2.2,10.8-4.6,20.1-14.7,20.5c-11.8,0.5-25.5,1.5-31.2,3.6c-10.2,3.9,33,6.2,78.2,15
				c31.3,6.1,57.1,8.2,72.4,8.9c4.2,0.2,5.5-4.6,1.7-6.5c-13.8-6.9-35.4-17-53.3-22.5c-21.2-6.4-39.3-55.2-39.3-55.2l-18.3,13.9
				L2746,1935.1z"/>
			
				<linearGradient id="SVGID_44_" gradientUnits="userSpaceOnUse" x1="-9153.3555" y1="6422.248" x2="-9192.2178" y2="6519.4038" gradientTransform="matrix(0.7805 0.6252 -0.6252 0.7805 14048.6426 2519.6465)">
				<stop  offset="0" style="stop-color:#311944"/>
				<stop  offset="1" style="stop-color:#A03976"/>
			</linearGradient>
			<path class="st53" d="M2786.8,1921.3c0,0-23.9,27.2-60.5,18.3c-32.7-8-24.5-83.1-0.6-95.1c8-4,22.5-3.7,33.4,1.5
				c6.4,3.1,8.2,6.3,18.9,11.2c9.8,4.5,12.9,3.8,15.6,7c3.3,3.9,4.7,12.5-5.6,33c7.4-5.3,15.5-6.4,20.4-2.9c0.8,0.6,2.8,2.5,3.7,5.1
				C2815.1,1908.7,2805.5,1918.2,2786.8,1921.3z"/>
			
				<linearGradient id="SVGID_45_" gradientUnits="userSpaceOnUse" x1="2828.4124" y1="-488.7171" x2="3168.6741" y2="2386.1392" gradientTransform="matrix(-1 0 0 1 5935.2954 0)">
				<stop  offset="0" style="stop-color:#AA80F9"/>
				<stop  offset="0.9964" style="stop-color:#6165D7"/>
			</linearGradient>
			<path class="st54" d="M2641.6,2306.4c7.3,30.7,44.3,45.6,82.4,60.9c25.5,10.2,104.2,41.9,150,6.3c19.3-15,21.4-33.1,35.1-99.7
				c10-48.2,18.2-83.9,24.5-111l-53.1-105.9c0.5,2.8,18.8,96.4-23.7,110.1c-43.1,13.9-74.5,15.1-80.8,67.9
				c-6.1,51.1,7.7,129.1-136.9,40.5C2638.4,2285.4,2639,2295.3,2641.6,2306.4z"/>
			
				<linearGradient id="SVGID_46_" gradientUnits="userSpaceOnUse" x1="4921.9941" y1="2202.8071" x2="4599.7939" y2="1865.4097" gradientTransform="matrix(0.3873 0.9219 0.9219 -0.3873 -713.1642 -1171.4847)">
				<stop  offset="0" style="stop-color:#311944"/>
				<stop  offset="1" style="stop-color:#A03976"/>
			</linearGradient>
			<path class="st55" d="M2844.7,2351.9c-2.5,5.4-7.1,13.3-15.7,19.3c-18.4,12.9-46.1,11.1-49.5,2.6c-3.1-7.7,13.7-21.2,21.2-26.3
				c16.3-11.1,33.3-12.7,42.5-12.9L2844.7,2351.9z"/>
			
				<linearGradient id="SVGID_47_" gradientUnits="userSpaceOnUse" x1="2952.2397" y1="1860.4546" x2="3029.1904" y2="2510.6079" gradientTransform="matrix(-1 0 0 1 5935.2954 0)">
				<stop  offset="0" style="stop-color:#AA80F9"/>
				<stop  offset="0.9964" style="stop-color:#6165D7"/>
			</linearGradient>
			<path class="st56" d="M2904.8,2000.4c0,0,237.2,235.1,104.2,308.4c-133,73.3-169.6,55.5-169.6,55.5l-6.3-29.6
				c0,0,155.7-67.8,111.9-115.9S2768.2,2094.1,2904.8,2000.4z"/>
		</g>
		<g>
			
				<linearGradient id="SVGID_48_" gradientUnits="userSpaceOnUse" x1="4239.4106" y1="2680.8755" x2="4234.4282" y2="2779.2771" gradientTransform="matrix(-1 0 0 1 6371.5889 0)">
				<stop  offset="0" style="stop-color:#AA80F9"/>
				<stop  offset="0.9964" style="stop-color:#6165D7"/>
			</linearGradient>
			<polygon class="st57" points="2158.2,2755.4 1925.8,2697.2 1914.2,2753.7 2126.9,2851.9 2295.4,2810.3 2354.7,2697.2 			"/>
			
				<linearGradient id="SVGID_49_" gradientUnits="userSpaceOnUse" x1="4223.687" y1="2612.6472" x2="4249.0361" y2="2810.7468" gradientTransform="matrix(-1 0 0 1 6371.5889 0)">
				<stop  offset="0" style="stop-color:#FFC444"/>
				<stop  offset="0.9964" style="stop-color:#F36F56"/>
			</linearGradient>
			<path class="st58" d="M1892.1,2704.4c-0.9,12.7,30.7,24.9,38.7,27.9c47,18,70.5,1.8,122.3,10.8c44.6,7.7,37.1,21.3,81.6,29
				c28.5,4.9,58.4,0.4,118.1-8.5c22.3-3.4,42.6-7.2,58.4-10.6c0,0,0.1,0,0.1,0c20.1-4.5,32.7-8.5,32.5-10.7c0-0.3-0.3-0.3-0.4-0.8
				c-1.3-5.6,34.7-13,34.9-22c0-0.9-0.3-1.7-0.9-2.5c-4.6-5.6-25.3-9.8-56.3-21.3c-30-11.1-45-16.6-58.6-27.6
				c-25.7-20.7-34.4-49.4-40.1-68.2c-6.4-21.2-18.6-57.3-2.6-96.9c0.3-0.8,0.7-1.7,1.1-2.6c18.3-41.9,55.1-64,68.5-71.3
				c-16.3-14.6-59.6-49.4-129.2-61.7c-21.4-3.8-62.6-11.6-111.3,2.4c-67,19.2-120.5,71.1-112.7,90c7.3,17.9,67,1,89.1,38.7
				c1.2,2,2,3.4,3.1,6.4c18.2,50.6,0,97.1-4.3,106.1c-3.4,7-13,25.4-33,43.1c-20.6,18.2-42.5,29.1-60.4,32.6h0
				C1908.7,2690,1892.8,2695.8,1892.1,2704.4z"/>
			
				<linearGradient id="SVGID_50_" gradientUnits="userSpaceOnUse" x1="3994.2517" y1="2638.4131" x2="4479.458" y2="2638.4131" gradientTransform="matrix(-1 0 0 1 6371.5889 0)">
				<stop  offset="0" style="stop-color:#FFC444"/>
				<stop  offset="9.845980e-02" style="stop-color:#FEBC46"/>
				<stop  offset="0.9964" style="stop-color:#F36F56"/>
			</linearGradient>
			<path class="st59" d="M1892.1,2704.4c-0.9,12.7,30.7,24.9,38.7,27.9c47,18,70.5,1.8,122.3,10.8c44.6,7.7,37.1,21.3,81.6,29
				c28.5,4.9,58.4,0.4,118.1-8.5c22.3-3.4,42.6-7.2,58.4-10.6l0.1-0.1l66.1-36c-4.6-5.6-25.3-9.8-56.3-21.3
				c-30-11.1-45-16.6-58.6-27.6c-25.7-20.7-34.4-49.4-40.1-68.2c-6.4-21.2-18.6-57.3-2.6-96.9c-9.1,0.7-36.8,6.3-33.6,51.9
				c3.8,54.6,42.4,90.9-30.5,101c-72.8,10,28.7,71.7-20.4,74.5c-49.1,2.9-72.4-47.1-204.7-43.6h0
				C1908.7,2690,1892.8,2695.8,1892.1,2704.4z"/>
			
				<linearGradient id="SVGID_51_" gradientUnits="userSpaceOnUse" x1="1508.8396" y1="359.3565" x2="1390.7675" y2="686.0223" gradientTransform="matrix(-0.9147 0.4042 0.4042 0.9147 3223.9463 1118.3715)">
				<stop  offset="0" style="stop-color:#444B8C"/>
				<stop  offset="0.9964" style="stop-color:#26264F"/>
			</linearGradient>
			<path class="st60" d="M2016,2325.2c-7.2-2.8-27.7-18-29.5-38.6c-1.2-14,7.6-19.5,5.2-34c-2.8-16.5-15.5-17.2-23.3-34.4
				c-9.1-20-5.2-48.4,9.1-64.3c11.5-12.8,20.5-7.1,40.4-23.4c17.7-14.4,15.1-22.5,26.8-29.3c22.7-13.2,42.7,11.5,78,11.4
				c49-0.2,58.8-47.8,96.2-42.5c34.4,4.9,67.7,51.1,65.9,87.9c-0.7,14.7-6.4,21.4-2.4,35.3c6.1,21.4,25.8,20.6,36.5,42.9
				c8.1,16.9,8.7,42.3-3.7,54.5c-14.5,14.3-35.6-0.4-50.2,13.6c-15.6,15.1,1.1,39.6-14.2,55.8c-14.5,15.3-44.9,10.6-62,5.8
				c-20.6-5.7-39.5-16.4-59.4-24.4C2092.3,2326.8,2052.3,2339.4,2016,2325.2z"/>
			
				<linearGradient id="SVGID_52_" gradientUnits="userSpaceOnUse" x1="-942.2504" y1="2600.5671" x2="-916.0815" y2="2805.071" gradientTransform="matrix(1 0 0 1 3202.3257 0)">
				<stop  offset="0" style="stop-color:#FFC444"/>
				<stop  offset="9.845980e-02" style="stop-color:#FEBC46"/>
				<stop  offset="0.9964" style="stop-color:#F36F56"/>
			</linearGradient>
			<path class="st61" d="M2164.1,2540.7c-11.2,21.6,28.1,84.3,82.8,89.6c29.7,2.9,58.9-11.5,76.5-33.3
				c27.1-33.6,18.7-75.4,15.8-90.1c-17.3-86.4-118.9-122.4-128.2-125.5c-24.7,38.3-24.3,62.5-19.1,77.6
				c4.3,12.5,15.6,25.8,38.1,52.4c20.1,23.7,30,32.2,27,39.4c-3.5,8.6-22.7,9.2-34.9,6.8c-22.5-4.6-34.9-22.7-38.1-27.8
				C2177.7,2530.8,2168,2533.3,2164.1,2540.7z"/>
			
				<linearGradient id="SVGID_53_" gradientUnits="userSpaceOnUse" x1="2164.0088" y1="2610.8931" x2="2191.272" y2="2823.9487" gradientTransform="matrix(-1 0 0 1 4138.9121 0)">
				<stop  offset="0" style="stop-color:#FFC444"/>
				<stop  offset="9.845980e-02" style="stop-color:#FEBC46"/>
				<stop  offset="0.9964" style="stop-color:#F36F56"/>
			</linearGradient>
			<path class="st62" d="M2070.7,2552.3c11.2,21.6-28.1,84.3-82.8,89.6c-29.7,2.9-58.9-11.5-76.5-33.3
				c-27.1-33.6-18.7-75.4-15.8-90.1c17.3-86.4,112-133.9,121.3-137.1c24.7,38.3,31.2,74,26,89.2c-4.3,12.5-21.3,11.9-43.8,38.6
				c-20.1,23.7-24.3,46-21.3,53.3c3.5,8.6,22.7,9.2,34.9,6.8c22.5-4.6,34.9-22.7,38.1-27.8
				C2057.1,2542.4,2066.9,2544.9,2070.7,2552.3z"/>
			
				<linearGradient id="SVGID_54_" gradientUnits="userSpaceOnUse" x1="4244.8657" y1="2262.6851" x2="4247.5" y2="2387.814" gradientTransform="matrix(-1 0 0 1 6371.5889 0)">
				<stop  offset="0" style="stop-color:#311944"/>
				<stop  offset="1" style="stop-color:#A03976"/>
			</linearGradient>
			<path class="st63" d="M2131.5,2313.7c0,0,4.4,35.5,17.5,43.6c13.1,8.1,34.3,18.7,36.6,21.6c2.3,2.9-81.1,11.9-122.5-9l0,0
				c13.6-2.8,17.3-3.9,17.3-3.9c3.7-1,10.6-3,17.5-6.9c4.7-2.7,12.3-7.9,19.3-17.8l-0.2-19.6L2131.5,2313.7z"/>
			
				<linearGradient id="SVGID_55_" gradientUnits="userSpaceOnUse" x1="-232.759" y1="2076.3264" x2="-373.3363" y2="2250.5632" gradientTransform="matrix(0.899 0.438 -0.438 0.899 3403.3867 447.587)">
				<stop  offset="0" style="stop-color:#311944"/>
				<stop  offset="1" style="stop-color:#A03976"/>
			</linearGradient>
			<path class="st64" d="M2141.8,2326.5c0,0-19.8,32-55.4,22c-31.9-9-19.4-90.5,4.5-101.5c8-3.7,23.2-3.5,33.7,2.1
				c7.4,3.9,28.1,26,19.3,53.1c7.7-2.9,14.7-1.3,16.7,2.4c2.6,4.8-3.6,12-5,13.6C2150.8,2323.8,2144.7,2325.8,2141.8,2326.5z"/>
			
				<linearGradient id="SVGID_56_" gradientUnits="userSpaceOnUse" x1="4252.9321" y1="2768.0974" x2="4544.1538" y2="2768.0974" gradientTransform="matrix(-1 0 0 1 6371.5889 0)">
				<stop  offset="0" style="stop-color:#AA80F9"/>
				<stop  offset="0.9964" style="stop-color:#6165D7"/>
			</linearGradient>
			<path class="st65" d="M2118.7,2833.5c-46.2-24.8-80.3-50-103.5-69.1c-45.6-37.5-66.5-65.8-112.6-77c-8.2-2-55.2-13.4-70.4,7.5
				c-16.8,23.1,15.8,71.4,19.8,77.3c58.9,87.2,209,83.2,256.1,80.3C2111.6,2846.2,2115.1,2839.9,2118.7,2833.5z"/>
			
				<linearGradient id="SVGID_57_" gradientUnits="userSpaceOnUse" x1="4252.9326" y1="2768.7749" x2="4544.1533" y2="2768.7749" gradientTransform="matrix(-1 0 0 1 6371.5889 0)">
				<stop  offset="0" style="stop-color:#AA80F9"/>
				<stop  offset="0.9964" style="stop-color:#6165D7"/>
			</linearGradient>
			<path class="st66" d="M1832.2,2694.9c4.4-6.1,11.6-9.4,19.7-11c-2.7,9.3-2.9,18.1,0.4,25.8c9.2,20.9,36.5,14.5,55.6,39
				c18.8,24.1,5.8,47.4,22.4,57.3c19.1,11.4,42.7-15.2,63.1-2.5c13.9,8.7,9.6,25.1,25.7,34c11.2,6.2,22.1,3.3,34.9,1.7
				c14.6-1.8,34.6-2.2,59.7,3c-1.9,3.4-3.8,6.9-5.7,10.3c-47.1,2.8-197.2,6.9-256.1-80.3C1848,2766.3,1815.4,2718,1832.2,2694.9z"/>
			
				<linearGradient id="SVGID_58_" gradientUnits="userSpaceOnUse" x1="4331.5166" y1="2899.7842" x2="4275.4653" y2="2830.0317" gradientTransform="matrix(-1 0 0 1 6371.5889 0)">
				<stop  offset="0" style="stop-color:#311944"/>
				<stop  offset="1" style="stop-color:#6B3976"/>
			</linearGradient>
			<path class="st67" d="M2087.6,2864.9c0,0-8.5-6.1-20.7-1.9c-12.3,4.1-31.8,7.5-31.8,13.5c0,6,19.5,9.8,33,7.3
				C2081,2881.4,2091.2,2870.2,2087.6,2864.9z"/>
			
				<linearGradient id="SVGID_59_" gradientUnits="userSpaceOnUse" x1="4297.104" y1="2883.22" x2="4219.876" y2="2786.062" gradientTransform="matrix(-1 0 0 1 6371.5889 0)">
				<stop  offset="0" style="stop-color:#311944"/>
				<stop  offset="1" style="stop-color:#A03976"/>
			</linearGradient>
			<path class="st68" d="M2100,2854.7l-22.6,7.3c0,0-3.7,6.1,1.3,10c5,3.9,22.2-4.3,22.2-4.3L2100,2854.7z"/>
			
				<linearGradient id="SVGID_60_" gradientUnits="userSpaceOnUse" x1="4205.0532" y1="2612.3137" x2="4229.249" y2="2488.853" gradientTransform="matrix(-1 0 0 1 6371.5889 0)">
				<stop  offset="0" style="stop-color:#311944"/>
				<stop  offset="1" style="stop-color:#A03976"/>
			</linearGradient>
			<path class="st69" d="M2190.1,2552.3c0,0-7.7-40.8-37.6-34.1c-30,6.7-45.6,23-28.1,27.4s38.6,5.7,42.7,13.4
				C2171.3,2566.6,2193.6,2571,2190.1,2552.3z"/>
			<g>
				<g>
					
						<linearGradient id="SVGID_61_" gradientUnits="userSpaceOnUse" x1="2199.0352" y1="2847.1123" x2="2160.4382" y2="2737.7542" gradientTransform="matrix(-1 0 0 1 4242.7026 0)">
						<stop  offset="0" style="stop-color:#311944"/>
						<stop  offset="1" style="stop-color:#893976"/>
					</linearGradient>
					<polygon class="st70" points="1914,2706.7 2268.9,2716.9 2191.6,2750.8 1912.8,2729.7 					"/>
					
						<linearGradient id="SVGID_62_" gradientUnits="userSpaceOnUse" x1="2010.0088" y1="2697.7239" x2="2022.28" y2="2782.5071" gradientTransform="matrix(-1 0 0 1 4242.7026 0)">
						<stop  offset="0" style="stop-color:#311944"/>
						<stop  offset="1" style="stop-color:#893976"/>
					</linearGradient>
					<path class="st71" d="M2278.6,2724.5L2278.6,2724.5c0.1,5.1-3,9.5-7.8,11.1l-94,34.2l-0.8-25.6l92.8-27.4
						C2273.7,2715.7,2278.5,2719.5,2278.6,2724.5z"/>
				</g>
				<g>
					<g>
						
							<linearGradient id="SVGID_63_" gradientUnits="userSpaceOnUse" x1="2180.3638" y1="2701.2944" x2="2111.5132" y2="2603.5266" gradientTransform="matrix(-1 0 0 1 4160.2183 0)">
							<stop  offset="0" style="stop-color:#444B8C"/>
							<stop  offset="0.9964" style="stop-color:#26264F"/>
						</linearGradient>
						<path class="st72" d="M2171.8,2566.7l20.6,187.4c0.7,6.5-8.3,16.1-14.8,15.8l-301.9-18.5c-5-0.2-9.1-3.9-9.9-8.8l-37.9-181
							c-1.1-6.6,10.7-13.4,17.4-13.2l316.3,8.9C2166.8,2557.4,2171.2,2561.4,2171.8,2566.7z"/>
						
							<linearGradient id="SVGID_64_" gradientUnits="userSpaceOnUse" x1="2048.2959" y1="2863.0986" x2="2198.9722" y2="2557.0376" gradientTransform="matrix(-1 0 0 1 4160.2183 0)">
							<stop  offset="0" style="stop-color:#311944"/>
							<stop  offset="1" style="stop-color:#893976"/>
						</linearGradient>
						<path class="st73" d="M2164.9,2572.1l20.6,187.4c0.7,6.5-4.5,12-11,11.7l-305.7-14.5c-5-0.2-9.1-3.9-9.9-8.8l-31.2-181.8
							c-1.1-6.6,4-12.6,10.7-12.4l316.3,8.9C2159.9,2562.9,2164.3,2566.9,2164.9,2572.1z"/>
					</g>
					
						<linearGradient id="SVGID_65_" gradientUnits="userSpaceOnUse" x1="1974.6919" y1="2666.6584" x2="2305.7065" y2="2666.6584" gradientTransform="matrix(-1 0 0 1 4160.2183 0)">
						<stop  offset="0" style="stop-color:#311944"/>
						<stop  offset="1" style="stop-color:#893976"/>
					</linearGradient>
					<path class="st74" d="M1985.4,2712.9c26.7-11.3,17.3-32.9,48.8-59.8c41.6-35.5,84-20.1,98.8-47.6c4.6-8.6,6.8-21.9-1.2-43.4
						l22.9,0.6c5.3,0.1,9.6,4.2,10.2,9.4l20.6,187.4c0.7,6.5-4.5,12-11,11.7l-305.7-14.5c-5-0.2-9.1-3.9-9.9-8.8l-4.3-25.1
						c9.3-5.2,20.4-9.9,33.3-12.5C1932.6,2701.3,1954.7,2725.9,1985.4,2712.9z"/>
				</g>
			</g>
			
				<linearGradient id="SVGID_66_" gradientUnits="userSpaceOnUse" x1="4529.356" y1="2409.2942" x2="4458.1445" y2="2557.4143" gradientTransform="matrix(-0.9778 0.2095 0.2095 0.9778 6138.6636 -548.0091)">
				<stop  offset="0" style="stop-color:#AA80F9"/>
				<stop  offset="0.9964" style="stop-color:#6165D7"/>
			</linearGradient>
			<path class="st75" d="M2380.3,2697.2c14.7,36.6-57.1,94.9-73.9,108.4c-34.2,27.4-103.7,58.2-212.8,70.8
				c-3.2-8.2-6.5-16.4-9.7-24.7c13.1-7.9,32.3-20.2,54-37.3c37.1-29.3,49.7-47.2,99.7-94.3c55.4-52.1,72.8-61,92.8-60.3
				C2347.6,2660.4,2373.5,2680.2,2380.3,2697.2z"/>
		</g>
		<g>
			<linearGradient id="SVGID_67_" gradientUnits="userSpaceOnUse" x1="2054.6357" y1="1110.5173" x2="2425.6865" y2="1855.127">
				<stop  offset="0" style="stop-color:#311944"/>
				<stop  offset="1" style="stop-color:#A03976"/>
			</linearGradient>
			<path class="st76" d="M2552.7,1597.3c0.4-131.8-132-232.6-281.6-225.5c-81.4,3.9-150,39.2-191.7,89.7c0,0,0,0,0,0
				c-0.3,0.3-0.5,0.6-0.8,0.9c-0.7,0.9-1.4,1.8-2.1,2.6c-1.3,1.6-2.5,3.2-3.8,4.9c-0.7,1-1.4,1.9-2.1,2.9c-1.2,1.6-2.3,3.3-3.4,5
				c-0.6,1-1.3,1.9-1.9,2.9c-1.3,1.9-2.5,3.9-3.6,5.8c-0.4,0.7-0.9,1.4-1.3,2.1c-1.6,2.6-3,5.3-4.5,8c-0.4,0.7-0.7,1.5-1.1,2.2
				c-1,2-2,4.1-3,6.1c-0.5,1-0.9,2-1.4,3.1c-0.8,1.8-1.6,3.7-2.4,5.5c-0.4,1.1-0.9,2.1-1.3,3.2c-0.7,1.9-1.4,3.8-2.1,5.7
				c-0.4,1-0.7,2-1,3c-0.8,2.4-1.5,4.8-2.2,7.3c-0.1,0.5-0.3,1-0.5,1.5c-0.8,3-1.6,5.9-2.2,8.9c-0.2,0.9-0.4,1.8-0.5,2.7
				c-0.4,2.2-0.9,4.3-1.2,6.5c-0.2,1.1-0.4,2.2-0.5,3.3c-0.3,2-0.6,4-0.8,6.1c-0.1,1.1-0.3,2.3-0.4,3.4c-0.2,2.1-0.4,4.3-0.5,6.5
				c-0.1,1-0.1,2-0.2,3c-0.2,3.2-0.2,6.3-0.2,9.5c0.2,76.1,47.4,145.8,119.5,186.7c6.7,3.8,13.7,7.4,20.9,10.7
				c3.6,1.7,7.3,3.3,11,4.8c26.2,10.8,55.1,18.2,85.8,21.1l0,0l0,0l0,0c4.3,0.4,8.5,0.7,12.7,1c1.4,0.1,2.8,0.1,4.3,0.2
				c2.8,0.1,5.6,0.2,8.4,0.3c1.7,0,3.4,0,5.1,0c2.5,0,5,0,7.5-0.1c1.8,0,3.6-0.1,5.5-0.2c2.4-0.1,4.7-0.2,7.1-0.4
				c1.9-0.1,3.7-0.3,5.6-0.4c2.3-0.2,4.6-0.4,6.8-0.7c1.9-0.2,3.8-0.4,5.7-0.7c2.2-0.3,4.4-0.6,6.6-0.9c1.9-0.3,3.8-0.6,5.7-0.9
				c2.2-0.4,4.4-0.8,6.5-1.2c1.9-0.4,3.7-0.7,5.6-1.1c0.7-0.1,1.4-0.3,2.1-0.4c0,0,0,0,0,0
				C2472.4,1778.4,2552.4,1698.7,2552.7,1597.3z"/>
			<g>
				<linearGradient id="SVGID_68_" gradientUnits="userSpaceOnUse" x1="2170.9082" y1="1408.4728" x2="2529.5542" y2="2073.655">
					<stop  offset="0" style="stop-color:#FF9085"/>
					<stop  offset="1" style="stop-color:#FB6FBB"/>
				</linearGradient>
				<path class="st77" d="M2522.6,1595.2c-0.3,130.3-130.3,223-276.7,208.8c-133.3-12.9-233.2-111.5-233.6-221.4
					c-0.4-110.2,99.3-204.5,233.3-210.9C2392.7,1364.6,2522.9,1464.5,2522.6,1595.2z"/>
				<g>
					<path class="st2" d="M2158.2,1544c-9-0.1-15.9,3.6-20.8,11c-4.9,7.4-7.3,17.7-7.2,30.9c0.1,27.6,9.4,41.7,28.2,42.5
						c8,0.3,17.7-1.5,29.1-5.5l0,22.4c-9.4,3.9-19.9,5.5-31.4,5c-16.3-0.8-28.7-6.8-37.2-18c-8.5-11.2-12.7-26.9-12.8-47.1
						c0-12.8,2-23.9,6.1-33.5c4.1-9.6,10.1-16.9,17.9-22.1c7.9-5.1,17.2-7.7,27.9-7.7c11,0,22.2,3,33.5,9l-7.9,21.7
						c-4.3-2.3-8.6-4.3-13-6C2166.6,1544.9,2162.3,1544,2158.2,1544z"/>
					<path class="st2" d="M2291.8,1618.6c0,11.8-4,20.9-12,27.3c-8,6.4-19,9.2-32.9,8.6c-12.8-0.6-24-3.7-33.6-9.2l0-25.1
						c8,4.1,14.7,7.1,20.3,8.9c5.6,1.8,10.7,2.8,15.3,3c5.6,0.2,9.9-0.8,12.9-2.9c3-2.2,4.5-5.6,4.5-10.1c0-2.5-0.7-4.8-2-6.8
						c-1.3-2-3.3-4-5.9-5.9c-2.6-1.9-7.8-5-15.6-9.2c-7.3-3.9-12.8-7.6-16.4-11c-3.6-3.5-6.5-7.5-8.7-12c-2.2-4.5-3.2-9.8-3.2-15.8
						c0-11.3,3.5-20.1,10.6-26.5c7.1-6.5,17-9.7,29.8-9.6c6.3,0,12.3,0.8,18.1,2.4c5.8,1.6,11.9,3.9,18.2,6.9l-8.4,21.5
						c-6.6-2.9-12-5-16.2-6.2c-4.2-1.2-8.4-1.8-12.5-1.8c-4.8,0-8.5,1.1-11.1,3.5c-2.6,2.4-3.8,5.5-3.8,9.4c0,2.4,0.5,4.5,1.6,6.3
						c1,1.8,2.7,3.6,5,5.3c2.3,1.7,7.7,4.8,16.2,9.4c11.4,6.1,19.3,12.1,23.5,18C2289.7,1602.8,2291.8,1610.1,2291.8,1618.6z"/>
					<path class="st2" d="M2399.7,1622.3c0,12.2-4.3,21.7-12.9,28.3c-8.5,6.6-20.3,9.5-35.3,8.8c-13.7-0.6-25.7-3.9-36-9.6l0-25.9
						c8.5,4.3,15.7,7.4,21.7,9.2c6,1.9,11.5,2.9,16.4,3.1c6,0.2,10.6-0.8,13.9-3c3.2-2.3,4.9-5.7,4.9-10.5c0-2.6-0.7-5-2.1-7.1
						c-1.4-2.1-3.5-4.1-6.3-6.1c-2.7-2-8.3-5.2-16.7-9.5c-7.8-4-13.7-7.8-17.6-11.4c-3.9-3.6-7-7.7-9.3-12.4
						c-2.3-4.7-3.4-10.1-3.4-16.3c0-11.7,3.8-20.8,11.4-27.5c7.6-6.7,18.2-10,31.9-10c6.8,0,13.2,0.9,19.4,2.5
						c6.2,1.7,12.7,4.1,19.5,7.1l-9.1,22.2c-7-3-12.8-5.2-17.4-6.4c-4.6-1.2-9-1.8-13.4-1.9c-5.2-0.1-9.2,1.2-11.9,3.6
						c-2.8,2.5-4.1,5.7-4.1,9.7c0,2.5,0.6,4.7,1.7,6.5c1.1,1.9,2.9,3.7,5.3,5.5c2.4,1.8,8.2,5,17.4,9.7
						c12.2,6.3,20.6,12.5,25.2,18.7C2397.5,1605.9,2399.7,1613.5,2399.7,1622.3z"/>
				</g>
				<g class="st78">
					<linearGradient id="SVGID_69_" gradientUnits="userSpaceOnUse" x1="2066.2996" y1="1454.5801" x2="2411.2188" y2="2146.75">
						<stop  offset="0" style="stop-color:#FF9085"/>
						<stop  offset="1" style="stop-color:#FB6FBB"/>
					</linearGradient>
					<path class="st79" d="M2308.6,1754.1c-31.5-66.8,0.3-125.8-42.2-168.9c-42-42.6-94.8-5.1-149.6-39
						c-20.7-12.8-43.3-36.7-60-85.5c-28.2,34.4-44.6,76.4-44.5,121.9c0.4,109.9,100.3,208.4,233.6,221.4c32.3,3.1,63.9,1,93.6-5.6
						C2324.8,1783.1,2315.1,1768,2308.6,1754.1z"/>
				</g>
			</g>
		</g>
		<g>
			<linearGradient id="SVGID_70_" gradientUnits="userSpaceOnUse" x1="2518.2119" y1="710.1925" x2="2922.2419" y2="1520.9838">
				<stop  offset="0" style="stop-color:#311944"/>
				<stop  offset="1" style="stop-color:#A03976"/>
			</linearGradient>
			<path class="st80" d="M3066.3,1256.3c0-134-134.1-245-293.4-247.8c-90.5-1.6-169.1,32.3-218.1,85.5c0,0,0,0,0,0
				c-0.3,0.3-0.6,0.7-0.9,1c-0.8,0.9-1.7,1.9-2.5,2.8c-1.5,1.7-3,3.4-4.5,5.2c-0.9,1-1.7,2.1-2.5,3.1c-1.4,1.8-2.8,3.5-4.1,5.3
				c-0.8,1-1.5,2-2.3,3.1c-1.5,2.1-2.9,4.2-4.3,6.3c-0.5,0.8-1,1.5-1.5,2.3c-1.9,2.9-3.6,5.8-5.3,8.7c-0.5,0.8-0.9,1.6-1.3,2.4
				c-1.2,2.2-2.5,4.4-3.6,6.7c-0.6,1.1-1.1,2.2-1.6,3.3c-1,2-1.9,4-2.8,6c-0.5,1.2-1,2.4-1.5,3.6c-0.9,2.1-1.7,4.2-2.5,6.3
				c-0.4,1.1-0.9,2.2-1.3,3.3c-1,2.7-1.9,5.4-2.7,8.1c-0.2,0.6-0.4,1.1-0.6,1.7c-1,3.3-1.9,6.6-2.7,9.9c-0.2,1-0.4,2-0.7,3
				c-0.5,2.4-1.1,4.8-1.5,7.2c-0.2,1.2-0.4,2.5-0.6,3.7c-0.4,2.2-0.7,4.5-1,6.8c-0.2,1.3-0.3,2.5-0.5,3.8c-0.3,2.4-0.5,4.8-0.6,7.2
				c-0.1,1.1-0.2,2.2-0.2,3.4c-0.2,3.5-0.3,7.1-0.3,10.7c0,85.5,56,163.8,140,208.6c7.7,4.1,15.7,8,23.9,11.5
				c4.1,1.8,8.3,3.5,12.5,5.1c29.6,11.4,61.9,18.9,95.9,21.6l0,0l0,0l0,0c4.7,0.4,9.3,0.6,14,0.8c1.6,0.1,3.1,0.1,4.7,0.1
				c3.1,0.1,6.1,0.2,9.2,0.2c1.9,0,3.7-0.1,5.6-0.1c2.7,0,5.4-0.1,8.1-0.2c2-0.1,3.9-0.2,5.9-0.3c2.6-0.2,5.1-0.3,7.6-0.5
				c2-0.2,4-0.4,6-0.6c2.5-0.2,4.9-0.5,7.3-0.8c2-0.3,4.1-0.5,6.1-0.8c2.4-0.3,4.7-0.7,7.1-1.1c2-0.3,4-0.7,6-1.1
				c2.3-0.4,4.6-0.9,7-1.4c2-0.4,4-0.8,5.9-1.3c0.7-0.2,1.5-0.3,2.2-0.5c0,0,0,0,0-0.1C2986,1442,3066.3,1359.6,3066.3,1256.3z"/>
			<g>
				<linearGradient id="SVGID_71_" gradientUnits="userSpaceOnUse" x1="2640.6824" y1="1044.6978" x2="3033.125" y2="1772.5625">
					<stop  offset="0" style="stop-color:#FFC444"/>
					<stop  offset="0.9964" style="stop-color:#F36F56"/>
				</linearGradient>
				<path class="st81" d="M3026.8,1255.1c0,133.3-132.8,230.9-290.6,218.4c-151.4-12-269.7-121.8-269.7-245.5
					c0-123.8,118.3-222.1,269.7-219.4C2893.9,1011.3,3026.8,1121.8,3026.8,1255.1z"/>
				<g>
					<path class="st2" d="M2619.7,1286.2l-20.2-1.1v-43.8l-37.6-1.9v43.5l-20-1.1v-100.6l20,0.8v39.5l37.6,1.8v-39.7l20.2,0.8
						V1286.2z"/>
					<path class="st2" d="M2688.2,1290l-20.7-1.1v-84.3l-26.3-1.2v-18l73.6,3.1v18.2l-26.6-1.2V1290z"/>
					<path class="st2" d="M2779.1,1295l-24-82.5l-0.6,0c0.9,16.6,1.3,27.6,1.3,33.1v48.2l-18.8-1v-103.3l28.7,1.2l23.7,80.5l0.4,0
						l25.3-78.5l29.3,1.2v104.7l-20.1-1.1v-49.4c0-2.3,0-5,0.1-8.1c0.1-3,0.4-11.1,0.9-24.3l-0.6,0l-26,80.4L2779.1,1295z"/>
					<path class="st2" d="M2877.1,1300.4v-105.2l21.8,0.9v87l42.1,2.2v18.6L2877.1,1300.4z"/>
				</g>
				<g class="st26">
					<linearGradient id="SVGID_72_" gradientUnits="userSpaceOnUse" x1="2530.5288" y1="1086.9187" x2="2913.0693" y2="1854.5853">
						<stop  offset="0" style="stop-color:#FFC444"/>
						<stop  offset="0.9964" style="stop-color:#F36F56"/>
					</linearGradient>
					<path class="st82" d="M2804.7,1419.2c-34.2-71.4,0.4-134-45.8-181c-46.4-47.2-105.7-8.2-168.6-47.2
						c-24-14.9-50.6-42.4-70.2-97.4c-33.8,36.8-53.7,83.3-53.7,134.4c0,123.8,118.3,233.5,269.7,245.5c35.6,2.8,69.9,0,101.8-7.6
						C2822.2,1449.9,2811.8,1434,2804.7,1419.2z"/>
				</g>
			</g>
		</g>
		<g>
			<linearGradient id="SVGID_73_" gradientUnits="userSpaceOnUse" x1="1908.5155" y1="195.7404" x2="2264.1655" y2="909.4445">
				<stop  offset="0" style="stop-color:#444B8C"/>
				<stop  offset="0.9964" style="stop-color:#26264F"/>
			</linearGradient>
			<path class="st83" d="M2469.3,837.4c0-123.3-113.8-219.6-249.3-215.2c-77.2,2.5-144.3,37.3-186.2,88.6c0,0,0,0,0,0
				c-0.3,0.3-0.5,0.7-0.8,1c-0.7,0.9-1.4,1.8-2.1,2.7c-1.3,1.7-2.6,3.3-3.8,5c-0.7,1-1.5,2-2.2,3c-1.2,1.7-2.4,3.4-3.5,5.1
				c-0.7,1-1.3,2-2,3c-1.3,2-2.5,4-3.7,6c-0.4,0.7-0.9,1.5-1.3,2.2c-1.6,2.7-3.1,5.5-4.6,8.3c-0.4,0.7-0.7,1.5-1.1,2.3
				c-1.1,2.1-2.1,4.2-3.1,6.4c-0.5,1-0.9,2.1-1.4,3.2c-0.8,1.9-1.6,3.8-2.4,5.7c-0.5,1.1-0.9,2.2-1.3,3.4c-0.8,2-1.5,4-2.2,6
				c-0.4,1-0.7,2.1-1.1,3.1c-0.8,2.5-1.6,5-2.3,7.6c-0.2,0.5-0.3,1.1-0.5,1.6c-0.8,3.1-1.6,6.2-2.3,9.3c-0.2,0.9-0.4,1.9-0.6,2.8
				c-0.5,2.2-0.9,4.5-1.3,6.8c-0.2,1.2-0.4,2.3-0.6,3.5c-0.3,2.1-0.6,4.2-0.9,6.3c-0.1,1.2-0.3,2.4-0.4,3.6
				c-0.2,2.2-0.4,4.5-0.6,6.7c-0.1,1-0.2,2.1-0.2,3.1c-0.2,3.3-0.3,6.6-0.3,9.9c0,79.1,47.9,149,119.8,186.3
				c6.6,3.4,13.4,6.6,20.4,9.5c3.5,1.4,7.1,2.8,10.7,4.1c25.3,9.1,52.8,14.5,81.8,15.3l0,0l0,0l0,0c4,0.1,8,0.1,11.9,0.1
				c1.3,0,2.7-0.1,4-0.1c2.6-0.1,5.2-0.2,7.8-0.3c1.6-0.1,3.2-0.2,4.7-0.4c2.3-0.2,4.6-0.4,6.9-0.6c1.7-0.2,3.4-0.4,5-0.6
				c2.2-0.3,4.3-0.5,6.5-0.8c1.7-0.3,3.4-0.5,5.1-0.8c2.1-0.3,4.2-0.7,6.2-1.1c1.7-0.3,3.5-0.7,5.2-1c2-0.4,4-0.9,6-1.4
				c1.7-0.4,3.4-0.8,5.1-1.3c2-0.5,4-1.1,5.9-1.6c1.7-0.5,3.4-1,5.1-1.5c0.6-0.2,1.3-0.3,1.9-0.5c0,0,0,0,0,0
				C2401.2,1012.1,2469.3,932.5,2469.3,837.4z"/>
			<g>
				<linearGradient id="SVGID_74_" gradientUnits="userSpaceOnUse" x1="1951.3961" y1="356.1489" x2="2296.8413" y2="996.8472">
					<stop  offset="0" style="stop-color:#AA80F9"/>
					<stop  offset="0.9964" style="stop-color:#6165D7"/>
				</linearGradient>
				<path class="st84" d="M2450.7,837.4c0,123-113.2,219.4-248,215.5c-129.8-3.8-231.5-99.9-231.5-214.7
					c0-114.8,101.7-211.2,231.5-215.5C2337.5,618.4,2450.7,714.4,2450.7,837.4z"/>
				<g>
					<path class="st2" d="M2141.9,897l-96.2-49v-15.8l96.2-55.7v26.9l-66.6,35.6l66.6,31.3V897z"/>
					<path class="st2" d="M2244.2,754.8l-54.7,165.4l-27.5-0.3l54.3-164.8L2244.2,754.8z"/>
					<path class="st2" d="M2264.6,870.6l70.3-32.1l-70.3-36v-27.3l102.6,56.2v16.5l-102.6,49.9V870.6z"/>
				</g>
				<g class="st26">
					<linearGradient id="SVGID_75_" gradientUnits="userSpaceOnUse" x1="2022.7954" y1="707.1024" x2="2358.3857" y2="1380.5514">
						<stop  offset="0" style="stop-color:#AA80F9"/>
						<stop  offset="0.9964" style="stop-color:#6165D7"/>
					</linearGradient>
					<path class="st85" d="M2261.3,999.4c-29.3-64.4,0.3-123.9-39.2-165.2c-39.7-41.5-90.6-2.7-144.5-35.9
						c-20.6-12.7-43.4-37-60.3-87.1c-29.1,35.7-46.2,79.7-46.2,127.1c0,114.8,101.7,210.9,231.5,214.7c30.4,0.9,59.8-3.4,87-11.9
						C2276.3,1027,2267.4,1012.7,2261.3,999.4z"/>
				</g>
			</g>
		</g>
		<path class="st2" d="M1045.1,706.8c0,0,62.3-120.8,169.2-73.9c106.9,46.8,97,22.3,171.2,31.6c74.2,9.3,166.1,60.8,106.3,71.2
			c-59.8,10.4-527.8,22.2-527.8,22.2S970.8,713.1,1045.1,706.8z"/>
	</g>
</g>
</svg>
